<svg width="25" height="30" viewBox="0 0 25 30" fill="none" xmlns="http://www.w3.org/2000/svg">
<path d="M24.9501 3.67035C24.8967 3.20834 24.706 2.80687 24.4039 2.45308C24.2504 2.27335 24.0624 2.13259 23.8747 1.99069C23.2142 1.49273 22.5532 0.995535 21.8946 0.49493C21.5174 0.208113 21.0929 0.045028 20.6196 0.00151355C20.5828 0.00794612 20.5463 0.00340548 20.5095 0C20.4535 0.00529741 20.3974 0.00491903 20.3414 0.000756773C20.3061 0.00113516 20.2708 0.00151355 20.2355 0.00189193C20.2347 0.00454064 20.2332 0.00718934 20.2309 0.00945966C20.1875 0.0355683 20.138 0.0378387 20.0896 0.045028C19.6029 0.11957 19.1785 0.317088 18.8196 0.653852C18.6154 0.845316 18.4569 1.07197 18.2857 1.28878C18.1368 1.47722 17.991 1.66831 17.8424 1.85712C17.7799 1.93658 17.7569 1.9415 17.6766 1.88134C17.4936 1.74361 17.3116 1.60474 17.1278 1.46814C16.8649 1.27289 16.5575 1.31754 16.359 1.57409C15.5231 2.654 14.683 3.73051 13.847 4.81005C13.6962 5.00492 13.6774 5.20698 13.8064 5.41736C13.8405 5.47336 13.8363 5.51801 13.7972 5.56607C13.7645 5.60617 13.735 5.64855 13.707 5.69207C13.5607 5.91759 13.6187 6.21159 13.8409 6.36976C14.0574 6.52414 14.3575 6.4863 14.5287 6.28273C14.5444 6.26419 14.5602 6.24565 14.5755 6.22673C14.6692 6.11246 14.6711 6.1117 14.7862 6.19759C15.1681 6.48252 15.5473 6.77009 15.9261 7.0588C15.9729 7.09475 15.999 7.11934 16.0052 7.14545C16.0056 7.14583 16.0063 7.14621 16.0067 7.14659C16.0063 7.14697 16.0059 7.14734 16.0056 7.14772C16.0117 7.17799 15.9914 7.21016 15.9465 7.26389C15.8225 7.41108 15.8716 7.42508 15.649 7.34146C15.0936 7.13221 14.5782 7.2268 14.118 7.58552C13.7265 7.89049 13.5473 8.30558 13.555 8.79295C13.5584 9.00976 13.6076 9.22469 13.6344 9.44074C13.6594 9.64167 13.6859 9.84259 13.715 10.0428C13.725 10.112 13.6924 10.165 13.6521 10.2168C13.3988 10.5437 13.1455 10.8707 12.8914 11.1972C12.5218 11.6728 12.1529 12.1489 11.783 12.6237C10.9493 13.6938 10.1184 14.7662 9.28554 15.8366C8.81308 16.4439 8.34177 17.0524 7.86969 17.6597C7.01496 18.7596 6.161 19.86 5.3055 20.9596C4.89828 21.4829 4.49222 22.007 4.08577 22.5306C3.86969 22.8095 3.65438 23.0891 3.43638 23.3661C3.36959 23.4509 3.33582 23.455 3.25407 23.3937C2.87602 23.1092 2.50028 22.8216 2.1207 22.539C1.97869 22.4334 1.98253 22.4342 2.09191 22.2938C2.43235 21.8571 2.77163 21.4197 3.11091 20.9827C3.90385 19.9618 4.69679 18.9413 5.49011 17.9208C5.96603 17.3085 6.44079 16.6952 6.91709 16.0829C7.76875 14.9883 8.61849 13.8925 9.46977 12.7974C9.9737 12.1492 10.4765 11.4999 10.98 10.8514C11.6981 9.92659 12.4166 9.00182 13.1355 8.0778C13.2203 7.96844 13.2729 7.85341 13.2675 7.71076C13.2598 7.50492 13.1355 7.32746 12.9332 7.25481C12.739 7.1848 12.4991 7.24459 12.3729 7.40086C12.1222 7.71076 11.882 8.02861 11.6375 8.34304C10.7214 9.52248 9.80483 10.7015 8.88946 11.8813C7.97754 13.0562 7.06447 14.2304 6.15294 15.4053C5.57877 16.1454 5.00345 16.8847 4.42889 17.6245C3.67856 18.5898 2.92822 19.555 2.17904 20.521C1.75033 21.0739 1.32047 21.6255 0.891375 22.178C0.796192 22.3006 0.755892 22.4334 0.749368 22.5893C0.733632 22.9783 0.727875 23.368 0.699473 23.7566C0.687959 23.9133 0.687575 24.0707 0.683737 24.2273C0.67798 24.4722 0.667617 24.717 0.656487 24.961C0.6396 25.3258 0.638448 25.6917 0.607744 26.0561C0.593927 26.2184 0.596998 26.3822 0.592008 26.545C0.584716 26.7833 0.574737 27.0225 0.564758 27.2605C0.549022 27.6313 0.534821 28.0025 0.518702 28.3737C0.505269 28.6813 0.478402 28.9897 0.496057 29.2981C0.512177 29.5773 0.757428 29.8611 1.05065 29.9485C1.09134 29.9606 1.13547 29.9641 1.1704 29.9917C1.1727 29.9943 1.17385 29.997 1.17462 29.9992C1.24601 29.9996 1.31701 29.9996 1.3884 30C1.38917 29.997 1.3907 29.9943 1.39301 29.9913C1.54845 29.9262 1.71348 29.8888 1.87391 29.8388C2.40663 29.6735 2.93973 29.51 3.47322 29.3469C4.29955 29.0941 5.12473 28.8376 5.95144 28.5852C6.4761 28.4252 7.00038 28.2632 7.52388 28.1001C7.67587 28.0528 7.82901 28.0074 7.98023 27.9575C8.06735 27.9287 8.14449 27.8856 8.2013 27.816C8.36288 27.6181 8.52523 27.4202 8.668 27.2083C8.77931 27.0429 8.75973 26.7936 8.63538 26.6369C8.50757 26.4757 8.28573 26.4042 8.09076 26.4651C7.97677 26.5007 7.88351 26.5665 7.81097 26.6623C7.73382 26.764 7.71732 26.7663 7.62022 26.6918C7.24946 26.408 6.87487 26.1283 6.5022 25.8468C6.48761 25.8359 6.47341 25.8241 6.4596 25.8124C6.36787 25.7371 6.36441 25.7212 6.43734 25.6274C6.86681 25.0753 7.2959 24.5229 7.725 23.97C8.64267 22.788 9.5615 21.6066 10.4788 20.4242C10.9931 19.7609 11.5085 19.0983 12.0236 18.4354C12.2178 18.1856 12.4116 17.9359 12.6062 17.6862C12.6392 17.6438 12.6734 17.6105 12.7336 17.6094C13.0963 17.6014 13.4521 17.5303 13.8114 17.489C14.1767 17.4466 14.541 17.3948 14.9063 17.3528C14.9382 17.349 14.9808 17.3293 14.9992 17.3657C15.015 17.3971 14.9835 17.4277 14.9635 17.4538C14.693 17.8099 14.4166 18.1614 14.1422 18.5141C13.8267 18.9197 13.5108 19.3253 13.1953 19.7313C12.389 20.7689 11.5822 21.806 10.777 22.8443C10.2792 23.4861 9.7795 24.1263 9.28324 24.7688C9.20072 24.8755 9.12089 24.9788 9.10592 25.1203C9.0852 25.3163 9.19995 25.5316 9.38571 25.6232C9.56917 25.7136 9.81327 25.6841 9.95182 25.546C10.1226 25.3754 10.2573 25.1752 10.4047 24.986C11.2092 23.9511 12.0136 22.9158 12.8181 21.8806C13.2736 21.2945 13.7285 20.7083 14.1836 20.1222C14.7862 19.3461 15.3838 18.5663 15.9948 17.797C16.1395 17.6147 16.3034 17.4451 16.4554 17.2673C16.4976 17.2177 16.5456 17.2132 16.6028 17.2427C16.6688 17.2768 16.7279 17.3191 16.7824 17.3683C17.1424 17.6922 17.5074 18.0108 17.8689 18.3336C18.2051 18.634 18.5436 18.9318 18.8795 19.2326C19.0223 19.3605 19.1604 19.4945 19.3159 19.6084C19.9177 20.0496 20.7632 19.986 21.2963 19.4653C21.6908 19.0801 21.8098 18.6162 21.7319 18.0854C21.6582 17.5859 21.598 17.0845 21.5327 16.5839C21.4759 16.1492 21.4168 15.7148 21.3604 15.28C21.347 15.1752 21.3312 15.0704 21.317 14.9656C21.2859 14.7317 21.3945 14.5512 21.5473 14.3866C21.9384 13.9651 22.3245 13.539 22.7125 13.1149C23.0165 12.7827 23.317 12.4474 23.6256 12.1193C23.8382 11.8931 23.9952 11.6369 24.0516 11.3293C24.1291 10.9062 24.0416 10.518 23.7937 10.165C23.6079 9.90011 23.3592 9.71621 23.0507 9.61026C22.9428 9.57318 22.9347 9.54821 23.0069 9.4555C23.3984 8.95111 23.7902 8.44634 24.1825 7.94233C24.2646 7.83676 24.346 7.73044 24.427 7.62373C24.607 7.38611 24.5671 7.08945 24.3299 6.90707C24.1606 6.7769 23.9906 6.64749 23.819 6.5196C23.6705 6.40873 23.669 6.40798 23.7853 6.25889C24.0098 5.97094 24.2324 5.68185 24.4569 5.3939C24.6995 5.08324 24.8549 4.73551 24.9209 4.3488C24.9244 4.32799 24.9259 4.30642 24.9394 4.28863C24.942 4.28598 24.9451 4.28447 24.9478 4.28371C24.9443 4.25306 24.9401 4.22242 24.9639 4.19631C24.9639 4.04495 24.9639 3.8936 24.9639 3.74224C24.9401 3.72332 24.9466 3.69646 24.9501 3.67035ZM1.56649 28.8486C1.54538 28.7472 1.57915 27.7263 1.61676 27.3225C2.09383 27.6828 2.56015 28.0343 3.04144 28.3975C2.53943 28.5508 2.05315 28.6995 1.56649 28.8486ZM6.62463 27.2423C6.63653 27.2514 6.65073 27.2586 6.65764 27.287C6.40663 27.3642 6.15831 27.4402 5.91037 27.5166C5.40145 27.6729 4.89214 27.8284 4.38399 27.9874C4.3222 28.0067 4.27806 28.0025 4.22509 27.9624C3.39339 27.332 2.56054 26.7035 1.72615 26.0761C1.67894 26.0406 1.66244 26.0054 1.66512 25.9475C1.69045 25.3614 1.71348 24.7752 1.73651 24.1891C1.74457 23.9897 1.74495 23.7903 1.76299 23.5916C1.76606 23.5901 1.76837 23.5882 1.77105 23.5875C1.77374 23.5867 1.77796 23.5856 1.7795 23.5871C3.39454 24.8051 5.00959 26.0235 6.62463 27.2423ZM11.2107 16.1666C11.2291 16.5362 11.3681 16.8598 11.6175 17.1364C11.6716 17.1965 11.6786 17.1844 11.6248 17.2533C10.0555 19.2731 8.48646 21.2929 6.91709 23.3128C6.47495 23.8819 6.03281 24.4513 5.59067 25.0204C5.57954 25.0348 5.5684 25.0492 5.55727 25.0636C5.54307 25.0814 5.52734 25.081 5.50968 25.0681C5.4951 25.0571 5.48013 25.0465 5.46555 25.0356C5.071 24.7374 4.67645 24.4396 4.2819 24.1414C4.2746 24.1358 4.26731 24.1301 4.26002 24.1248C4.19784 24.0813 4.20398 24.0798 4.24467 24.0279C4.33448 23.9129 4.4239 23.7975 4.51333 23.6821C6.09153 21.6501 7.67011 19.6178 9.24831 17.5859C10.7762 15.6187 12.3045 13.6518 13.8328 11.6846C13.8474 11.6657 13.8639 11.6479 13.8954 11.6104C13.9161 11.7644 13.9349 11.8984 13.9522 12.0323C13.9607 12.0982 13.9695 12.1644 13.9737 12.2306C13.9837 12.3963 13.9253 12.5386 13.8133 12.6612C13.5484 12.951 13.2836 13.2416 13.0188 13.5315C12.5506 14.0442 12.0812 14.5558 11.6141 15.0696C11.3304 15.3814 11.19 15.7473 11.2107 16.1666ZM23.119 10.8763C23.1823 11.0875 23.1359 11.2767 22.9862 11.4409C22.7501 11.6993 22.5141 11.9581 22.2781 12.2166C21.7772 12.7652 21.2733 13.3113 20.7762 13.8633C20.4619 14.2126 20.3345 14.6239 20.3944 15.0889C20.4696 15.6735 20.5452 16.2581 20.6223 16.8424C20.686 17.3278 20.7521 17.8129 20.8165 18.2984C20.8208 18.3313 20.8215 18.3646 20.8242 18.399C20.8162 18.634 20.7056 18.8092 20.4938 18.9148C20.2788 19.0219 20.0654 19.0113 19.8697 18.8667C19.7818 18.8016 19.7024 18.7248 19.6202 18.6518C18.8676 17.984 18.1169 17.3142 17.3627 16.6479C17.0384 16.3614 16.6534 16.2324 16.2201 16.2596C16.0125 16.2729 15.8064 16.3085 15.5995 16.3349C15.2925 16.3739 14.9858 16.414 14.6788 16.4538C14.3656 16.4939 14.0528 16.5344 13.7396 16.5745C13.4418 16.6127 13.1439 16.652 12.8461 16.688C12.3986 16.7421 12.1483 16.3592 12.1675 16.0644C12.1767 15.9225 12.2351 15.8026 12.3303 15.6981C12.5544 15.4533 12.7778 15.2081 13.0015 14.9629C13.5185 14.3961 14.0393 13.8327 14.5513 13.2613C14.868 12.9079 14.9789 12.4883 14.9156 12.0217C14.8618 11.6263 14.8131 11.2305 14.7609 10.8347C14.7087 10.4393 14.6553 10.0439 14.6028 9.64848C14.5655 9.36696 14.5268 9.08544 14.4926 8.80316C14.4577 8.51559 14.6626 8.24353 14.9616 8.17466C15.1508 8.13115 15.3228 8.17088 15.469 8.29499C15.6479 8.4471 15.8217 8.60489 15.9971 8.76078C16.6519 9.34161 17.3036 9.92546 17.9618 10.5021C18.3222 10.8181 18.7498 10.9308 19.2261 10.8688C19.527 10.8298 19.8279 10.7916 20.1288 10.7534C20.4358 10.7144 20.7428 10.6762 21.0499 10.6368C21.3113 10.6035 21.5726 10.5691 21.834 10.5354C22.0436 10.5086 22.2543 10.4874 22.4631 10.4556C22.7617 10.4102 23.0349 10.596 23.119 10.8763ZM16.6841 8.01423C16.7283 7.95633 16.7732 7.89882 16.8185 7.84168C16.858 7.79211 16.8595 7.79174 16.9094 7.8292C17.1385 8.00174 17.3673 8.17428 17.596 8.34721C17.7688 8.47775 17.9418 8.60791 18.1142 8.73884C18.1384 8.757 18.1656 8.77176 18.1867 8.80468C18.0938 8.92462 17.9994 9.04647 17.9069 9.16566C17.8766 9.16793 17.8643 9.14825 17.8493 9.13463C17.4709 8.799 17.0929 8.46299 16.7148 8.12736C16.7079 8.12131 16.701 8.11526 16.6945 8.1092C16.6473 8.0638 16.6469 8.06342 16.6841 8.01423ZM18.711 9.86946C18.8223 9.72605 18.9313 9.58604 19.0437 9.44074C19.228 9.57999 19.4072 9.71508 19.5926 9.85508C19.5423 9.89027 19.492 9.88043 19.4464 9.88686C19.3074 9.90654 19.1677 9.92508 19.028 9.93795C18.9202 9.94854 18.8154 9.93151 18.711 9.86946ZM23.6275 4.76616C23.3853 5.0787 23.1428 5.39087 22.8998 5.70304C22.8545 5.76131 22.8538 5.76131 22.7958 5.71818C22.7098 5.65461 22.6266 5.58763 22.5383 5.52747C22.4112 5.4412 22.2688 5.41055 22.1176 5.44233C21.9023 5.48736 21.7622 5.6198 21.7096 5.82829C21.6551 6.04435 21.7212 6.23089 21.8977 6.37089C22.0819 6.51657 22.2723 6.65506 22.4596 6.79658C22.7106 6.98615 22.9616 7.17534 23.2122 7.36492C23.2852 7.42016 23.2794 7.40881 23.2284 7.47427C22.7586 8.07969 22.2877 8.68435 21.8171 9.28939C21.7442 9.38285 21.6693 9.47518 21.5987 9.57053C21.5707 9.60837 21.5389 9.62464 21.492 9.6288C21.3945 9.63751 21.2967 9.64886 21.2003 9.66588C21.1401 9.67648 21.0959 9.65945 21.0495 9.62426C20.5801 9.2682 20.1092 8.91441 19.639 8.55948C18.1261 7.41751 16.6135 6.27516 15.1009 5.13281C15.0645 5.10519 15.0288 5.07719 14.9858 5.04427C15.1693 4.80778 15.3462 4.57923 15.5231 4.35107C15.958 3.79143 16.3924 3.2318 16.8273 2.67217C16.833 2.66498 16.838 2.65741 16.8438 2.6506C16.8902 2.59233 16.891 2.59157 16.9493 2.63546C17.0982 2.74709 17.2468 2.85985 17.3953 2.97185C18.2846 3.64311 19.1739 4.31436 20.0624 4.98676C20.2028 5.09308 20.3571 5.13546 20.5287 5.09611C20.7386 5.04805 20.8756 4.91524 20.9271 4.71091C20.9804 4.49902 20.9167 4.3155 20.7463 4.1736C20.6573 4.09944 20.5621 4.03284 20.4696 3.96284C19.8778 3.51559 19.2859 3.06871 18.6941 2.62146C18.6772 2.6086 18.6599 2.59611 18.6431 2.58287C18.6254 2.56924 18.6246 2.55297 18.6381 2.53595C18.6473 2.52384 18.6569 2.51211 18.6661 2.5C18.9106 2.18556 19.1524 1.86885 19.3999 1.55668C19.6977 1.1817 20.0935 1.01937 20.5717 1.06062C20.8185 1.08181 21.0384 1.17943 21.2353 1.32889C21.6287 1.6282 22.0244 1.92523 22.4189 2.22302C22.7405 2.46595 23.0626 2.70811 23.3834 2.95179C23.9726 3.39867 24.0781 4.18382 23.6275 4.76616Z" fill="url(#paint0_linear_3828_118581)"/>
<path d="M5.40183 8.70819C5.59719 8.37256 6.11034 8.4577 6.18364 8.8376L6.42544 10.0919C6.44847 10.2115 6.52331 10.3148 6.63039 10.3754L7.75378 11.0107C8.09422 11.2033 8.00786 11.7092 7.62252 11.7814L6.35021 12.0198C6.22893 12.0425 6.12415 12.1163 6.06236 12.2219L5.41795 13.3294C5.2226 13.6651 4.70945 13.5799 4.63615 13.2L4.39435 11.9457C4.37132 11.8261 4.29648 11.7228 4.1894 11.6623L3.06601 11.0269C2.72557 10.8343 2.81193 10.3284 3.19727 10.2562L4.46958 10.0178C4.59086 9.99508 4.69564 9.9213 4.75743 9.81573L5.40183 8.70819Z" fill="url(#paint1_linear_3828_118581)"/>
<path d="M2.37554 16.6384C2.29111 16.5627 2.34753 16.4246 2.46152 16.4277L2.83764 16.4382C2.87334 16.4394 2.90788 16.4246 2.93206 16.3985L3.18498 16.1238C3.26175 16.0406 3.40183 16.0962 3.39876 16.2086L3.38802 16.5794C3.38687 16.6146 3.40183 16.6486 3.42832 16.6725L3.70696 16.9218C3.79139 16.9975 3.73498 17.1356 3.62099 17.1326L3.24486 17.122C3.20916 17.1209 3.17462 17.1356 3.15044 17.1617L2.89752 17.4364C2.82076 17.5197 2.68067 17.4641 2.68374 17.3517L2.69448 16.9809C2.69564 16.9457 2.68067 16.9116 2.65418 16.8878L2.37554 16.6384Z" fill="url(#paint2_linear_3828_118581)"/>
<path d="M12.1648 5.90851C12.1153 5.8071 12.2205 5.70002 12.3249 5.74504L12.6695 5.89413C12.7025 5.90813 12.7398 5.90775 12.772 5.89224L13.1113 5.73142C13.2142 5.68261 13.3228 5.78629 13.2771 5.88921L13.1259 6.229C13.1113 6.26154 13.1121 6.29824 13.1278 6.33003L13.2909 6.66414C13.3404 6.76555 13.2353 6.87263 13.1309 6.82761L12.7862 6.67852C12.7532 6.66452 12.716 6.6649 12.6837 6.68041L12.3445 6.84123C12.2416 6.89004 12.133 6.78636 12.1787 6.68344L12.3299 6.34365C12.3445 6.31111 12.3437 6.27441 12.328 6.24262L12.1648 5.90851Z" fill="url(#paint3_linear_3828_118581)"/>
<path d="M13.5868 21.9608C13.5534 21.8045 13.735 21.6918 13.8636 21.789L14.2877 22.1095C14.328 22.1402 14.3798 22.1515 14.4297 22.1413L14.9524 22.0327C15.1109 21.9998 15.2253 22.1787 15.1266 22.3055L14.8016 22.7236C14.7705 22.7634 14.759 22.8144 14.7693 22.8636L14.8795 23.379C14.9129 23.5353 14.7313 23.648 14.6028 23.5508L14.1787 23.2303C14.1384 23.1996 14.0865 23.1883 14.0366 23.1985L13.5139 23.3071C13.3554 23.34 13.241 23.161 13.3397 23.0343L13.6647 22.6162C13.6958 22.5764 13.7073 22.5253 13.697 22.4762L13.5868 21.9608Z" fill="url(#paint4_linear_3828_118581)"/>
<defs>
<linearGradient id="paint0_linear_3828_118581" x1="12.7271" y1="0" x2="12.7271" y2="30" gradientUnits="userSpaceOnUse">
<stop stop-color="#FF0049"/>
<stop offset="0.25" stop-color="#FFBE3B"/>
<stop offset="0.5" stop-color="#00BB5C"/>
<stop offset="0.75" stop-color="#187DC4"/>
<stop offset="1" stop-color="#58268B"/>
</linearGradient>
<linearGradient id="paint1_linear_3828_118581" x1="12.7271" y1="0" x2="12.7271" y2="30" gradientUnits="userSpaceOnUse">
<stop stop-color="#FF0049"/>
<stop offset="0.25" stop-color="#FFBE3B"/>
<stop offset="0.5" stop-color="#00BB5C"/>
<stop offset="0.75" stop-color="#187DC4"/>
<stop offset="1" stop-color="#58268B"/>
</linearGradient>
<linearGradient id="paint2_linear_3828_118581" x1="12.7271" y1="0" x2="12.7271" y2="30" gradientUnits="userSpaceOnUse">
<stop stop-color="#FF0049"/>
<stop offset="0.25" stop-color="#FFBE3B"/>
<stop offset="0.5" stop-color="#00BB5C"/>
<stop offset="0.75" stop-color="#187DC4"/>
<stop offset="1" stop-color="#58268B"/>
</linearGradient>
<linearGradient id="paint3_linear_3828_118581" x1="12.7271" y1="0" x2="12.7271" y2="30" gradientUnits="userSpaceOnUse">
<stop stop-color="#FF0049"/>
<stop offset="0.25" stop-color="#FFBE3B"/>
<stop offset="0.5" stop-color="#00BB5C"/>
<stop offset="0.75" stop-color="#187DC4"/>
<stop offset="1" stop-color="#58268B"/>
</linearGradient>
<linearGradient id="paint4_linear_3828_118581" x1="12.7271" y1="0" x2="12.7271" y2="30" gradientUnits="userSpaceOnUse">
<stop stop-color="#FF0049"/>
<stop offset="0.25" stop-color="#FFBE3B"/>
<stop offset="0.5" stop-color="#00BB5C"/>
<stop offset="0.75" stop-color="#187DC4"/>
<stop offset="1" stop-color="#58268B"/>
</linearGradient>
</defs>
</svg>
