<svg width="32" height="22" viewBox="0 0 32 22" fill="none" xmlns="http://www.w3.org/2000/svg">
<path d="M25.5746 20H12.6778C11.0716 20 9.47023 19.3231 8.28435 18.143C7.07071 16.9351 6.40234 15.3584 6.40234 13.7031C6.40294 12.9251 6.55683 12.1551 6.85493 11.4386C7.15302 10.7221 7.58926 10.0738 8.13785 9.5319C9.03931 8.6353 10.1812 8.03002 11.4198 7.79217V7.65956C11.4198 3.43616 14.7961 0 18.9459 0C23.0957 0 26.472 3.43616 26.472 7.65956V7.73685C29.384 8.15914 31.4894 10.5948 31.4894 13.7031C31.4894 15.3664 30.8949 16.9329 29.8154 18.1141C29.276 18.711 28.6203 19.1869 27.8902 19.5116C27.16 19.8363 26.3714 20.0026 25.5746 20ZM18.9459 1.70213C17.3939 1.70391 15.9061 2.33214 14.8087 3.44899C13.7113 4.56584 13.094 6.0801 13.0922 7.65956V9.33004L12.3154 9.38637C9.93733 9.55866 8.07482 11.4548 8.07482 13.7031C8.07482 16.1508 10.2257 18.2978 12.6778 18.2978H25.5746C27.9535 18.2978 29.817 16.2796 29.817 13.7031C29.817 11.2262 28.054 9.40573 25.6253 9.37445L24.7996 9.36382V7.65956C24.7978 6.0801 24.1805 4.56584 23.0831 3.44899C21.9857 2.33214 20.4978 1.70391 18.9459 1.70213Z" fill="#1E71F2"/>
<path d="M3.36523 20.9546C4.74204 20.9546 5.84023 19.8216 5.84023 18.4463C5.84023 17.071 4.74204 15.9381 3.36523 15.9381C1.98843 15.9381 0.890234 17.071 0.890234 18.4463C0.890234 19.8216 1.98843 20.9546 3.36523 20.9546Z" stroke="#1E71F2" stroke-width="1.2"/>
</svg>
