<svg width="25" height="26" viewBox="0 0 25 26" fill="none" xmlns="http://www.w3.org/2000/svg">
<path fill-rule="evenodd" clip-rule="evenodd" d="M17.869 1.43726H7.05398C3.28898 1.43726 0.927734 4.10476 0.927734 7.87976V18.0623C0.927734 21.8373 3.27898 24.5048 7.05398 24.5048H17.8627C21.644 24.5048 23.994 21.8373 23.994 18.0623V7.87976C23.999 4.10476 21.6477 1.43726 17.869 1.43726Z" stroke="#1E71F2" stroke-width="1.5" stroke-linecap="round" stroke-linejoin="round"/>
<path fill-rule="evenodd" clip-rule="evenodd" d="M10.8689 8.98121C10.8689 10.2562 9.83641 11.2887 8.56141 11.2887C7.28766 11.2887 6.25391 10.2562 6.25391 8.98121C6.25391 7.70621 7.28766 6.67371 8.56141 6.67371C9.83516 6.67496 10.8677 7.70746 10.8689 8.98121Z" stroke="#1E71F2" stroke-width="1.5" stroke-linecap="round" stroke-linejoin="round"/>
<path d="M23.999 16.6888C22.8452 15.5013 20.6265 13.1025 18.214 13.1025C15.8002 13.1025 14.409 18.3938 12.0877 18.3938C9.76648 18.3938 7.65773 16.0013 5.79773 17.535C3.93773 19.0675 2.17773 22.2013 2.17773 22.2013" stroke="#1E71F2" stroke-width="1.5" stroke-linecap="round" stroke-linejoin="round"/>
</svg>
