<svg width="25" height="22" viewBox="0 0 25 22" fill="none" xmlns="http://www.w3.org/2000/svg">
<path d="M21.5434 0.6875H3.21762C2.48857 0.6875 1.78939 0.961023 1.27388 1.4479C0.758362 1.93477 0.46875 2.59511 0.46875 3.28365V15.399C0.46875 16.0876 0.758362 16.7479 1.27388 17.2348C1.78939 17.7217 2.48857 17.9952 3.21762 17.9952H21.5434C22.2725 17.9952 22.9716 17.7217 23.4872 17.2348C24.0027 16.7479 24.2923 16.0876 24.2923 15.399V3.28365C24.2923 2.59511 24.0027 1.93477 23.4872 1.4479C22.9716 0.961023 22.2725 0.6875 21.5434 0.6875ZM22.4597 15.399C22.4597 15.6286 22.3632 15.8487 22.1913 16.011C22.0195 16.1733 21.7864 16.2644 21.5434 16.2644H3.21762C2.9746 16.2644 2.74154 16.1733 2.5697 16.011C2.39787 15.8487 2.30133 15.6286 2.30133 15.399V3.28365C2.30133 3.05414 2.39787 2.83403 2.5697 2.67173C2.74154 2.50944 2.9746 2.41827 3.21762 2.41827H21.5434C21.7864 2.41827 22.0195 2.50944 22.1913 2.67173C22.3632 2.83403 22.4597 3.05414 22.4597 3.28365V15.399ZM16.962 20.5913C16.962 20.8209 16.8654 21.041 16.6936 21.2033C16.5217 21.3656 16.2887 21.4567 16.0457 21.4567H8.71536C8.47234 21.4567 8.23928 21.3656 8.06744 21.2033C7.8956 21.041 7.79907 20.8209 7.79907 20.5913C7.79907 20.3618 7.8956 20.1417 8.06744 19.9794C8.23928 19.8171 8.47234 19.726 8.71536 19.726H16.0457C16.2887 19.726 16.5217 19.8171 16.6936 19.9794C16.8654 20.1417 16.962 20.3618 16.962 20.5913ZM16.5542 8.62091L11.0565 5.15937C10.9185 5.0724 10.758 5.02246 10.5923 5.01487C10.4265 5.00729 10.2617 5.04235 10.1155 5.11632C9.96918 5.19028 9.84691 5.30037 9.7617 5.43484C9.67649 5.5693 9.63154 5.7231 9.63165 5.87981V12.8029C9.63154 12.9596 9.67649 13.1134 9.7617 13.2479C9.84691 13.3823 9.96918 13.4924 10.1155 13.5664C10.2617 13.6403 10.4265 13.6754 10.5923 13.6678C10.758 13.6602 10.9185 13.6103 11.0565 13.5233L16.5542 10.0618C16.6799 9.98278 16.783 9.87568 16.8543 9.74999C16.9256 9.62431 16.9629 9.48393 16.9629 9.34135C16.9629 9.19876 16.9256 9.05838 16.8543 8.9327C16.783 8.80701 16.6799 8.69991 16.5542 8.62091ZM11.4642 11.1857V7.5024L14.3941 9.34135L11.4642 11.1857Z" fill="#1E71F2"/>
</svg>
