<svg width="23" height="22" viewBox="0 0 23 22" fill="none" xmlns="http://www.w3.org/2000/svg">
<path d="M11.1638 0C9.01798 0 6.92038 0.636301 5.13622 1.82844C3.35205 3.02058 1.96147 4.71501 1.14031 6.69746C0.319154 8.67991 0.104301 10.8613 0.522925 12.9659C0.941548 15.0705 1.97484 17.0036 3.49215 18.5209C5.00945 20.0382 6.94261 21.0715 9.04717 21.4902C11.1517 21.9088 13.3332 21.6939 15.3156 20.8728C17.2981 20.0516 18.9925 18.661 20.1846 16.8769C21.3768 15.0927 22.0131 12.9951 22.0131 10.8493C22.01 7.97283 20.866 5.21503 18.832 3.18104C16.7981 1.14706 14.0403 0.00303762 11.1638 0ZM20.344 10.8493C20.3461 12.9957 19.5923 15.0744 18.2148 16.7205L5.29262 3.79726C6.63314 2.68205 8.26355 1.9717 9.99306 1.74932C11.7226 1.52695 13.4797 1.80176 15.0587 2.54158C16.6377 3.28141 17.9734 4.45565 18.9094 5.92691C19.8454 7.39816 20.343 9.10556 20.344 10.8493ZM1.98358 10.8493C1.98145 8.70289 2.73526 6.62426 4.11276 4.97817L17.0349 17.9014C15.6944 19.0166 14.064 19.7269 12.3345 19.9493C10.605 20.1717 8.84789 19.8969 7.26886 19.157C5.68984 18.4172 4.35418 17.243 3.41818 15.7717C2.48219 14.3005 1.98458 12.5931 1.98358 10.8493Z" fill="#646464"/>
</svg>
