<svg width="21" height="19" viewBox="0 0 21 19" fill="none" xmlns="http://www.w3.org/2000/svg">
<path fill-rule="evenodd" clip-rule="evenodd" d="M16.2251 4.35957V4.35957C15.8536 4.35957 15.517 4.14546 15.3587 3.81084C15.0728 3.20535 14.7093 2.43155 14.4942 2.0103C14.1765 1.38389 13.6617 1.0194 12.9486 1.01442C12.9367 1.01342 8.28394 1.01342 8.27199 1.01442C7.55894 1.0194 7.04506 1.38389 6.72638 2.0103C6.51227 2.43155 6.14877 3.20535 5.86296 3.81084C5.70461 4.14546 5.36701 4.35957 4.99654 4.35957V4.35957C3.00877 4.35957 1.39844 5.96991 1.39844 7.95668V13.8682C1.39844 15.854 3.00877 17.4653 4.99654 17.4653H16.2251C18.2118 17.4653 19.8222 15.854 19.8222 13.8682V7.95668C19.8222 5.96991 18.2118 4.35957 16.2251 4.35957Z" stroke="#1E71F2" stroke-width="1.62962" stroke-linecap="round" stroke-linejoin="round"/>
<path fill-rule="evenodd" clip-rule="evenodd" d="M7.44541 10.5585C7.44442 12.3043 8.86952 13.7324 10.6123 13.7314C12.3521 13.7294 13.7732 12.3073 13.7762 10.5655C13.7792 8.81674 12.3591 7.39164 10.6143 7.38965C8.85956 7.38766 7.43147 8.83666 7.44541 10.5585Z" stroke="#1E71F2" stroke-width="1.62962" stroke-linecap="round" stroke-linejoin="round"/>
<path d="M15.4925 8.22905C15.3963 8.21918 15.3013 8.19407 15.1949 8.15123C15.0765 8.09863 14.974 8.03173 14.8749 7.93105C14.6968 7.74168 14.5938 7.49403 14.5938 7.23855C14.5938 7.10284 14.6215 6.96834 14.6757 6.8465C14.73 6.72305 14.7943 6.61892 14.9106 6.50565C14.9991 6.4286 15.0897 6.3666 15.2136 6.31203C15.581 6.16646 16.018 6.25344 16.2911 6.52642C16.3729 6.60706 16.4418 6.70438 16.4801 6.78645L16.5028 6.84464C16.5578 6.96834 16.5855 7.10284 16.5855 7.23855C16.5855 7.4992 16.4837 7.74027 16.2949 7.94092C16.1316 8.10528 15.9172 8.20636 15.6884 8.22906L15.5896 8.23394L15.4925 8.22905Z" fill="#1E71F2"/>
</svg>
