<svg width="27" height="27" viewBox="0 0 27 27" fill="none" xmlns="http://www.w3.org/2000/svg">
<path d="M13.1737 0.0976562C5.97357 0.0976562 0.136719 5.93451 0.136719 13.1346C0.136719 20.3347 5.97357 26.1715 13.1737 26.1715C20.3737 26.1715 26.2106 20.3347 26.2106 13.1346C26.2106 5.93451 20.3737 0.0976562 13.1737 0.0976562ZM21.163 21.124C19.182 23.0991 16.5365 24.2659 13.7422 24.3971C10.9478 24.5283 8.20467 23.6144 6.0473 21.8335C3.88994 20.0527 2.47286 17.5324 2.07221 14.7638C1.67155 11.9952 2.31601 9.17659 3.88001 6.85719C5.44402 4.53779 7.81552 2.88375 10.5324 2.21737C13.2494 1.55098 16.1171 1.91999 18.5768 3.25249C21.0365 4.58498 22.912 6.78551 23.8379 9.4253C24.7637 12.0651 24.6736 14.955 23.5851 17.532C23.0178 18.8748 22.1952 20.0947 21.163 21.124Z" fill="#1E71F2"/>
<path d="M9.6972 10.0918H7.52437V12.2646H9.6972V10.0918Z" fill="#1E71F2"/>
<path d="M18.8229 10.0918H16.6501V12.2646H18.8229V10.0918Z" fill="#1E71F2"/>
<path d="M17.6436 15.9162C17.3074 16.7646 16.7234 17.492 15.9677 18.0036C15.2121 18.5152 14.3198 18.7873 13.4072 18.7844H12.9401C12.0275 18.7873 11.1352 18.5153 10.3795 18.0037C9.62375 17.4921 9.03971 16.7646 8.7035 15.9162L8.63402 15.7424H6.76208L7.08974 16.5616C7.55744 17.7309 8.36475 18.7332 9.40754 19.4392C10.4503 20.1452 11.6808 20.5226 12.9401 20.5226H13.4072C14.6665 20.5226 15.897 20.1452 16.9398 19.4392C17.9825 18.7332 18.7899 17.7309 19.2576 16.5616L19.5852 15.7424H17.7131L17.6436 15.9162Z" fill="#1E71F2"/>
</svg>
