<svg width="21" height="21" viewBox="0 0 21 21" fill="none" xmlns="http://www.w3.org/2000/svg">
<path fill-rule="evenodd" clip-rule="evenodd" d="M14.9268 1.01758H6.31048C3.3109 1.01758 1.42969 3.14278 1.42969 6.15033V14.2628C1.42969 17.2703 3.30293 19.3955 6.31048 19.3955H14.9218C17.9344 19.3955 19.8066 17.2703 19.8066 14.2628V6.15033C19.8106 3.14278 17.9374 1.01758 14.9268 1.01758Z" stroke="#1E71F2" stroke-width="1.62962" stroke-linecap="round" stroke-linejoin="round"/>
<path fill-rule="evenodd" clip-rule="evenodd" d="M9.35061 7.02882C9.35061 8.04461 8.52801 8.86721 7.51222 8.86721C6.49742 8.86721 5.67383 8.04461 5.67383 7.02882C5.67383 6.01302 6.49742 5.19043 7.51222 5.19043C8.52702 5.19143 9.34961 6.01402 9.35061 7.02882Z" stroke="#1E71F2" stroke-width="1.62962" stroke-linecap="round" stroke-linejoin="round"/>
<path d="M19.8108 13.1687C18.8916 12.2226 17.1239 10.3115 15.2019 10.3115C13.2789 10.3115 12.1704 14.5271 10.3211 14.5271C8.47175 14.5271 6.79171 12.621 5.30984 13.8429C3.82798 15.0639 2.42578 17.5605 2.42578 17.5605" stroke="#1E71F2" stroke-width="1.62962" stroke-linecap="round" stroke-linejoin="round"/>
</svg>
