<svg width="16" height="22" viewBox="0 0 16 22" fill="none" xmlns="http://www.w3.org/2000/svg">
<path d="M8.12727 15.4601C9.36174 15.4588 10.5453 14.972 11.4182 14.1064C12.2911 13.2408 12.782 12.0672 12.7833 10.8431V4.68724C12.7833 3.46275 12.2928 2.28842 11.4196 1.42258C10.5464 0.556737 9.36213 0.0703125 8.12727 0.0703125C6.89241 0.0703125 5.70813 0.556737 4.83495 1.42258C3.96177 2.28842 3.47122 3.46275 3.47122 4.68724V10.8431C3.47251 12.0672 3.96346 13.2408 4.83637 14.1064C5.70927 14.972 6.89281 15.4588 8.12727 15.4601ZM5.02324 4.68724C5.02324 3.87091 5.35027 3.08803 5.93239 2.5108C6.51451 1.93357 7.30403 1.60929 8.12727 1.60929C8.95051 1.60929 9.74004 1.93357 10.3222 2.5108C10.9043 3.08803 11.2313 3.87091 11.2313 4.68724V10.8431C11.2313 11.6595 10.9043 12.4423 10.3222 13.0196C9.74004 13.5968 8.95051 13.9211 8.12727 13.9211C7.30403 13.9211 6.51451 13.5968 5.93239 13.0196C5.35027 12.4423 5.02324 11.6595 5.02324 10.8431V4.68724ZM8.90328 18.4995V20.8465C8.90328 21.0506 8.82152 21.2463 8.67599 21.3906C8.53046 21.5349 8.33308 21.616 8.12727 21.616C7.92146 21.616 7.72408 21.5349 7.57855 21.3906C7.43302 21.2463 7.35126 21.0506 7.35126 20.8465V18.4995C5.43806 18.3065 3.665 17.4168 2.37496 16.0026C1.08492 14.5884 0.369551 12.7501 0.367188 10.8431C0.367188 10.6391 0.448945 10.4433 0.594475 10.299C0.740005 10.1547 0.937386 10.0736 1.1432 10.0736C1.34901 10.0736 1.54639 10.1547 1.69192 10.299C1.83745 10.4433 1.9192 10.6391 1.9192 10.8431C1.9192 12.4758 2.57327 14.0416 3.73751 15.196C4.90174 16.3505 6.48079 16.999 8.12727 16.999C9.77375 16.999 11.3528 16.3505 12.517 15.196C13.6813 14.0416 14.3353 12.4758 14.3353 10.8431C14.3353 10.6391 14.4171 10.4433 14.5626 10.299C14.7082 10.1547 14.9055 10.0736 15.1113 10.0736C15.3172 10.0736 15.5145 10.1547 15.6601 10.299C15.8056 10.4433 15.8874 10.6391 15.8874 10.8431C15.885 12.7501 15.1696 14.5884 13.8796 16.0026C12.5895 17.4168 10.8165 18.3065 8.90328 18.4995Z" fill="#1E71F2"/>
</svg>
