<svg width="20" height="22" viewBox="0 0 20 22" fill="none" xmlns="http://www.w3.org/2000/svg">
<path d="M2.77847 1.10912C2.70603 1.02653 2.61811 0.959297 2.51979 0.911329C2.42148 0.86336 2.31473 0.835605 2.20573 0.829674C2.09673 0.823743 1.98766 0.839753 1.88482 0.876776C1.78199 0.913799 1.68744 0.971099 1.60666 1.04535C1.52588 1.11961 1.46047 1.20934 1.41423 1.30936C1.36799 1.40937 1.34183 1.51767 1.33727 1.62798C1.33271 1.7383 1.34985 1.84843 1.38768 1.95199C1.42551 2.05556 1.48329 2.1505 1.55767 2.23131L3.2837 4.15239C2.55067 5.42504 2.16562 6.87207 2.16807 8.34496C2.16807 12.0307 1.3164 14.8507 0.744143 15.8478C0.598009 16.1013 0.520537 16.3892 0.519541 16.6827C0.518545 16.9761 0.59406 17.2646 0.738471 17.5191C0.882882 17.7736 1.09108 17.985 1.34207 18.1322C1.59307 18.2793 1.87798 18.3569 2.16807 18.3571H6.37489C6.56421 19.3001 7.07003 20.148 7.80665 20.757C8.54327 21.3659 9.46538 21.6986 10.4167 21.6986C11.3681 21.6986 12.2902 21.3659 13.0268 20.757C13.7635 20.148 14.2693 19.3001 14.4586 18.3571H16.0506L18.055 20.5869C18.1275 20.6695 18.2154 20.7367 18.3137 20.7846C18.412 20.8326 18.5188 20.8604 18.6278 20.8663C18.7368 20.8722 18.8458 20.8562 18.9487 20.8192C19.0515 20.7822 19.146 20.7249 19.2268 20.6506C19.3076 20.5764 19.373 20.4866 19.4193 20.3866C19.4655 20.2866 19.4917 20.1783 19.4962 20.068C19.5008 19.9577 19.4836 19.8476 19.4458 19.744C19.408 19.6404 19.3502 19.5455 19.2758 19.4647L2.77847 1.10912ZM10.4167 20.0258C9.90514 20.0256 9.40616 19.8651 8.98848 19.5662C8.57081 19.2674 8.25496 18.845 8.08443 18.3571H12.7491C12.5785 18.845 12.2627 19.2674 11.845 19.5662C11.4273 19.8651 10.9283 20.0256 10.4167 20.0258ZM2.16807 16.6884C2.96201 15.3076 3.8178 12.1078 3.8178 8.34496C3.81636 7.34792 4.03697 6.36337 4.46326 5.46439L14.5504 16.6884H2.16807ZM19.2841 16.1951C19.1877 16.2329 19.0853 16.2523 18.982 16.2524C18.8163 16.2523 18.6545 16.2016 18.5177 16.1071C18.3808 16.0126 18.2753 15.8787 18.2148 15.7226C17.4642 13.788 17.0157 11.0305 17.0157 8.34496C17.016 7.17752 16.7136 6.0304 16.1387 5.01811C15.5637 4.00582 14.7364 3.16377 13.7391 2.57599C12.7419 1.98822 11.6097 1.67528 10.4555 1.66842C9.30136 1.66156 8.1656 1.96101 7.16161 2.53689C6.97177 2.64093 6.74916 2.66554 6.54159 2.60542C6.33401 2.54531 6.15801 2.40526 6.05138 2.21535C5.94475 2.02544 5.91599 1.80081 5.97127 1.5897C6.02655 1.37858 6.16147 1.1978 6.34705 1.08618C7.60197 0.366189 9.02163 -0.00828218 10.4643 0.000138957C11.9071 0.0085601 13.3223 0.399579 14.569 1.13417C15.8156 1.86875 16.8499 2.92122 17.5687 4.18651C18.2875 5.45179 18.6657 6.88565 18.6654 8.34496C18.6654 12.0317 19.4954 14.4555 19.7501 15.1115C19.8301 15.3174 19.8259 15.547 19.7385 15.7499C19.6511 15.9527 19.4876 16.1121 19.2841 16.193V16.1951Z" fill="#646464"/>
</svg>
