<svg width="34" height="34" viewBox="0 0 34 34" fill="none" xmlns="http://www.w3.org/2000/svg">
<path d="M16.154 1.64844H9.92232C4.79732 1.64844 1.58398 5.27677 1.58398 10.4134V24.2701C1.58398 29.4068 4.78232 33.0351 9.92232 33.0351H24.629C29.7707 33.0351 32.969 29.4068 32.969 24.2701V17.5568" stroke="#515151" stroke-width="1.5" stroke-linecap="round" stroke-linejoin="round"/>
<path fill-rule="evenodd" clip-rule="evenodd" d="M11.713 15.2015L24.168 2.74648C25.7197 1.19648 28.2347 1.19648 29.7864 2.74648L31.8147 4.77482C33.3664 6.32648 33.3664 8.84315 31.8147 10.3932L19.2997 22.9082C18.6214 23.5865 17.7014 23.9682 16.7414 23.9682H10.498L10.6547 17.6682C10.678 16.7415 11.0564 15.8582 11.713 15.2015Z" stroke="#515151" stroke-width="1.5" stroke-linecap="round" stroke-linejoin="round"/>
<path d="M22.2754 4.6709L29.8854 12.2809" stroke="#515151" stroke-width="1.5" stroke-linecap="round" stroke-linejoin="round"/>
</svg>
