<svg width="23" height="25" viewBox="0 0 23 25" fill="none" xmlns="http://www.w3.org/2000/svg">
<path d="M10.8611 1.67188C8.71299 1.67188 6.61311 2.30887 4.827 3.5023C3.0409 4.69574 1.64881 6.39201 0.826758 8.37662C0.00470595 10.3612 -0.21038 12.545 0.208698 14.6519C0.627776 16.7587 1.6622 18.694 3.18115 20.2129C4.7001 21.7319 6.63537 22.7663 8.74222 23.1854C10.8491 23.6045 13.0329 23.3894 15.0175 22.5673C17.0021 21.7453 18.6984 20.3532 19.8918 18.5671C21.0852 16.781 21.7222 14.6811 21.7222 12.533C21.7192 9.65337 20.5739 6.89257 18.5377 4.85638C16.5015 2.82018 13.7407 1.67492 10.8611 1.67188ZM5.23005 19.7911C5.83444 18.8459 6.66706 18.068 7.65116 17.5292C8.63525 16.9903 9.73916 16.7079 10.8611 16.7079C11.9831 16.7079 13.087 16.9903 14.0711 17.5292C15.0552 18.068 15.8878 18.8459 16.4922 19.7911C14.8822 21.0433 12.9007 21.7231 10.8611 21.7231C8.8215 21.7231 6.84007 21.0433 5.23005 19.7911ZM7.51923 11.6975C7.51923 11.0366 7.71523 10.3904 8.08244 9.84087C8.44965 9.2913 8.97158 8.86296 9.58223 8.61002C10.1929 8.35708 10.8648 8.2909 11.5131 8.41985C12.1613 8.54879 12.7568 8.86708 13.2242 9.33445C13.6916 9.80182 14.0098 10.3973 14.1388 11.0455C14.2677 11.6938 14.2015 12.3657 13.9486 12.9764C13.6957 13.587 13.2673 14.109 12.7178 14.4762C12.1682 14.8434 11.5221 15.0394 10.8611 15.0394C9.97479 15.0394 9.12477 14.6873 8.49805 14.0606C7.87132 13.4339 7.51923 12.5838 7.51923 11.6975ZM17.7287 18.633C16.7969 17.2827 15.4867 16.2381 13.9628 15.6305C14.7814 14.9858 15.3787 14.102 15.6717 13.102C15.9647 12.1021 15.9388 11.0357 15.5976 10.0512C15.2564 9.06662 14.617 8.21286 13.7681 7.60861C12.9192 7.00436 11.9031 6.67966 10.8611 6.67966C9.81913 6.67966 8.80305 7.00436 7.95416 7.60861C7.10527 8.21286 6.46578 9.06662 6.12461 10.0512C5.78344 11.0357 5.75756 12.1021 6.05055 13.102C6.34355 14.102 6.94086 14.9858 7.75943 15.6305C6.23555 16.2381 4.92534 17.2827 3.99355 18.633C2.81613 17.3089 2.04656 15.6727 1.77751 13.9214C1.50847 12.1701 1.75141 10.3784 2.47709 8.76198C3.20277 7.14557 4.38024 5.77338 5.86772 4.81067C7.35521 3.84796 9.08927 3.33576 10.8611 3.33576C12.633 3.33576 14.367 3.84796 15.8545 4.81067C17.342 5.77338 18.5195 7.14557 19.2451 8.76198C19.9708 10.3784 20.2138 12.1701 19.9447 13.9214C19.6757 15.6727 18.9061 17.3089 17.7287 18.633Z" fill="#E95050"/>
<line x1="22.1727" y1="0.407514" x2="0.760549" y2="24.0553" stroke="#E95050" stroke-width="1.21429"/>
</svg>
