<svg width="20" height="22" viewBox="0 0 20 22" fill="none" xmlns="http://www.w3.org/2000/svg">
<path d="M18.7985 3.33825H14.7802V2.50369C14.7802 1.83967 14.5262 1.20285 14.0741 0.733313C13.6219 0.263781 13.0087 0 12.3692 0H7.54733C6.9079 0 6.29467 0.263781 5.84252 0.733313C5.39038 1.20285 5.13637 1.83967 5.13637 2.50369V3.33825H1.11811C0.904964 3.33825 0.700552 3.42618 0.549838 3.58269C0.399124 3.7392 0.314453 3.95147 0.314453 4.17281C0.314453 4.39415 0.399124 4.60643 0.549838 4.76294C0.700552 4.91945 0.904964 5.00738 1.11811 5.00738H1.92176V20.0295C1.92176 20.4722 2.0911 20.8967 2.39253 21.2098C2.69396 21.5228 3.10278 21.6986 3.52907 21.6986H16.3875C16.8138 21.6986 17.2226 21.5228 17.524 21.2098C17.8255 20.8967 17.9948 20.4722 17.9948 20.0295V5.00738H18.7985C19.0116 5.00738 19.216 4.91945 19.3667 4.76294C19.5175 4.60643 19.6021 4.39415 19.6021 4.17281C19.6021 3.95147 19.5175 3.7392 19.3667 3.58269C19.216 3.42618 19.0116 3.33825 18.7985 3.33825ZM6.74368 2.50369C6.74368 2.28235 6.82835 2.07007 6.97906 1.91356C7.12978 1.75705 7.33419 1.66913 7.54733 1.66913H12.3692C12.5824 1.66913 12.7868 1.75705 12.9375 1.91356C13.0882 2.07007 13.1729 2.28235 13.1729 2.50369V3.33825H6.74368V2.50369ZM16.3875 20.0295H3.52907V5.00738H16.3875V20.0295ZM8.35098 9.18019V15.8567C8.35098 16.078 8.26631 16.2903 8.1156 16.4468C7.96488 16.6033 7.76047 16.6913 7.54733 16.6913C7.33419 16.6913 7.12978 16.6033 6.97906 16.4468C6.82835 16.2903 6.74368 16.078 6.74368 15.8567V9.18019C6.74368 8.95885 6.82835 8.74658 6.97906 8.59006C7.12978 8.43355 7.33419 8.34563 7.54733 8.34563C7.76047 8.34563 7.96488 8.43355 8.1156 8.59006C8.26631 8.74658 8.35098 8.95885 8.35098 9.18019ZM13.1729 9.18019V15.8567C13.1729 16.078 13.0882 16.2903 12.9375 16.4468C12.7868 16.6033 12.5824 16.6913 12.3692 16.6913C12.1561 16.6913 11.9517 16.6033 11.801 16.4468C11.6503 16.2903 11.5656 16.078 11.5656 15.8567V9.18019C11.5656 8.95885 11.6503 8.74658 11.801 8.59006C11.9517 8.43355 12.1561 8.34563 12.3692 8.34563C12.5824 8.34563 12.7868 8.43355 12.9375 8.59006C13.0882 8.74658 13.1729 8.95885 13.1729 9.18019Z" fill="#646464"/>
</svg>
