<svg width="23" height="22" viewBox="0 0 23 22" fill="none" xmlns="http://www.w3.org/2000/svg">
<path d="M11.1638 0C9.01798 0 6.92038 0.636301 5.13622 1.82844C3.35205 3.02058 1.96147 4.71501 1.14031 6.69746C0.319154 8.67991 0.104301 10.8613 0.522925 12.9659C0.941548 15.0705 1.97484 17.0036 3.49215 18.5209C5.00945 20.0382 6.94261 21.0715 9.04717 21.4902C11.1517 21.9088 13.3332 21.6939 15.3156 20.8728C17.2981 20.0516 18.9925 18.661 20.1846 16.8769C21.3768 15.0927 22.0131 12.9951 22.0131 10.8493C22.01 7.97283 20.866 5.21503 18.832 3.18104C16.7981 1.14706 14.0403 0.00303762 11.1638 0ZM5.53882 18.0996C6.14256 17.1554 6.97427 16.3783 7.9573 15.8401C8.94033 15.3018 10.043 15.0197 11.1638 15.0197C12.2845 15.0197 13.3872 15.3018 14.3702 15.8401C15.3533 16.3783 16.185 17.1554 16.7887 18.0996C15.1805 19.3504 13.2012 20.0294 11.1638 20.0294C9.12637 20.0294 7.14709 19.3504 5.53882 18.0996ZM7.82552 10.0147C7.82552 9.35451 8.02131 8.70909 8.38812 8.16012C8.75493 7.61115 9.27629 7.18327 9.88628 6.93061C10.4963 6.67794 11.1675 6.61184 11.815 6.74064C12.4626 6.86945 13.0574 7.18739 13.5243 7.65425C13.9911 8.12111 14.3091 8.71593 14.4379 9.36349C14.5667 10.011 14.5006 10.6823 14.2479 11.2922C13.9952 11.9022 13.5674 12.4236 13.0184 12.7904C12.4694 13.1572 11.824 13.353 11.1638 13.353C10.2784 13.353 9.42931 13.0013 8.80327 12.3752C8.17723 11.7492 7.82552 10.9001 7.82552 10.0147ZM18.0239 16.9427C17.0931 15.5939 15.7843 14.5504 14.2621 13.9435C15.0798 13.2994 15.6764 12.4166 15.9691 11.4177C16.2618 10.4189 16.2359 9.35366 15.8951 8.37019C15.5543 7.38671 14.9155 6.53388 14.0676 5.93029C13.2196 5.32669 12.2046 5.00234 11.1638 5.00234C10.1229 5.00234 9.10794 5.32669 8.25997 5.93029C7.41201 6.53388 6.77321 7.38671 6.43241 8.37019C6.09161 9.35366 6.06576 10.4189 6.35843 11.4177C6.65111 12.4166 7.24778 13.2994 8.06546 13.9435C6.54323 14.5504 5.23445 15.5939 4.30367 16.9427C3.12753 15.6201 2.35879 13.9856 2.09004 12.2363C1.82128 10.4869 2.06396 8.69707 2.78885 7.08241C3.51374 5.46774 4.68994 4.09705 6.1758 3.13539C7.66167 2.17372 9.39385 1.66208 11.1638 1.66208C12.9337 1.66208 14.6659 2.17372 16.1517 3.13539C17.6376 4.09705 18.8138 5.46774 19.5387 7.08241C20.2636 8.69707 20.5063 10.4869 20.2375 12.2363C19.9687 13.9856 19.2 15.6201 18.0239 16.9427Z" fill="#646464"/>
</svg>
