<svg width="20" height="19" viewBox="0 0 20 19" fill="none" xmlns="http://www.w3.org/2000/svg">
<path d="M19.3684 9.48639L17.2688 7.0856L17.5614 3.91037L14.455 3.20476L12.8287 0.451172L9.90297 1.7075L6.97728 0.451172L5.35094 3.19616L2.24454 3.89316L2.53711 7.077L0.4375 9.48639L2.53711 11.8872L2.24454 15.071L5.35094 15.7766L6.97728 18.5216L9.90297 17.2567L12.8287 18.513L14.455 15.768L17.5614 15.0624L17.2688 11.8872L19.3684 9.48639ZM7.64846 12.937L5.60048 10.8718C5.26489 10.5362 5.26489 9.99408 5.60048 9.65849L5.66072 9.59826C5.99631 9.26266 6.54703 9.26266 6.88262 9.59826L8.26802 10.9923L12.6996 6.5521C13.0352 6.2165 13.5859 6.2165 13.9215 6.5521L13.9817 6.61233C14.3173 6.94792 14.3173 7.49004 13.9817 7.82563L8.88758 12.937C8.53478 13.2726 7.99266 13.2726 7.64846 12.937Z" fill="#1E71F2"/>
</svg>
