<svg width="21" height="21" viewBox="0 0 21 21" fill="none" xmlns="http://www.w3.org/2000/svg">
<mask id="mask0_5376_43582" style="mask-type:alpha" maskUnits="userSpaceOnUse" x="0" y="0" width="21" height="21">
<rect x="0.328125" y="0.03125" width="20.4379" height="20.4379" fill="#D9D9D9"/>
</mask>
<g mask="url(#mask0_5376_43582)">
<path d="M7.99228 15.3596C7.52391 15.3596 7.12296 15.1929 6.78943 14.8593C6.45589 14.5258 6.28913 14.1248 6.28913 13.6565V3.43753C6.28913 2.96916 6.45589 2.56821 6.78943 2.23468C7.12296 1.90114 7.52391 1.73438 7.99228 1.73438H15.6565C16.1249 1.73438 16.5258 1.90114 16.8593 2.23468C17.1929 2.56821 17.3596 2.96916 17.3596 3.43753V13.6565C17.3596 14.1248 17.1929 14.5258 16.8593 14.8593C16.5258 15.1929 16.1249 15.3596 15.6565 15.3596H7.99228ZM7.99228 13.6565H15.6565V3.43753H7.99228V13.6565ZM4.58597 18.7659C4.1176 18.7659 3.71665 18.5992 3.38311 18.2656C3.04958 17.9321 2.88281 17.5311 2.88281 17.0628V5.14069H4.58597V17.0628H13.9533V18.7659H4.58597Z" fill="white"/>
</g>
</svg>
