<svg width="29" height="27" viewBox="0 0 29 27" fill="none" xmlns="http://www.w3.org/2000/svg">
<path d="M14.4856 25.5834C14.6012 24.7236 15.0735 24.2973 15.8967 24.2805C21.2191 24.1718 25.5563 20.2126 26.248 14.8313C26.9747 9.17696 23.0741 3.79014 17.5733 2.88681C14.0104 2.30174 10.9262 3.3448 8.34616 5.90417C7.09248 7.14779 6.24029 8.66605 5.73483 10.3817C5.71248 10.4575 5.70624 10.5383 5.68053 10.6852C5.82744 10.5962 5.92297 10.5436 6.01313 10.4827C6.41608 10.2105 6.81215 9.92713 7.22076 9.66419C7.80383 9.28898 8.56296 9.43002 8.96326 9.97356C9.38223 10.5424 9.32318 11.2799 8.81436 11.7749C8.72562 11.8612 8.62534 11.9369 8.52341 12.0069C7.26915 12.8677 6.01768 13.7329 4.75432 14.5795C4.54627 14.7189 4.28461 14.7745 4.02644 14.8792C3.49749 14.8868 3.11344 14.6416 2.80602 14.2471C2.00171 13.2151 1.21039 12.1722 0.389701 11.1541C-0.315563 10.2792 -0.0332254 9.08255 0.991664 8.80162C1.52977 8.65413 2.08341 8.7832 2.58588 9.49993C2.71415 9.6829 2.85738 9.85487 3.01882 10.0644C3.19564 9.54499 3.34738 9.06874 3.5192 8.60021C4.00873 7.26538 4.72744 6.06869 5.59475 4.95593C6.87747 3.3102 8.47358 2.07974 10.3301 1.20756C11.4179 0.696489 12.5566 0.315368 13.7553 0.180072C14.5027 0.0957138 15.2551 -0.00913798 16.004 0.000635939C17.6386 0.0219699 19.2179 0.360126 20.7453 0.979913C22.7003 1.77321 24.3498 3.00505 25.7312 4.60247C27.2529 6.36203 28.2298 8.42379 28.715 10.7202C28.9709 11.931 29.0556 13.1676 28.9645 14.3992C28.7618 17.1372 27.8686 19.6212 26.2044 21.7924C25.1039 23.2283 23.7853 24.4067 22.2216 25.2952C20.8517 26.0737 19.399 26.5994 17.8468 26.8153C17.1933 26.9063 16.5338 26.9705 15.8751 26.9984C15.2887 27.0233 14.83 26.7517 14.5892 26.1851C14.5154 26.0115 14.5192 25.8034 14.4856 25.5834Z" fill="#1E71F2"/>
<path d="M17.1599 13.6639C18.2696 15.1786 19.3631 16.6774 20.4642 18.1703C20.6897 18.4761 20.7938 18.8014 20.6912 19.1726C20.4978 19.8723 19.6297 20.1237 19.0994 19.6368C19.0162 19.5604 18.9455 19.4677 18.878 19.3756C17.6209 17.6608 16.3568 15.9514 15.119 14.2222C14.9492 13.985 14.8307 13.6499 14.8261 13.3579C14.799 11.6446 14.8105 9.93064 14.8142 8.21689C14.8155 7.62243 15.1407 7.19556 15.6315 7.11924C16.2685 7.02018 16.7792 7.46503 16.7829 8.14776C16.7909 9.60914 16.8005 11.0708 16.777 12.5319C16.77 12.9671 16.8418 13.3372 17.1599 13.6639Z" fill="#1E71F2"/>
</svg>
