<svg width="18" height="17" viewBox="0 0 18 17" fill="none" xmlns="http://www.w3.org/2000/svg">
<path d="M13.8282 5.53179C15.209 5.53179 16.3283 4.52431 16.3283 3.28152C16.3283 2.03873 15.209 1.03125 13.8282 1.03125C12.4475 1.03125 11.3281 2.03873 11.3281 3.28152C11.3281 4.52431 12.4475 5.53179 13.8282 5.53179Z" stroke="white" stroke-width="1.70316" stroke-linecap="round" stroke-linejoin="round"/>
<path d="M3.82823 10.7818C5.209 10.7818 6.32834 9.77431 6.32834 8.53152C6.32834 7.28873 5.209 6.28125 3.82823 6.28125C2.44746 6.28125 1.32812 7.28873 1.32812 8.53152C1.32812 9.77431 2.44746 10.7818 3.82823 10.7818Z" stroke="white" stroke-width="1.70316" stroke-linecap="round" stroke-linejoin="round"/>
<path d="M13.8282 16.0318C15.209 16.0318 16.3283 15.0243 16.3283 13.7815C16.3283 12.5387 15.209 11.5312 13.8282 11.5312C12.4475 11.5312 11.3281 12.5387 11.3281 13.7815C11.3281 15.0243 12.4475 16.0318 13.8282 16.0318Z" stroke="white" stroke-width="1.70316" stroke-linecap="round" stroke-linejoin="round"/>
<path d="M5.98438 9.66406L11.6763 12.6494" stroke="white" stroke-width="1.70316" stroke-linecap="round" stroke-linejoin="round"/>
<path d="M11.6679 4.41406L5.98438 7.39942" stroke="white" stroke-width="1.70316" stroke-linecap="round" stroke-linejoin="round"/>
</svg>
