<svg width="31" height="30" viewBox="0 0 31 30" fill="none" xmlns="http://www.w3.org/2000/svg">
<path fill-rule="evenodd" clip-rule="evenodd" d="M2.99315 4.16396C2.84409 4.85501 2.78125 5.7698 2.78125 7C2.78125 8.23019 2.84409 9.145 2.99315 9.83603C3.13977 10.5158 3.35536 10.9099 3.61336 11.1679C3.87135 11.4259 4.26541 11.6415 4.94521 11.7881C5.63626 11.9372 6.55105 12 7.78125 12C9.01144 12 9.92625 11.9372 10.6173 11.7881C11.2971 11.6415 11.6911 11.4259 11.9491 11.1679C12.2071 10.9099 12.4227 10.5158 12.5694 9.83603C12.7184 9.145 12.7812 8.23019 12.7812 7C12.7812 5.7698 12.7184 4.85501 12.5694 4.16396C12.4227 3.48416 12.2071 3.0901 11.9491 2.83211C11.6911 2.57411 11.2971 2.35852 10.6173 2.2119C9.92625 2.06284 9.01144 2 7.78125 2C6.55105 2 5.63626 2.06284 4.94521 2.2119C4.26541 2.35852 3.87135 2.57411 3.61336 2.83211C3.35536 3.0901 3.13977 3.48416 2.99315 4.16396ZM4.52353 0.256855C5.42625 0.0621545 6.51144 0 7.78125 0C9.05106 0 10.1363 0.0621545 11.039 0.256855C11.9529 0.453982 12.7464 0.800891 13.3634 1.4179C13.9803 2.0349 14.3272 2.82833 14.5244 3.74228C14.7191 4.645 14.7813 5.73019 14.7813 7C14.7813 8.26981 14.7191 9.35501 14.5244 10.2577C14.3272 11.1717 13.9803 11.9651 13.3634 12.5821C12.7464 13.199 11.9529 13.546 11.039 13.7431C10.1363 13.9379 9.05106 14 7.78125 14C6.51144 14 5.42625 13.9379 4.52353 13.7431C3.60958 13.546 2.81615 13.199 2.19915 12.5821C1.58214 11.9651 1.23523 11.1717 1.0381 10.2577C0.843405 9.35501 0.78125 8.26981 0.78125 7C0.78125 5.73019 0.843405 4.645 1.0381 3.74228C1.23523 2.82833 1.58214 2.0349 2.19915 1.4179C2.81615 0.800891 3.60958 0.453982 4.52353 0.256855ZM18.9932 4.16396C18.8441 4.85501 18.7812 5.7698 18.7812 7C18.7812 8.23019 18.8441 9.145 18.9932 9.83603C19.1397 10.5158 19.3553 10.9099 19.6133 11.1679C19.8713 11.4259 20.2654 11.6415 20.9452 11.7881C21.6363 11.9372 22.551 12 23.7813 12C25.0114 12 25.9263 11.9372 26.6173 11.7881C27.297 11.6415 27.6911 11.4259 27.9491 11.1679C28.2071 10.9099 28.4227 10.5158 28.5693 9.83603C28.7183 9.145 28.7812 8.23019 28.7812 7C28.7812 5.7698 28.7183 4.85501 28.5693 4.16396C28.4227 3.48416 28.2071 3.0901 27.9491 2.83211C27.6911 2.57411 27.297 2.35852 26.6173 2.2119C25.9263 2.06284 25.0114 2 23.7813 2C22.551 2 21.6363 2.06284 20.9452 2.2119C20.2654 2.35852 19.8713 2.57411 19.6133 2.83211C19.3553 3.0901 19.1397 3.48416 18.9932 4.16396ZM20.5236 0.256855C21.4263 0.0621545 22.5115 0 23.7813 0C25.0511 0 26.1363 0.0621545 27.039 0.256855C27.9529 0.453982 28.7463 0.800891 29.3633 1.4179C29.9804 2.0349 30.3273 2.82833 30.5243 3.74228C30.7191 4.645 30.7812 5.73019 30.7812 7C30.7812 8.26981 30.7191 9.35501 30.5243 10.2577C30.3273 11.1717 29.9804 11.9651 29.3633 12.5821C28.7463 13.199 27.9529 13.546 27.039 13.7431C26.1363 13.9379 25.0511 14 23.7813 14C22.5115 14 21.4263 13.9379 20.5236 13.7431C19.6095 13.546 18.8162 13.199 18.1991 12.5821C17.5822 11.9651 17.2353 11.1717 17.0381 10.2577C16.8434 9.35501 16.7812 8.26981 16.7812 7C16.7812 5.73019 16.8434 4.645 17.0381 3.74228C17.2353 2.82833 17.5822 2.0349 18.1991 1.4179C18.8162 0.800891 19.6095 0.453982 20.5236 0.256855ZM2.99315 20.164C2.84409 20.855 2.78125 21.7698 2.78125 23C2.78125 24.2302 2.84409 25.145 2.99315 25.836C3.13977 26.5158 3.35536 26.9099 3.61336 27.1679C3.87135 27.4259 4.26541 27.6415 4.94521 27.788C5.63626 27.9371 6.55105 28 7.78125 28C9.01144 28 9.92625 27.9371 10.6173 27.788C11.2971 27.6415 11.6911 27.4259 11.9491 27.1679C12.2071 26.9099 12.4227 26.5158 12.5694 25.836C12.7184 25.145 12.7812 24.2302 12.7812 23C12.7812 21.7698 12.7184 20.855 12.5694 20.164C12.4227 19.4842 12.2071 19.0901 11.9491 18.8321C11.6911 18.5741 11.2971 18.3585 10.6173 18.2119C9.92625 18.0629 9.01144 18 7.78125 18C6.55105 18 5.63626 18.0629 4.94521 18.2119C4.26541 18.3585 3.87135 18.5741 3.61336 18.8321C3.35536 19.0901 3.13977 19.4842 2.99315 20.164ZM4.52353 16.2569C5.42625 16.0621 6.51144 16 7.78125 16C9.05106 16 10.1363 16.0621 11.039 16.2569C11.9529 16.454 12.7464 16.801 13.3634 17.4179C13.9803 18.0349 14.3272 18.8283 14.5244 19.7423C14.7191 20.645 14.7813 21.7302 14.7813 23C14.7813 24.2699 14.7191 25.355 14.5244 26.2578C14.3272 27.1717 13.9803 27.965 13.3634 28.5821C12.7464 29.1991 11.9529 29.546 11.039 29.7431C10.1363 29.9378 9.05106 30 7.78125 30C6.51144 30 5.42625 29.9378 4.52353 29.7431C3.60958 29.546 2.81615 29.1991 2.19915 28.5821C1.58214 27.965 1.23523 27.1717 1.0381 26.2578C0.843405 25.355 0.78125 24.2699 0.78125 23C0.78125 21.7302 0.843405 20.645 1.0381 19.7423C1.23523 18.8283 1.58214 18.0349 2.19915 17.4179C2.81615 16.801 3.60958 16.454 4.52353 16.2569ZM18.9932 20.164C18.8441 20.855 18.7812 21.7698 18.7812 23C18.7812 24.2302 18.8441 25.145 18.9932 25.836C19.1397 26.5158 19.3553 26.9099 19.6133 27.1679C19.8713 27.4259 20.2654 27.6415 20.9452 27.788C21.6363 27.9371 22.551 28 23.7813 28C25.0114 28 25.9263 27.9371 26.6173 27.788C27.297 27.6415 27.6911 27.4259 27.9491 27.1679C28.2071 26.9099 28.4227 26.5158 28.5693 25.836C28.7183 25.145 28.7812 24.2302 28.7812 23C28.7812 21.7698 28.7183 20.855 28.5693 20.164C28.4227 19.4842 28.2071 19.0901 27.9491 18.8321C27.6911 18.5741 27.297 18.3585 26.6173 18.2119C25.9263 18.0629 25.0114 18 23.7813 18C22.551 18 21.6363 18.0629 20.9452 18.2119C20.2654 18.3585 19.8713 18.5741 19.6133 18.8321C19.3553 19.0901 19.1397 19.4842 18.9932 20.164ZM20.5236 16.2569C21.4263 16.0621 22.5115 16 23.7813 16C25.0511 16 26.1363 16.0621 27.039 16.2569C27.9529 16.454 28.7463 16.801 29.3633 17.4179C29.9804 18.0349 30.3273 18.8283 30.5243 19.7423C30.7191 20.645 30.7812 21.7302 30.7812 23C30.7812 24.2699 30.7191 25.355 30.5243 26.2578C30.3273 27.1717 29.9804 27.965 29.3633 28.5821C28.7463 29.1991 27.9529 29.546 27.039 29.7431C26.1363 29.9378 25.0511 30 23.7813 30C22.5115 30 21.4263 29.9378 20.5236 29.7431C19.6095 29.546 18.8162 29.1991 18.1991 28.5821C17.5822 27.965 17.2353 27.1717 17.0381 26.2578C16.8434 25.355 16.7812 24.2699 16.7812 23C16.7812 21.7302 16.8434 20.645 17.0381 19.7423C17.2353 18.8283 17.5822 18.0349 18.1991 17.4179C18.8162 16.801 19.6095 16.454 20.5236 16.2569Z" fill="#1E71F2"/>
</svg>
