<svg width="31" height="30" viewBox="0 0 31 30" fill="none" xmlns="http://www.w3.org/2000/svg">
<path fill-rule="evenodd" clip-rule="evenodd" d="M2.43065 4.16396C2.28159 4.85501 2.21875 5.7698 2.21875 7C2.21875 8.23019 2.28159 9.145 2.43065 9.83603C2.57727 10.5158 2.79286 10.9099 3.05086 11.1679C3.30885 11.4259 3.70291 11.6415 4.38271 11.7881C5.07376 11.9372 5.98855 12 7.21875 12C8.44894 12 9.36375 11.9372 10.0548 11.7881C10.7346 11.6415 11.1286 11.4259 11.3866 11.1679C11.6446 10.9099 11.8602 10.5158 12.0069 9.83603C12.1559 9.145 12.2188 8.23019 12.2188 7C12.2188 5.7698 12.1559 4.85501 12.0069 4.16396C11.8602 3.48416 11.6446 3.0901 11.3866 2.83211C11.1286 2.57411 10.7346 2.35852 10.0548 2.2119C9.36375 2.06284 8.44894 2 7.21875 2C5.98855 2 5.07376 2.06284 4.38271 2.2119C3.70291 2.35852 3.30885 2.57411 3.05086 2.83211C2.79286 3.0901 2.57727 3.48416 2.43065 4.16396ZM3.96103 0.256855C4.86375 0.0621545 5.94894 0 7.21875 0C8.48856 0 9.57376 0.0621545 10.4765 0.256855C11.3904 0.453982 12.1839 0.800891 12.8009 1.4179C13.4178 2.0349 13.7647 2.82833 13.9619 3.74228C14.1566 4.645 14.2188 5.73019 14.2188 7C14.2188 8.26981 14.1566 9.35501 13.9619 10.2577C13.7647 11.1717 13.4178 11.9651 12.8009 12.5821C12.1839 13.199 11.3904 13.546 10.4765 13.7431C9.57376 13.9379 8.48856 14 7.21875 14C5.94894 14 4.86375 13.9379 3.96103 13.7431C3.04708 13.546 2.25365 13.199 1.63665 12.5821C1.01964 11.9651 0.672732 11.1717 0.475605 10.2577C0.280905 9.35501 0.21875 8.26981 0.21875 7C0.21875 5.73019 0.280905 4.645 0.475605 3.74228C0.672732 2.82833 1.01964 2.0349 1.63665 1.4179C2.25365 0.800891 3.04708 0.453982 3.96103 0.256855ZM18.4307 4.16396C18.2816 4.85501 18.2188 5.7698 18.2188 7C18.2188 8.23019 18.2816 9.145 18.4307 9.83603C18.5772 10.5158 18.7928 10.9099 19.0508 11.1679C19.3088 11.4259 19.7029 11.6415 20.3827 11.7881C21.0738 11.9372 21.9885 12 23.2188 12C24.4489 12 25.3638 11.9372 26.0548 11.7881C26.7345 11.6415 27.1286 11.4259 27.3866 11.1679C27.6446 10.9099 27.8602 10.5158 28.0068 9.83603C28.1558 9.145 28.2187 8.23019 28.2187 7C28.2187 5.7698 28.1558 4.85501 28.0068 4.16396C27.8602 3.48416 27.6446 3.0901 27.3866 2.83211C27.1286 2.57411 26.7345 2.35852 26.0548 2.2119C25.3638 2.06284 24.4489 2 23.2188 2C21.9885 2 21.0738 2.06284 20.3827 2.2119C19.7029 2.35852 19.3088 2.57411 19.0508 2.83211C18.7928 3.0901 18.5772 3.48416 18.4307 4.16396ZM19.9611 0.256855C20.8638 0.0621545 21.949 0 23.2188 0C24.4886 0 25.5738 0.0621545 26.4765 0.256855C27.3904 0.453982 28.1838 0.800891 28.8008 1.4179C29.4179 2.0349 29.7648 2.82833 29.9618 3.74228C30.1566 4.645 30.2188 5.73019 30.2188 7C30.2188 8.26981 30.1566 9.35501 29.9618 10.2577C29.7648 11.1717 29.4179 11.9651 28.8008 12.5821C28.1838 13.199 27.3904 13.546 26.4765 13.7431C25.5738 13.9379 24.4886 14 23.2188 14C21.949 14 20.8638 13.9379 19.9611 13.7431C19.047 13.546 18.2537 13.199 17.6366 12.5821C17.0197 11.9651 16.6728 11.1717 16.4756 10.2577C16.2809 9.35501 16.2187 8.26981 16.2187 7C16.2187 5.73019 16.2809 4.645 16.4756 3.74228C16.6728 2.82833 17.0197 2.0349 17.6366 1.4179C18.2537 0.800891 19.047 0.453982 19.9611 0.256855ZM2.43065 20.164C2.28159 20.855 2.21875 21.7698 2.21875 23C2.21875 24.2302 2.28159 25.145 2.43065 25.836C2.57727 26.5158 2.79286 26.9099 3.05086 27.1679C3.30885 27.4259 3.70291 27.6415 4.38271 27.788C5.07376 27.9371 5.98855 28 7.21875 28C8.44894 28 9.36375 27.9371 10.0548 27.788C10.7346 27.6415 11.1286 27.4259 11.3866 27.1679C11.6446 26.9099 11.8602 26.5158 12.0069 25.836C12.1559 25.145 12.2188 24.2302 12.2188 23C12.2188 21.7698 12.1559 20.855 12.0069 20.164C11.8602 19.4842 11.6446 19.0901 11.3866 18.8321C11.1286 18.5741 10.7346 18.3585 10.0548 18.2119C9.36375 18.0629 8.44894 18 7.21875 18C5.98855 18 5.07376 18.0629 4.38271 18.2119C3.70291 18.3585 3.30885 18.5741 3.05086 18.8321C2.79286 19.0901 2.57727 19.4842 2.43065 20.164ZM3.96103 16.2569C4.86375 16.0621 5.94894 16 7.21875 16C8.48856 16 9.57376 16.0621 10.4765 16.2569C11.3904 16.454 12.1839 16.801 12.8009 17.4179C13.4178 18.0349 13.7647 18.8283 13.9619 19.7423C14.1566 20.645 14.2188 21.7302 14.2188 23C14.2188 24.2699 14.1566 25.355 13.9619 26.2578C13.7647 27.1717 13.4178 27.965 12.8009 28.5821C12.1839 29.1991 11.3904 29.546 10.4765 29.7431C9.57376 29.9378 8.48856 30 7.21875 30C5.94894 30 4.86375 29.9378 3.96103 29.7431C3.04708 29.546 2.25365 29.1991 1.63665 28.5821C1.01964 27.965 0.672732 27.1717 0.475605 26.2578C0.280905 25.355 0.21875 24.2699 0.21875 23C0.21875 21.7302 0.280905 20.645 0.475605 19.7423C0.672732 18.8283 1.01964 18.0349 1.63665 17.4179C2.25365 16.801 3.04708 16.454 3.96103 16.2569ZM18.4307 20.164C18.2816 20.855 18.2188 21.7698 18.2188 23C18.2188 24.2302 18.2816 25.145 18.4307 25.836C18.5772 26.5158 18.7928 26.9099 19.0508 27.1679C19.3088 27.4259 19.7029 27.6415 20.3827 27.788C21.0738 27.9371 21.9885 28 23.2188 28C24.4489 28 25.3638 27.9371 26.0548 27.788C26.7345 27.6415 27.1286 27.4259 27.3866 27.1679C27.6446 26.9099 27.8602 26.5158 28.0068 25.836C28.1558 25.145 28.2187 24.2302 28.2187 23C28.2187 21.7698 28.1558 20.855 28.0068 20.164C27.8602 19.4842 27.6446 19.0901 27.3866 18.8321C27.1286 18.5741 26.7345 18.3585 26.0548 18.2119C25.3638 18.0629 24.4489 18 23.2188 18C21.9885 18 21.0738 18.0629 20.3827 18.2119C19.7029 18.3585 19.3088 18.5741 19.0508 18.8321C18.7928 19.0901 18.5772 19.4842 18.4307 20.164ZM19.9611 16.2569C20.8638 16.0621 21.949 16 23.2188 16C24.4886 16 25.5738 16.0621 26.4765 16.2569C27.3904 16.454 28.1838 16.801 28.8008 17.4179C29.4179 18.0349 29.7648 18.8283 29.9618 19.7423C30.1566 20.645 30.2188 21.7302 30.2188 23C30.2188 24.2699 30.1566 25.355 29.9618 26.2578C29.7648 27.1717 29.4179 27.965 28.8008 28.5821C28.1838 29.1991 27.3904 29.546 26.4765 29.7431C25.5738 29.9378 24.4886 30 23.2188 30C21.949 30 20.8638 29.9378 19.9611 29.7431C19.047 29.546 18.2537 29.1991 17.6366 28.5821C17.0197 27.965 16.6728 27.1717 16.4756 26.2578C16.2809 25.355 16.2187 24.2699 16.2187 23C16.2187 21.7302 16.2809 20.645 16.4756 19.7423C16.6728 18.8283 17.0197 18.0349 17.6366 17.4179C18.2537 16.801 19.047 16.454 19.9611 16.2569Z" fill="#8B8B8B"/>
</svg>
