<svg width="25" height="30" viewBox="0 0 25 30" fill="none" xmlns="http://www.w3.org/2000/svg">
<path d="M24.3314 3.67035C24.2788 3.20834 24.0908 2.80687 23.793 2.45308C23.6416 2.27335 23.4562 2.13259 23.2712 1.99069C22.62 1.49273 21.9684 0.995535 21.3191 0.49493C20.9471 0.208113 20.5287 0.045028 20.0621 0.00151355C20.0258 0.00794612 19.9898 0.00340548 19.9535 0C19.8983 0.00529741 19.843 0.00491903 19.7878 0.000756773C19.753 0.00113516 19.7181 0.00151355 19.6833 0.00189193C19.6826 0.00454064 19.6811 0.00718934 19.6788 0.00945966C19.636 0.0355683 19.5872 0.0378387 19.5396 0.045028C19.0598 0.11957 18.6413 0.317088 18.2875 0.653852C18.0862 0.845316 17.9299 1.07197 17.7611 1.28878C17.6143 1.47722 17.4705 1.66831 17.3241 1.85712C17.2624 1.93658 17.2397 1.9415 17.1606 1.88134C16.9801 1.74361 16.8008 1.60474 16.6195 1.46814C16.3603 1.27289 16.0573 1.31754 15.8616 1.57409C15.0375 2.654 14.2092 3.73051 13.3851 4.81005C13.2364 5.00492 13.2178 5.20698 13.345 5.41736C13.3787 5.47336 13.3745 5.51801 13.3359 5.56607C13.3037 5.60617 13.2746 5.64855 13.247 5.69207C13.1028 5.91759 13.16 6.21159 13.379 6.36976C13.5924 6.52414 13.8883 6.4863 14.0571 6.28273C14.0726 6.26419 14.0881 6.24565 14.1033 6.22673C14.1956 6.11246 14.1975 6.1117 14.311 6.19759C14.6875 6.48252 15.0613 6.77009 15.4348 7.0588C15.481 7.09475 15.5067 7.11934 15.5128 7.14545C15.5131 7.14583 15.5139 7.14621 15.5143 7.14659C15.5139 7.14697 15.5135 7.14734 15.5131 7.14772C15.5192 7.17799 15.4991 7.21016 15.4549 7.26389C15.3326 7.41108 15.3811 7.42508 15.1616 7.34146C14.6141 7.13221 14.1059 7.22681 13.6522 7.58552C13.2663 7.8905 13.0896 8.30558 13.0971 8.79295C13.1005 9.00976 13.149 9.22469 13.1755 9.44074C13.2001 9.64167 13.2262 9.84259 13.2549 10.0428C13.2648 10.112 13.2326 10.165 13.1929 10.2168C12.9431 10.5437 12.6934 10.8707 12.4429 11.1972C12.0785 11.6728 11.7149 12.1489 11.3501 12.6237C10.5283 13.6938 9.70907 14.7662 8.88797 15.8366C8.42217 16.4439 7.95752 17.0524 7.4921 17.6597C6.64943 18.7596 5.80752 19.86 4.9641 20.9596C4.56263 21.4829 4.1623 22.007 3.76159 22.5306C3.54856 22.8095 3.33628 23.0891 3.12136 23.3661C3.05552 23.4509 3.02222 23.455 2.94162 23.3937C2.56891 23.1092 2.19847 22.8216 1.82425 22.539C1.68424 22.4334 1.68803 22.4342 1.79587 22.2938C2.1315 21.8571 2.46599 21.4197 2.80049 20.9827C3.58223 19.9618 4.36398 18.9413 5.1461 17.9208C5.6153 17.3085 6.08337 16.6952 6.55295 16.0829C7.39258 14.9883 8.23033 13.8925 9.06959 12.7974C9.56642 12.1492 10.0621 11.4999 10.5585 10.8514C11.2665 9.92659 11.9748 9.00182 12.6836 8.0778C12.7672 7.96844 12.819 7.85341 12.8137 7.71076C12.8062 7.50492 12.6836 7.32746 12.4842 7.25481C12.2927 7.1848 12.0562 7.24459 11.9317 7.40086C11.6846 7.71076 11.4478 8.02861 11.2067 8.34305C10.3035 9.52248 9.39993 10.7015 8.49747 11.8813C7.59843 13.0562 6.69825 14.2304 5.79958 15.4053C5.23351 16.1454 4.66631 16.8847 4.09986 17.6245C3.36012 18.5898 2.62037 19.555 1.88176 20.521C1.4591 21.0739 1.03531 21.6255 0.612276 22.178C0.518436 22.3006 0.478705 22.4334 0.472273 22.5893C0.456759 22.9783 0.451083 23.368 0.423083 23.7566C0.411731 23.9133 0.411353 24.0707 0.407569 24.2273C0.401893 24.4722 0.391676 24.717 0.380703 24.961C0.364054 25.3258 0.362919 25.6917 0.332648 26.0561C0.319026 26.2184 0.322053 26.3822 0.317134 26.545C0.309945 26.7833 0.300107 27.0225 0.290269 27.2605C0.274755 27.6313 0.260755 28.0025 0.244862 28.3737C0.231619 28.6813 0.205132 28.9897 0.222538 29.2981C0.23843 29.5773 0.480219 29.8611 0.769306 29.9485C0.809415 29.9606 0.85293 29.9641 0.887363 29.9917C0.889633 29.9943 0.890768 29.997 0.891525 29.9992C0.961905 29.9996 1.03191 29.9996 1.10229 30C1.10304 29.997 1.10456 29.9943 1.10683 29.9913C1.26007 29.9262 1.42278 29.8888 1.58095 29.8388C2.10615 29.6735 2.63172 29.51 3.15768 29.3469C3.97235 29.0941 4.78588 28.8376 5.60092 28.5852C6.11818 28.4252 6.63505 28.2632 7.15117 28.1001C7.30102 28.0528 7.45199 28.0074 7.60108 27.9575C7.68697 27.9287 7.76302 27.8856 7.81903 27.816C7.97833 27.6181 8.13838 27.4202 8.27914 27.2083C8.38888 27.0429 8.36958 26.7936 8.24698 26.6369C8.12098 26.4757 7.90227 26.4042 7.71005 26.4651C7.59767 26.5007 7.50572 26.5665 7.43421 26.6623C7.35815 26.764 7.34188 26.7663 7.24615 26.6918C6.88063 26.408 6.51132 26.1283 6.14391 25.8468C6.12953 25.8359 6.11553 25.8241 6.10191 25.8124C6.01147 25.7371 6.00807 25.7212 6.07996 25.6274C6.50338 25.0753 6.92641 24.5229 7.34945 23.97C8.25417 22.788 9.16003 21.6066 10.0644 20.4242C10.5714 19.7609 11.0796 19.0983 11.5874 18.4354C11.7788 18.1856 11.9699 17.9359 12.1618 17.6862C12.1943 17.6438 12.228 17.6105 12.2874 17.6094C12.645 17.6014 12.9957 17.5303 13.3499 17.489C13.7101 17.4466 14.0692 17.3948 14.4294 17.3528C14.4608 17.349 14.5028 17.3293 14.521 17.3657C14.5365 17.3971 14.5055 17.4277 14.4858 17.4538C14.2191 17.8099 13.9466 18.1614 13.6761 18.5141C13.365 18.9197 13.0536 19.3253 12.7426 19.7313C11.9476 20.7689 11.1522 21.806 10.3584 22.8443C9.86761 23.4861 9.37495 24.1263 8.8857 24.7688C8.80435 24.8755 8.72564 24.9788 8.71088 25.1203C8.69045 25.3163 8.80359 25.5316 8.98673 25.6232C9.1676 25.7136 9.40825 25.6841 9.54485 25.546C9.71323 25.3754 9.84604 25.1752 9.99134 24.986C10.7844 23.9511 11.5775 22.9158 12.3706 21.8806C12.8198 21.2945 13.2682 20.7083 13.7169 20.1222C14.311 19.3461 14.9002 18.5663 15.5025 17.797C15.6452 17.6147 15.8068 17.4451 15.9566 17.2673C15.9982 17.2177 16.0455 17.2132 16.1019 17.2427C16.167 17.2768 16.2253 17.3191 16.279 17.3683C16.6339 17.6922 16.9938 18.0108 17.3502 18.3336C17.6817 18.634 18.0154 18.9318 18.3465 19.2326C18.4873 19.3605 18.6235 19.4945 18.7767 19.6084C19.37 20.0496 20.2036 19.986 20.7292 19.4653C21.1182 19.0801 21.2355 18.6162 21.1587 18.0854C21.086 17.5859 21.0266 17.0845 20.9623 16.5839C20.9063 16.1492 20.848 15.7148 20.7924 15.28C20.7791 15.1752 20.7636 15.0704 20.7496 14.9656C20.719 14.7317 20.8261 14.5512 20.9767 14.3866C21.3622 13.9651 21.7429 13.5391 22.1254 13.1149C22.4251 12.7827 22.7214 12.4474 23.0256 12.1193C23.2353 11.8931 23.39 11.6369 23.4456 11.3293C23.5221 10.9062 23.4358 10.518 23.1914 10.165C23.0082 9.90011 22.763 9.71621 22.4588 9.61026C22.3525 9.57318 22.3445 9.54821 22.4157 9.4555C22.8016 8.95111 23.188 8.44634 23.5747 7.94233C23.6556 7.83676 23.7359 7.73044 23.8157 7.62373C23.9932 7.38611 23.9538 7.08945 23.72 6.90707C23.5531 6.7769 23.3855 6.64749 23.2163 6.5196C23.0699 6.40873 23.0684 6.40798 23.183 6.25889C23.4044 5.97094 23.6239 5.68185 23.8452 5.3939C24.0844 5.08324 24.2376 4.73551 24.3027 4.3488C24.3061 4.32799 24.3076 4.30642 24.3208 4.28863C24.3235 4.28598 24.3265 4.28447 24.3292 4.28371C24.3258 4.25307 24.3216 4.22242 24.3451 4.19631C24.3451 4.04495 24.3451 3.8936 24.3451 3.74224C24.3216 3.72332 24.328 3.69646 24.3314 3.67035ZM1.27786 28.8486C1.25705 28.7472 1.29034 27.7263 1.32743 27.3225C1.79776 27.6828 2.2575 28.0343 2.732 28.3975C2.23707 28.5508 1.75765 28.6995 1.27786 28.8486ZM6.26461 27.2423C6.27634 27.2514 6.29034 27.2586 6.29716 27.287C6.04969 27.3642 5.80487 27.4402 5.56044 27.5166C5.0587 27.6729 4.55658 27.8284 4.05559 27.9874C3.99467 28.0067 3.95116 28.0025 3.89894 27.9624C3.07898 27.332 2.25788 26.7035 1.43527 26.0761C1.38872 26.0406 1.37245 26.0054 1.3751 25.9475C1.40008 25.3614 1.42278 24.7752 1.44548 24.1891C1.45343 23.9897 1.45381 23.7903 1.47159 23.5916C1.47462 23.5901 1.47689 23.5882 1.47954 23.5875C1.48219 23.5867 1.48635 23.5856 1.48786 23.5871C3.08011 24.8051 4.67236 26.0235 6.26461 27.2423ZM10.786 16.1666C10.8041 16.5362 10.9411 16.8598 11.187 17.1364C11.2404 17.1965 11.2472 17.1844 11.1942 17.2533C9.64701 19.2731 8.10017 21.2929 6.55295 23.3128C6.11704 23.8819 5.68114 24.4513 5.24524 25.0204C5.23427 25.0348 5.22329 25.0492 5.21232 25.0636C5.19832 25.0814 5.18281 25.081 5.1654 25.0681C5.15102 25.0571 5.13627 25.0465 5.12189 25.0356C4.73291 24.7374 4.34392 24.4396 3.95494 24.1414C3.94775 24.1358 3.94056 24.1301 3.93337 24.1248C3.87208 24.0813 3.87813 24.0798 3.91824 24.0279C4.00678 23.9129 4.09495 23.7975 4.18311 23.6821C5.73904 21.6501 7.29534 19.6178 8.85126 17.5859C10.3576 15.6187 11.8644 13.6518 13.3711 11.6846C13.3855 11.6657 13.4017 11.6479 13.4328 11.6104C13.4532 11.7644 13.4717 11.8984 13.4888 12.0323C13.4971 12.0982 13.5058 12.1644 13.51 12.2306C13.5198 12.3963 13.4623 12.5386 13.3518 12.6612C13.0907 12.951 12.8296 13.2416 12.5685 13.5315C12.1069 14.0442 11.6441 14.5558 11.1836 15.0696C10.904 15.3814 10.7655 15.7473 10.786 16.1666ZM22.5262 10.8763C22.5886 11.0875 22.5428 11.2767 22.3952 11.4409C22.1625 11.6993 21.9298 11.9582 21.6971 12.2166C21.2033 12.7653 20.7065 13.3113 20.2165 13.8633C19.9066 14.2126 19.781 14.6239 19.84 15.0889C19.9142 15.6735 19.9887 16.2581 20.0648 16.8424C20.1276 17.3278 20.1926 17.8129 20.2562 18.2984C20.2604 18.3313 20.2611 18.3646 20.2638 18.399C20.2558 18.634 20.1469 18.8092 19.938 18.9148C19.7261 19.0219 19.5157 19.0113 19.3227 18.8667C19.2361 18.8017 19.1578 18.7248 19.0768 18.6518C18.3348 17.984 17.5946 17.3142 16.8511 16.6479C16.5314 16.3614 16.1519 16.2324 15.7247 16.2596C15.5199 16.2729 15.3168 16.3085 15.1128 16.3349C14.8101 16.3739 14.5078 16.414 14.2051 16.4538C13.8963 16.4939 13.5879 16.5344 13.2791 16.5745C12.9855 16.6127 12.6919 16.652 12.3983 16.688C11.9571 16.7421 11.7104 16.3592 11.7293 16.0644C11.7384 15.9225 11.7959 15.8026 11.8897 15.6981C12.1107 15.4533 12.3309 15.2081 12.5515 14.9629C13.0612 14.3961 13.5747 13.8327 14.0794 13.2613C14.3916 12.9079 14.501 12.4883 14.4385 12.0217C14.3855 11.6263 14.3375 11.2305 14.286 10.8347C14.2346 10.4393 14.182 10.0439 14.1301 9.64848C14.0934 9.36696 14.0552 9.08544 14.0215 8.80316C13.9871 8.51559 14.1892 8.24353 14.4839 8.17466C14.6705 8.13115 14.84 8.17088 14.9842 8.29499C15.1605 8.4471 15.3319 8.60489 15.5048 8.76078C16.1503 9.34161 16.7928 9.92546 17.4418 10.5021C17.7971 10.8181 18.2186 10.9308 18.6882 10.8688C18.9848 10.8298 19.2815 10.7916 19.5781 10.7534C19.8809 10.7144 20.1836 10.6762 20.4863 10.6368C20.744 10.6035 21.0016 10.5691 21.2593 10.5354C21.4659 10.5086 21.6737 10.4874 21.8795 10.4556C22.1739 10.4102 22.4433 10.596 22.5262 10.8763ZM16.1821 8.01423C16.2256 7.95633 16.2699 7.89882 16.3146 7.84168C16.3535 7.79211 16.355 7.79174 16.4042 7.8292C16.6301 8.00174 16.8557 8.17428 17.0812 8.34721C17.2514 8.47775 17.4221 8.60792 17.592 8.73884C17.6158 8.757 17.6427 8.77176 17.6635 8.80468C17.5719 8.92463 17.4789 9.04647 17.3877 9.16566C17.3578 9.16793 17.3457 9.14825 17.3309 9.13463C16.9578 8.799 16.5851 8.46299 16.2124 8.12737C16.2056 8.12131 16.1988 8.11526 16.1923 8.1092C16.1458 8.0638 16.1454 8.06342 16.1821 8.01423ZM18.1804 9.86946C18.2901 9.72605 18.3976 9.58605 18.5084 9.44074C18.6901 9.57999 18.8668 9.71508 19.0495 9.85508C19 9.89027 18.9504 9.88043 18.9054 9.88686C18.7684 9.90654 18.6307 9.92508 18.4929 9.93795C18.3866 9.94854 18.2833 9.93151 18.1804 9.86946ZM23.0275 4.76616C22.7888 5.0787 22.5496 5.39087 22.3101 5.70304C22.2654 5.76131 22.2647 5.76131 22.2076 5.71818C22.1228 5.65461 22.0407 5.58763 21.9537 5.52747C21.8284 5.4412 21.688 5.41055 21.5389 5.44233C21.3267 5.48736 21.1886 5.6198 21.1367 5.82829C21.083 6.04435 21.1481 6.23089 21.3221 6.37089C21.5038 6.51657 21.6914 6.65506 21.8761 6.79658C22.1236 6.98615 22.371 7.17534 22.6181 7.36492C22.69 7.42016 22.6843 7.40881 22.634 7.47427C22.1709 8.07969 21.7066 8.68435 21.2427 9.28939C21.1708 9.38285 21.097 9.47518 21.0274 9.57053C20.9997 9.60837 20.9683 9.62464 20.9222 9.6288C20.8261 9.63751 20.7296 9.64886 20.6346 9.66588C20.5752 9.67648 20.5317 9.65945 20.4859 9.62426C20.0231 9.2682 19.5588 8.91441 19.0953 8.55948C17.6037 7.41751 16.1125 6.27516 14.6213 5.13281C14.5853 5.10519 14.5501 5.07719 14.5078 5.04427C14.6886 4.80778 14.8631 4.57923 15.0375 4.35107C15.4662 3.79143 15.8946 3.2318 16.3233 2.67217C16.3289 2.66498 16.3339 2.65741 16.3395 2.6506C16.3853 2.59233 16.3861 2.59157 16.4436 2.63546C16.5904 2.74709 16.7368 2.85985 16.8833 2.97185C17.76 3.64311 18.6367 4.31436 19.5127 4.98676C19.6512 5.09308 19.8033 5.13546 19.9724 5.09611C20.1794 5.04805 20.3145 4.91524 20.3652 4.71091C20.4178 4.49902 20.355 4.3155 20.187 4.1736C20.0992 4.09944 20.0053 4.03284 19.9142 3.96284C19.3307 3.51559 18.7472 3.06872 18.1637 2.62146C18.1471 2.6086 18.1301 2.59611 18.1134 2.58287C18.096 2.56924 18.0952 2.55297 18.1085 2.53595C18.1176 2.52384 18.127 2.51211 18.1361 2.5C18.3771 2.18556 18.6155 1.86885 18.8596 1.55668C19.1532 1.1817 19.5433 1.01937 20.0148 1.06062C20.2581 1.08181 20.4749 1.17943 20.669 1.32889C21.0569 1.6282 21.447 1.92523 21.836 2.22302C22.1531 2.46595 22.4705 2.70811 22.7869 2.95179C23.3677 3.39867 23.4717 4.18382 23.0275 4.76616Z" fill="url(#paint0_linear_7951_158004)"/>
<path d="M5.05907 8.70819C5.25167 8.37256 5.75758 8.4577 5.82985 8.8376L6.06823 10.0919C6.09094 10.2115 6.16472 10.3148 6.27029 10.3754L7.37783 11.0107C7.71346 11.2033 7.62832 11.7092 7.24842 11.7814L5.99407 12.0198C5.8745 12.0425 5.7712 12.1163 5.71028 12.2219L5.07497 13.3294C4.88237 13.6651 4.37647 13.5799 4.30419 13.2L4.06581 11.9457C4.04311 11.8261 3.96932 11.7228 3.86375 11.6623L2.75621 11.0269C2.42059 10.8343 2.50572 10.3284 2.88562 10.2562L4.13997 10.0178C4.25954 9.99508 4.36284 9.9213 4.42376 9.81573L5.05907 8.70819Z" fill="url(#paint1_linear_7951_158004)"/>
<path d="M2.0755 16.6384C1.99225 16.5627 2.04787 16.4246 2.16026 16.4277L2.53107 16.4382C2.56626 16.4394 2.60032 16.4246 2.62416 16.3985L2.87351 16.1238C2.94919 16.0406 3.0873 16.0962 3.08428 16.2086L3.07368 16.5794C3.07255 16.6146 3.0873 16.6486 3.11341 16.6725L3.38812 16.9218C3.47136 16.9975 3.41574 17.1356 3.30336 17.1326L2.93254 17.122C2.89735 17.1209 2.8633 17.1356 2.83946 17.1617L2.5901 17.4364C2.51443 17.5197 2.37631 17.4641 2.37934 17.3517L2.38994 16.9809C2.39107 16.9457 2.37631 16.9116 2.35021 16.8878L2.0755 16.6384Z" fill="url(#paint2_linear_7951_158004)"/>
<path d="M11.7266 5.90851C11.6778 5.8071 11.7815 5.70002 11.8844 5.74504L12.2242 5.89413C12.2567 5.90813 12.2934 5.90775 12.3252 5.89224L12.6597 5.73142C12.7611 5.68261 12.8682 5.78629 12.8232 5.88921L12.6741 6.229C12.6597 6.26154 12.6605 6.29824 12.676 6.33003L12.8368 6.66414C12.8856 6.76555 12.7819 6.87263 12.679 6.82761L12.3392 6.67852C12.3067 6.66452 12.27 6.6649 12.2382 6.68041L11.9037 6.84123C11.8023 6.89004 11.6952 6.78636 11.7402 6.68344L11.8893 6.34365C11.9037 6.31111 11.903 6.27441 11.8874 6.24262L11.7266 5.90851Z" fill="url(#paint3_linear_7951_158004)"/>
<path d="M13.1285 21.9608C13.0956 21.8045 13.2746 21.6918 13.4014 21.789L13.8195 22.1095C13.8592 22.1402 13.9103 22.1515 13.9595 22.1413L14.4748 22.0327C14.6311 21.9998 14.7439 22.1787 14.6466 22.3055L14.3261 22.7236C14.2955 22.7634 14.2841 22.8144 14.2944 22.8636L14.403 23.379C14.4359 23.5353 14.2569 23.648 14.1301 23.5508L13.712 23.2303C13.6723 23.1996 13.6212 23.1883 13.572 23.1985L13.0567 23.3071C12.9004 23.34 12.7876 23.161 12.8849 23.0343L13.2054 22.6162C13.236 22.5764 13.2474 22.5254 13.2371 22.4762L13.1285 21.9608Z" fill="url(#paint4_linear_7951_158004)"/>
<defs>
<linearGradient id="paint0_linear_7951_158004" x1="12.2809" y1="0" x2="12.2809" y2="30" gradientUnits="userSpaceOnUse">
<stop stop-color="#FF0049"/>
<stop offset="0.25" stop-color="#FFBE3B"/>
<stop offset="0.5" stop-color="#00BB5C"/>
<stop offset="0.75" stop-color="#187DC4"/>
<stop offset="1" stop-color="#58268B"/>
</linearGradient>
<linearGradient id="paint1_linear_7951_158004" x1="12.2809" y1="0" x2="12.2809" y2="30" gradientUnits="userSpaceOnUse">
<stop stop-color="#FF0049"/>
<stop offset="0.25" stop-color="#FFBE3B"/>
<stop offset="0.5" stop-color="#00BB5C"/>
<stop offset="0.75" stop-color="#187DC4"/>
<stop offset="1" stop-color="#58268B"/>
</linearGradient>
<linearGradient id="paint2_linear_7951_158004" x1="12.2809" y1="0" x2="12.2809" y2="30" gradientUnits="userSpaceOnUse">
<stop stop-color="#FF0049"/>
<stop offset="0.25" stop-color="#FFBE3B"/>
<stop offset="0.5" stop-color="#00BB5C"/>
<stop offset="0.75" stop-color="#187DC4"/>
<stop offset="1" stop-color="#58268B"/>
</linearGradient>
<linearGradient id="paint3_linear_7951_158004" x1="12.2809" y1="0" x2="12.2809" y2="30" gradientUnits="userSpaceOnUse">
<stop stop-color="#FF0049"/>
<stop offset="0.25" stop-color="#FFBE3B"/>
<stop offset="0.5" stop-color="#00BB5C"/>
<stop offset="0.75" stop-color="#187DC4"/>
<stop offset="1" stop-color="#58268B"/>
</linearGradient>
<linearGradient id="paint4_linear_7951_158004" x1="12.2809" y1="0" x2="12.2809" y2="30" gradientUnits="userSpaceOnUse">
<stop stop-color="#FF0049"/>
<stop offset="0.25" stop-color="#FFBE3B"/>
<stop offset="0.5" stop-color="#00BB5C"/>
<stop offset="0.75" stop-color="#187DC4"/>
<stop offset="1" stop-color="#58268B"/>
</linearGradient>
</defs>
</svg>
