<svg width="33" height="30" viewBox="0 0 33 30" fill="none" xmlns="http://www.w3.org/2000/svg">
<path d="M22.731 7.95312H14.7838C14.0834 7.95312 13.5156 8.52081 13.5156 9.22131C13.5156 9.92175 14.0833 10.4895 14.7838 10.4895H22.731C23.4319 10.4895 23.9992 9.92181 23.9992 9.22131C23.9991 8.52081 23.4314 7.95312 22.731 7.95312Z" fill="#8B8B8B"/>
<path d="M25.7746 14.0781H14.7838C14.0834 14.0781 13.5156 14.6458 13.5156 15.3463C13.5156 16.0468 14.0833 16.6145 14.7838 16.6145H25.7746C26.475 16.6145 27.0427 16.0468 27.0427 15.3463C27.0427 14.6458 26.475 14.0781 25.7746 14.0781Z" fill="#8B8B8B"/>
<path d="M31.5131 0H9.06656C8.36613 0 7.79838 0.567687 7.79838 1.26819V13.2312H5.558C2.924 13.2312 0.78125 15.3744 0.78125 18.0079V25.0674C0.78125 27.7014 2.924 29.8441 5.558 29.8441C5.77356 29.8441 5.98581 29.8298 6.19338 29.8019H27.1168C30.2399 29.8019 32.7812 27.2609 32.7812 24.1374V1.26819C32.7812 0.567687 32.2136 0 31.5131 0ZM7.79844 25.0674C7.79844 26.1542 7.02019 27.0631 5.99175 27.2655H5.55806V27.3077C4.32244 27.3077 3.31763 26.3025 3.31763 25.0673V18.0079C3.31763 16.7727 4.32288 15.7675 5.55806 15.7675H7.7985L7.79844 25.0674ZM30.2449 24.1374C30.2449 25.8329 28.8127 27.2655 27.1168 27.2655H9.79831C10.1411 26.6073 10.3348 25.8595 10.3348 25.0674V2.53631H30.2449V24.1374Z" fill="#8B8B8B"/>
<path d="M22.731 19.8281H14.7838C14.0834 19.8281 13.5156 20.3958 13.5156 21.0963C13.5156 21.7968 14.0833 22.3645 14.7838 22.3645H22.731C23.4319 22.3645 23.9992 21.7968 23.9992 21.0963C23.9991 20.3958 23.4314 19.8281 22.731 19.8281Z" fill="#8B8B8B"/>
</svg>
