<svg width="33" height="30" viewBox="0 0 33 30" fill="none" xmlns="http://www.w3.org/2000/svg">
<path d="M22.1685 7.95312H14.2213C13.5209 7.95312 12.9531 8.52081 12.9531 9.22131C12.9531 9.92175 13.5208 10.4895 14.2213 10.4895H22.1685C22.8694 10.4895 23.4367 9.92181 23.4367 9.22131C23.4366 8.52081 22.8689 7.95312 22.1685 7.95312Z" fill="#1E71F2"/>
<path d="M25.2121 14.0781H14.2213C13.5209 14.0781 12.9531 14.6458 12.9531 15.3463C12.9531 16.0468 13.5208 16.6145 14.2213 16.6145H25.2121C25.9125 16.6145 26.4802 16.0468 26.4802 15.3463C26.4802 14.6458 25.9125 14.0781 25.2121 14.0781Z" fill="#1E71F2"/>
<path d="M30.9506 0H8.50406C7.80363 0 7.23588 0.567687 7.23588 1.26819V13.2312H4.9955C2.3615 13.2312 0.21875 15.3744 0.21875 18.0079V25.0674C0.21875 27.7014 2.3615 29.8441 4.9955 29.8441C5.21106 29.8441 5.42331 29.8298 5.63088 29.8019H26.5543C29.6774 29.8019 32.2188 27.2609 32.2188 24.1374V1.26819C32.2188 0.567687 31.6511 0 30.9506 0ZM7.23594 25.0674C7.23594 26.1542 6.45769 27.0631 5.42925 27.2655H4.99556V27.3077C3.75994 27.3077 2.75513 26.3025 2.75513 25.0673V18.0079C2.75513 16.7727 3.76038 15.7675 4.99556 15.7675H7.236L7.23594 25.0674ZM29.6824 24.1374C29.6824 25.8329 28.2502 27.2655 26.5543 27.2655H9.23581C9.57862 26.6073 9.77225 25.8595 9.77225 25.0674V2.53631H29.6824V24.1374Z" fill="#1E71F2"/>
<path d="M22.1685 19.8281H14.2213C13.5209 19.8281 12.9531 20.3958 12.9531 21.0963C12.9531 21.7968 13.5208 22.3645 14.2213 22.3645H22.1685C22.8694 22.3645 23.4367 21.7968 23.4367 21.0963C23.4366 20.3958 22.8689 19.8281 22.1685 19.8281Z" fill="#1E71F2"/>
</svg>
