<svg width="34" height="30" viewBox="0 0 34 30" fill="none" xmlns="http://www.w3.org/2000/svg">
<path d="M29.2812 0H4.28125C3.28669 0 2.33286 0.395088 1.6296 1.09835C0.926338 1.80161 0.53125 2.75544 0.53125 3.75V21.25C0.53125 22.2446 0.926338 23.1984 1.6296 23.9017C2.33286 24.6049 3.28669 25 4.28125 25H29.2812C30.2758 25 31.2296 24.6049 31.9329 23.9017C32.6362 23.1984 33.0312 22.2446 33.0312 21.25V3.75C33.0312 2.75544 32.6362 1.80161 31.9329 1.09835C31.2296 0.395088 30.2758 0 29.2812 0ZM30.5312 21.25C30.5312 21.5815 30.3996 21.8995 30.1651 22.1339C29.9307 22.3683 29.6128 22.5 29.2812 22.5H4.28125C3.94973 22.5 3.63179 22.3683 3.39737 22.1339C3.16295 21.8995 3.03125 21.5815 3.03125 21.25V3.75C3.03125 3.41848 3.16295 3.10054 3.39737 2.86612C3.63179 2.6317 3.94973 2.5 4.28125 2.5H29.2812C29.6128 2.5 29.9307 2.6317 30.1651 2.86612C30.3996 3.10054 30.5312 3.41848 30.5312 3.75V21.25ZM23.0312 28.75C23.0312 29.0815 22.8996 29.3995 22.6651 29.6339C22.4307 29.8683 22.1128 30 21.7812 30H11.7812C11.4497 30 11.1318 29.8683 10.8974 29.6339C10.6629 29.3995 10.5312 29.0815 10.5312 28.75C10.5312 28.4185 10.6629 28.1005 10.8974 27.8661C11.1318 27.6317 11.4497 27.5 11.7812 27.5H21.7812C22.1128 27.5 22.4307 27.6317 22.6651 27.8661C22.8996 28.1005 23.0312 28.4185 23.0312 28.75ZM22.475 11.4594L14.975 6.45937C14.7867 6.33375 14.5678 6.26161 14.3417 6.25065C14.1156 6.2397 13.8908 6.29034 13.6913 6.39718C13.4917 6.50402 13.3249 6.66304 13.2087 6.85726C13.0924 7.05149 13.0311 7.27364 13.0312 7.5V17.5C13.0311 17.7264 13.0924 17.9485 13.2087 18.1427C13.3249 18.337 13.4917 18.496 13.6913 18.6028C13.8908 18.7097 14.1156 18.7603 14.3417 18.7493C14.5678 18.7384 14.7867 18.6663 14.975 18.5406L22.475 13.5406C22.6465 13.4265 22.7871 13.2718 22.8843 13.0903C22.9816 12.9087 23.0325 12.706 23.0325 12.5C23.0325 12.294 22.9816 12.0913 22.8843 11.9097C22.7871 11.7282 22.6465 11.5735 22.475 11.4594ZM15.5312 15.1641V9.84375L19.5281 12.5L15.5312 15.1641Z" fill="#8B8B8B"/>
</svg>
