<svg width="44" height="44" viewBox="0 0 44 44" fill="none" xmlns="http://www.w3.org/2000/svg">
<path d="M39.6183 34.5127C42.4159 32.0194 43.9999 28.696 43.9999 25.2472C43.9999 21.582 42.2841 18.1543 39.1685 15.5947C36.1362 13.1045 32.1225 11.7329 27.8663 11.7329C23.6101 11.7329 19.5964 13.1045 16.5646 15.5949C13.449 18.1543 11.7332 21.582 11.7332 25.2472C11.7332 28.9124 13.449 32.3402 16.5646 34.8997C19.5964 37.3901 23.6101 38.7616 27.8663 38.7616C28.4335 38.7616 29.0041 38.7366 29.5699 38.6868L30.5366 39.5248C33.867 42.4107 38.126 43.9994 42.5328 43.9996H43.9995V40.8777L43.5699 40.4482C41.8754 38.7487 40.5326 36.7317 39.6183 34.5127ZM32.4578 37.3079L30.518 35.6266L29.8712 35.7059C29.206 35.7873 28.5365 35.8281 27.8663 35.8281C20.5881 35.8281 14.6665 31.0815 14.6665 25.2472C14.6665 19.4129 20.5881 14.6662 27.8663 14.6662C35.1446 14.6662 41.0662 19.4128 41.0662 25.2472C41.0662 28.154 39.616 30.8677 36.9828 32.8884L36.1381 33.5366L36.5279 34.6398C37.3266 36.8929 38.5007 38.9947 40.0004 40.8563C37.2076 40.3901 34.5975 39.1623 32.4578 37.3079Z" fill="#646464"/>
<path d="M4.05025 27.6353C5.42315 25.8974 6.50108 23.9457 7.24095 21.8582L7.62778 20.7605L6.78381 20.1128C4.30077 18.2074 2.9333 15.6501 2.9333 12.9119C2.9333 7.40969 8.52574 2.93333 15.3998 2.93333C20.4569 2.93333 24.82 5.35608 26.7734 8.8275C27.1362 8.8099 27.5004 8.8 27.8664 8.8C28.6014 8.8 29.3296 8.83566 30.0511 8.90698C29.2963 6.95127 27.9853 5.16597 26.1828 3.68555C23.2897 1.30891 19.4606 0 15.3998 0C11.339 0 7.50999 1.30891 4.61665 3.68555C1.63953 6.13113 0 9.40775 0 12.9119C0 16.1936 1.49892 19.3556 4.14787 21.7342C3.28341 23.8145 2.02027 25.7057 0.429637 27.301L0 27.7305V30.8H1.46665C4.17877 30.7997 6.85359 30.1681 9.27941 28.9552C9.01341 27.947 8.85755 26.9129 8.81458 25.8711C7.34222 26.734 5.72953 27.3312 4.05025 27.6353Z" fill="#646464"/>
</svg>
