<svg width="45" height="46" viewBox="0 0 45 46" fill="none" xmlns="http://www.w3.org/2000/svg">
<path fill-rule="evenodd" clip-rule="evenodd" d="M7.08483 25.8781V25.4671C7.14372 24.251 7.52441 23.0727 8.18763 22.0538C9.29157 20.8297 10.0473 19.3297 10.3755 17.7111C10.3755 16.4602 10.3755 15.1913 10.4822 13.9403C11.0336 7.91784 16.85 3.75391 22.5952 3.75391H22.7375C28.4828 3.75391 34.2992 7.91784 34.8684 13.9403C34.9751 15.1913 34.8684 16.4602 34.9573 17.7111C35.2899 19.3334 36.0449 20.8381 37.1452 22.0716C37.8133 23.0816 38.1946 24.2556 38.248 25.4671V25.8603C38.2877 27.4941 37.7381 29.0872 36.7005 30.3459C35.3294 31.8176 33.4689 32.7332 31.4711 32.9193C25.6128 33.5627 19.7022 33.5627 13.844 32.9193C11.8484 32.7251 9.99054 31.8109 8.61452 30.3459C7.59298 29.0863 7.05075 27.5026 7.08483 25.8781Z" stroke="#646464" stroke-width="3" stroke-linecap="round" stroke-linejoin="round"/>
<path d="M18.184 39.1382C19.0994 40.3144 20.4435 41.0757 21.9191 41.2534C23.3946 41.4312 24.8798 41.0108 26.046 40.0853C26.4046 39.8116 26.7274 39.4934 27.0065 39.1382" stroke="#646464" stroke-width="3" stroke-linecap="round" stroke-linejoin="round"/>
</svg>
