<svg width="21" height="14" viewBox="0 0 21 14" fill="none" xmlns="http://www.w3.org/2000/svg">
<path d="M0 13.3222V0.677803C0 0.432578 0.128453 0.244828 0.385359 0.114553C0.642265 -0.0157229 0.913444 -0.0348811 1.19889 0.0570781L19.8103 6.35629C20.1529 6.4789 20.3241 6.69347 20.3241 7C20.3241 7.30653 20.1529 7.5211 19.8103 7.64371L1.19889 13.9429C0.913444 14.0349 0.642265 14.0157 0.385359 13.8854C0.128453 13.7552 0 13.5674 0 13.3222ZM1.71271 12.2187L17.2413 7L1.71271 1.71234V5.57463L8.62063 7L1.71271 8.37939V12.2187ZM1.71271 7V1.71234V12.2187V7Z" fill="#1E71F2"/>
</svg>
