<svg width="22" height="23" viewBox="0 0 22 23" fill="none" xmlns="http://www.w3.org/2000/svg">
<g clip-path="url(#clip0_3593_90973)">
<path d="M5.36283 13.6649L4.65795 16.5436L2.08165 16.6033C1.31172 15.041 0.875 13.2535 0.875 11.3539C0.875 9.51712 1.28332 7.78496 2.0071 6.25977H2.00766L4.30128 6.7198L5.30603 9.21402C5.09574 9.88473 4.98112 10.6047 4.98112 11.3539C4.9812 12.1671 5.11583 12.9461 5.36283 13.6649Z" fill="#FBBB00"/>
<path d="M20.9482 9.28516C21.0644 9.95522 21.1251 10.6472 21.1251 11.3545C21.1251 12.1475 21.0489 12.9211 20.9037 13.6672C20.4108 16.2064 19.1229 18.4236 17.3388 19.9926L17.3382 19.992L14.4493 19.8308L14.0404 17.0384C15.2242 16.2788 16.1494 15.0902 16.6368 13.6672H11.2227V9.28516H16.7157H20.9482Z" fill="#518EF8"/>
<path d="M17.3385 19.9926L17.3391 19.9932C15.6039 21.519 13.3998 22.432 11.0004 22.432C7.14453 22.432 3.79217 20.0742 2.08203 16.6044L5.3632 13.666C6.21825 16.1626 8.41961 17.9398 11.0004 17.9398C12.1097 17.9398 13.1489 17.6117 14.0406 17.039L17.3385 19.9926Z" fill="#28B446"/>
<path d="M17.4635 2.82746L14.1834 5.76527C13.2605 5.13414 12.1695 4.76956 11.0007 4.76956C8.36153 4.76956 6.119 6.62827 5.30678 9.21434L2.00837 6.26009H2.00781C3.69291 2.70574 7.08756 0.277344 11.0007 0.277344C13.4574 0.277344 15.7099 1.23472 17.4635 2.82746Z" fill="#F14336"/>
</g>
<defs>
<clipPath id="clip0_3593_90973">
<rect width="20.25" height="22.1538" fill="white" transform="translate(0.875 0.277344)"/>
</clipPath>
</defs>
</svg>
