<svg width="22" height="25" viewBox="0 0 22 25" fill="none" xmlns="http://www.w3.org/2000/svg">
<path d="M6.78325 4.51153C3.55591 4.51153 1.08398 9.59557 1.08398 14.9716C1.08398 18.3371 2.42871 20.4626 4.68311 20.4626C6.30469 20.4626 7.47144 19.5387 9.54785 15.1488C9.54785 15.1488 10.414 13.3009 11.0073 12.0275L12.2413 9.49983C13.2894 7.54185 14.1555 6.56525 15.1838 6.56525C17.3196 6.56525 19.0282 10.3711 19.0282 15.0482C19.0282 16.8291 18.5457 17.8631 17.545 17.8631C16.5879 17.8631 16.1291 17.0972 14.3098 13.5546L12.6368 15.3211C14.5312 19.1605 15.5873 20.4626 17.5015 20.4626C19.6966 20.4626 20.9187 18.3036 20.9187 14.8663C20.9187 9.23174 18.3914 4.50195 15.3183 4.50195C13.6928 4.50195 12.4192 5.986 11.2683 7.86738L9.99082 10.1365C8.72915 12.4823 7.96186 13.952 7.96186 13.952C6.28096 17.145 5.69956 17.8583 4.76221 17.8583C3.79717 17.8583 3.22764 16.8339 3.22764 15.0099C3.22764 11.1035 4.83735 7.111 6.75557 7.111L6.78325 4.51153Z" fill="url(#paint0_linear_3593_90980)"/>
<path d="M11.3751 9.63318L9.99082 10.1502C8.72915 12.4959 7.96186 13.9656 7.96186 13.9656C6.28096 17.1587 5.69956 17.872 4.76221 17.872C3.79717 17.872 3.22764 16.8475 3.22764 15.0236C3.22764 11.1172 4.83735 7.12467 6.75557 7.12467L6.78325 4.51563C3.55591 4.51084 1.08398 9.59488 1.08398 14.9709C1.08398 18.3364 2.42871 20.4619 4.68311 20.4619C6.30469 20.4619 7.47144 19.538 9.54785 15.1481C9.54785 15.1481 10.414 13.3002 11.0073 12.0268L11.3751 9.63318Z" fill="url(#paint1_linear_3593_90980)"/>
<path d="M12.6371 15.3261C14.5315 19.1654 15.5875 20.4628 17.5018 20.4628L17.5453 17.8633C16.5882 17.8633 16.1294 17.1021 14.3101 13.5596C12.7834 10.5532 12.0042 9.05002 11.2686 7.87714C9.68657 5.44044 8.36558 4.51172 6.78354 4.51172L6.75586 7.12076C7.79604 7.12076 8.66221 7.84842 9.99111 10.1511C10.5488 11.099 11.6918 13.3537 12.6371 15.3261Z" fill="url(#paint2_linear_3593_90980)"/>
<path d="M11.2645 7.87714C9.68247 5.44044 8.36147 4.51172 6.77549 4.51172C5.21323 4.51172 3.82896 5.70374 2.8125 7.54204L4.33916 9.433C4.97593 8.03991 5.83418 7.12555 6.75571 7.12555C7.7959 7.12555 8.65415 7.84363 9.98306 10.1463L11.2645 7.87714Z" fill="url(#paint3_linear_3593_90980)"/>
<path d="M13.6895 17.3354C14.9907 19.6285 15.9715 20.4615 17.5021 20.4615C19.6972 20.4615 20.9193 18.3025 20.9193 14.8652L19.0288 15.0471C19.0288 16.828 18.5463 17.862 17.5457 17.862C16.7744 17.862 16.3235 17.3642 15.2201 15.3057L13.6895 17.3354Z" fill="url(#paint4_linear_3593_90980)"/>
<defs>
<linearGradient id="paint0_linear_3593_90980" x1="1.08398" y1="12.4823" x2="20.9187" y2="12.4823" gradientUnits="userSpaceOnUse">
<stop stop-color="#0064E0"/>
<stop offset="0.061763" stop-color="#006AE5"/>
<stop offset="0.2183" stop-color="#007AF4"/>
<stop offset="0.8106" stop-color="#007DF6"/>
<stop offset="1" stop-color="#0080F9"/>
</linearGradient>
<linearGradient id="paint1_linear_3593_90980" x1="2.84344" y1="9.48597" x2="11.4037" y2="16.7991" gradientUnits="userSpaceOnUse">
<stop stop-color="#0064E0"/>
<stop offset="0.0134753" stop-color="#0065E1"/>
<stop offset="0.2894" stop-color="#0075F0"/>
<stop offset="0.5971" stop-color="#007FF9"/>
<stop offset="1" stop-color="#0082FC"/>
</linearGradient>
<linearGradient id="paint2_linear_3593_90980" x1="5.23513" y1="3.21036" x2="19.8272" y2="16.2387" gradientUnits="userSpaceOnUse">
<stop stop-color="#0082FB"/>
<stop offset="0.0216721" stop-color="#017CF5"/>
<stop offset="0.0904785" stop-color="#0471EA"/>
<stop offset="0.1872" stop-color="#066AE3"/>
<stop offset="0.4561" stop-color="#0668E1"/>
<stop offset="0.7462" stop-color="#056AE3"/>
<stop offset="0.8847" stop-color="#0472EB"/>
<stop offset="0.9742" stop-color="#017CF5"/>
<stop offset="1" stop-color="#0082FB"/>
</linearGradient>
<linearGradient id="paint3_linear_3593_90980" x1="2.8125" y1="7.32901" x2="11.2645" y2="7.32901" gradientUnits="userSpaceOnUse">
<stop stop-color="#0064E0"/>
<stop offset="0.4218" stop-color="#0069E4"/>
<stop offset="0.4332" stop-color="#0069E4"/>
<stop offset="1" stop-color="#0668E1"/>
</linearGradient>
<linearGradient id="paint4_linear_3593_90980" x1="13.6901" y1="17.6634" x2="20.9193" y2="17.6634" gradientUnits="userSpaceOnUse">
<stop stop-color="#066BE3"/>
<stop offset="0.3087" stop-color="#0470E9"/>
<stop offset="0.559" stop-color="#0279F2"/>
<stop offset="1" stop-color="#0080F9"/>
</linearGradient>
</defs>
</svg>
