<svg width="43" height="45" viewBox="0 0 43 45" fill="none" xmlns="http://www.w3.org/2000/svg">
<path d="M1.53959 24.8142C-0.513203 24.0192 -0.513203 20.9808 1.53959 20.1858L13.478 15.5627C14.1234 15.3128 14.6323 14.7803 14.8711 14.1049L19.2887 1.6112C20.0483 -0.537067 22.9517 -0.537067 23.7113 1.6112L28.1289 14.1049C28.3677 14.7803 28.8766 15.3128 29.522 15.5627L41.4604 20.1858C43.5132 20.9808 43.5132 24.0192 41.4604 24.8142L29.522 29.4373C28.8766 29.6872 28.3677 30.2197 28.1289 30.8951L23.7113 43.3888C22.9517 45.5371 20.0483 45.5371 19.2887 43.3888L14.8711 30.8951C14.6322 30.2197 14.1234 29.6872 13.478 29.4373L1.53959 24.8142Z" fill="url(#paint0_linear_3558_96671)"/>
<defs>
<linearGradient id="paint0_linear_3558_96671" x1="21.5" y1="45" x2="21.5" y2="0" gradientUnits="userSpaceOnUse">
<stop stop-color="white"/>
<stop offset="1" stop-color="#1E71F2"/>
</linearGradient>
</defs>
</svg>
