<svg width="29" height="28" viewBox="0 0 29 28" fill="none" xmlns="http://www.w3.org/2000/svg">
<g clip-path="url(#clip0_8696_171227)">
<path d="M14.7266 15.3125C15.4514 15.3125 16.0391 14.7249 16.0391 14C16.0391 13.2751 15.4514 12.6875 14.7266 12.6875C14.0017 12.6875 13.4141 13.2751 13.4141 14C13.4141 14.7249 14.0017 15.3125 14.7266 15.3125Z" fill="white"/>
<path d="M9.91406 15.3125C10.6389 15.3125 11.2266 14.7249 11.2266 14C11.2266 13.2751 10.6389 12.6875 9.91406 12.6875C9.18919 12.6875 8.60156 13.2751 8.60156 14C8.60156 14.7249 9.18919 15.3125 9.91406 15.3125Z" fill="white"/>
<path d="M19.5391 15.3125C20.2639 15.3125 20.8516 14.7249 20.8516 14C20.8516 13.2751 20.2639 12.6875 19.5391 12.6875C18.8142 12.6875 18.2266 13.2751 18.2266 14C18.2266 14.7249 18.8142 15.3125 19.5391 15.3125Z" fill="white"/>
<path d="M9.46791 23.0902C11.6735 24.3667 14.268 24.7975 16.7678 24.3023C19.2676 23.8071 21.5019 22.4198 23.0543 20.3988C24.6067 18.3779 25.3712 15.8614 25.2052 13.3185C25.0392 10.7756 23.9541 8.37978 22.1521 6.57783C20.3502 4.77588 17.9544 3.69075 15.4115 3.52475C12.8685 3.35876 10.352 4.12322 8.33112 5.67562C6.3102 7.22802 4.92282 9.46239 4.42764 11.9622C3.93246 14.4619 4.36329 17.0565 5.63979 19.2621L4.2715 23.3472C4.22009 23.5014 4.21263 23.6668 4.24996 23.825C4.28728 23.9832 4.36793 24.1278 4.48284 24.2427C4.59776 24.3577 4.74241 24.4383 4.90059 24.4756C5.05876 24.513 5.22421 24.5055 5.37838 24.4541L9.46791 23.0902Z" stroke="white" stroke-width="2" stroke-linecap="round" stroke-linejoin="round"/>
</g>
<defs>
<clipPath id="clip0_8696_171227">
<rect width="28" height="28" fill="white" transform="translate(0.726562)"/>
</clipPath>
</defs>
</svg>
