<svg width="38" height="39" viewBox="0 0 38 39" fill="none" xmlns="http://www.w3.org/2000/svg">
<ellipse cx="18.7273" cy="19.3674" rx="18.7273" ry="18.7273" fill="url(#paint0_linear_8696_171240)"/>
<path d="M25.8697 12.1585L24.0791 10.787C23.8865 10.6395 23.611 10.6761 23.4635 10.8686C23.316 11.0612 23.3525 11.3368 23.5451 11.4843L25.3357 12.8557C25.5282 13.0032 25.8038 12.9667 25.9513 12.7741C26.0988 12.5815 26.0623 12.306 25.8697 12.1585Z" fill="white"/>
<path d="M28.7874 20.3081C28.8643 20.0899 28.8119 19.8515 28.6503 19.6858L26.705 17.6912L27.1305 15.5383L29.0785 12.995C29.226 12.8024 29.1894 12.5269 28.9968 12.3794L28.4623 11.9699L29.1089 11.1257C29.7607 10.2749 29.5987 9.05246 28.7478 8.40072L26.9534 7.02637C26.1025 6.37467 24.88 6.53672 24.2283 7.38761L23.5817 8.23184L23.0471 7.82242C22.8545 7.67492 22.579 7.71144 22.4315 7.90403L20.3285 10.6498C20.1993 10.8185 20.2113 11.0508 20.3457 11.205L20.2488 11.3315C20.1013 11.5241 20.1379 11.7997 20.3304 11.9472C20.523 12.0947 20.7986 12.0581 20.9461 11.8656L21.0376 11.7461L22.1379 12.5888L20.9527 14.1361C20.9062 14.1534 20.861 14.1757 20.8187 14.2048C20.6676 14.3088 20.5762 14.4711 20.5607 14.648L11.7299 26.1778L10.6296 25.3351L19.8157 13.3414C19.9632 13.1488 19.9267 12.8733 19.7341 12.7258C19.5415 12.5783 19.266 12.6148 19.1185 12.8074L14.5646 18.7531C14.5283 18.6947 14.4823 18.6416 14.4253 18.598C14.2501 18.4638 14.0184 18.4406 13.8205 18.5376L11.7679 19.5452L9.76165 18.4227C9.56828 18.3146 9.33492 18.3254 9.15266 18.4511C8.97074 18.5766 8.87774 18.7902 8.91005 19.0094L9.247 21.2746L7.57148 22.8242C7.40944 22.9739 7.34775 23.1985 7.41028 23.4103C7.44578 23.5306 7.51728 23.6328 7.61215 23.7054C7.68462 23.7609 7.77069 23.7993 7.8649 23.8156L10.1279 24.2088L10.2255 24.4183L9.66532 25.1496C9.66123 25.155 9.6578 25.1606 9.65398 25.1661C9.65089 25.1705 9.6477 25.1749 9.64483 25.1794C9.62517 25.21 9.60977 25.2422 9.59843 25.2754C9.59689 25.2799 9.59558 25.2845 9.59414 25.2891C9.58998 25.3027 9.58653 25.3164 9.58378 25.3303C9.58288 25.3346 9.58189 25.3388 9.58116 25.343C9.57822 25.3602 9.57634 25.3775 9.57554 25.3948C9.57547 25.3965 9.57509 25.398 9.57501 25.3997L9.35749 30.9505C9.34884 31.1691 9.44746 31.3791 9.62123 31.5123L9.62137 31.5124C9.79513 31.6455 10.0236 31.6861 10.2324 31.6209L15.5366 29.9658C15.5382 29.9654 15.5396 29.9646 15.5411 29.9641C15.5576 29.9587 15.5739 29.9524 15.5898 29.9451C15.5938 29.9433 15.5974 29.9411 15.6014 29.9392C15.614 29.9329 15.6263 29.926 15.6384 29.9185C15.6425 29.9159 15.6467 29.9134 15.6507 29.9107C15.6654 29.9008 15.6797 29.8903 15.6933 29.8786L15.6933 29.8785C15.7066 29.867 15.7192 29.8543 15.7312 29.8409C15.7348 29.837 15.7382 29.8328 15.7416 29.8287C15.7459 29.8235 15.7505 29.8187 15.7546 29.8133L16.0936 29.3708C16.2411 29.1782 16.2045 28.9027 16.0119 28.7552C15.8194 28.6077 15.5438 28.6442 15.3963 28.8368L15.3244 28.9307L14.2241 28.088L19.9577 20.6021L21.501 20.8663L16.531 27.3553C16.3835 27.5478 16.42 27.8234 16.6126 27.9709C16.8052 28.1184 17.0808 28.0819 17.2283 27.8893L22.1901 21.411L23.1453 23.4765C23.2426 23.6866 23.4466 23.8207 23.6779 23.8266C23.9092 23.8324 24.1198 23.7088 24.2275 23.5039L25.5233 21.0374L28.29 20.7066C28.5198 20.679 28.7104 20.5263 28.7874 20.3081ZM10.8251 23.6355C10.7389 23.4961 10.5964 23.3987 10.4328 23.3704L8.6159 23.0547L9.96071 21.8109C10.1011 21.6812 10.1677 21.491 10.1392 21.3032L9.86939 19.4893L11.4761 20.3883C11.64 20.4802 11.8392 20.4865 12.0128 20.4034L13.663 19.5933L13.5748 20.0453L10.8251 23.6355ZM21.2928 10.8352L22.8618 8.78672L25.488 10.7983C25.6806 10.9458 25.9561 10.9093 26.1036 10.7167C26.2511 10.5241 26.2146 10.2486 26.022 10.1011L24.2789 8.76601L24.9256 7.92168C25.2828 7.45526 25.953 7.36642 26.4194 7.72366L28.2138 9.09801C28.6802 9.45525 28.7691 10.1254 28.4118 10.5918L27.7651 11.4361L27.5172 11.2463C27.3247 11.0988 27.0491 11.1353 26.9016 11.3279C26.7541 11.5205 26.7906 11.796 26.9832 11.9435L28.1144 12.8097L26.9576 14.3201C26.7834 14.2178 26.5707 14.2084 26.386 14.2996L26.0395 14.4708L21.2928 10.8352ZM25.1613 14.9045L23.8878 15.5334L23.8544 15.5147L24.6322 14.4992L25.1613 14.9045ZM18.753 20.0545C18.7903 20.1799 18.8648 20.2861 18.9638 20.3619C18.9789 20.3735 18.9949 20.3837 19.0112 20.3938L13.5269 27.5542L12.4271 26.7119L20.7226 15.881L20.9651 17.5461L18.9213 19.4398C18.7516 19.5971 18.6871 19.8327 18.753 20.0545ZM23.9349 13.9652L23.0795 15.082L21.8573 14.3995L22.8351 13.1228L23.9349 13.9652ZM10.2469 30.6927L10.2972 29.4077L11.4774 30.3111L10.2469 30.6927ZM14.4659 29.3801L12.5051 29.9919L10.3389 28.3336L10.4194 26.2808L14.4659 29.3801ZM25.2758 20.1825C25.0785 20.2061 24.9056 20.3252 24.8132 20.5011L23.7089 22.6028L22.7125 20.4482C22.6858 20.3904 22.6498 20.3389 22.6079 20.2933C22.6059 20.2909 22.6037 20.2887 22.6017 20.2864C22.5948 20.2791 22.5881 20.2717 22.5808 20.2648C22.5685 20.2527 22.5554 20.241 22.5414 20.2303C22.5408 20.2298 22.5401 20.2294 22.5395 20.229C22.5368 20.2268 22.5344 20.2242 22.5316 20.2221C22.455 20.1634 22.3643 20.1231 22.2664 20.1064L19.9264 19.7057L21.6674 18.0924C21.8134 17.9573 21.8835 17.7593 21.8549 17.5623L21.5128 15.213L23.5855 16.3705C23.759 16.4674 23.969 16.4727 24.1472 16.3847L26.2758 15.3335L25.8154 17.6625C25.777 17.8575 25.8368 18.0588 25.9756 18.2011L27.6331 19.9007L25.2758 20.1825Z" fill="white"/>
<path d="M16.3851 12.0929L15.897 11.7191L16.2709 11.231C16.4184 11.0384 16.3818 10.7629 16.1892 10.6154C15.9967 10.4679 15.7211 10.5044 15.5736 10.697L15.1998 11.1851L14.7117 10.8112C14.5191 10.6637 14.2435 10.7003 14.096 10.8929C13.9485 11.0854 13.9851 11.361 14.1777 11.5085L14.6657 11.8823L14.2919 12.3704C14.1444 12.563 14.1809 12.8385 14.3735 12.986C14.5661 13.1335 14.8417 13.097 14.9892 12.9044L15.363 12.4164L15.8511 12.7902C16.0437 12.9377 16.3192 12.9012 16.4667 12.7086C16.6142 12.516 16.5777 12.2404 16.3851 12.0929Z" fill="white"/>
<path d="M31.5633 15.3854L31.1682 15.0828L31.4709 14.6877C31.6184 14.4951 31.5818 14.2195 31.3892 14.072C31.1967 13.9245 30.9211 13.961 30.7736 14.1536L30.471 14.5487L30.0759 14.2461C29.8833 14.0986 29.6077 14.1351 29.4602 14.3277C29.3127 14.5203 29.3493 14.7959 29.5418 14.9434L29.9369 15.246L29.6343 15.6411C29.4868 15.8337 29.5234 16.1092 29.7159 16.2567C29.9085 16.4042 30.1841 16.3677 30.3316 16.1751L30.6342 15.78L31.0293 16.0826C31.2219 16.2301 31.4975 16.1936 31.645 16.001C31.7925 15.8084 31.7559 15.5329 31.5633 15.3854Z" fill="white"/>
<path d="M20.3514 6.81911C20.5303 6.88531 20.5303 7.13833 20.3514 7.20453L19.311 7.5895C19.2548 7.61031 19.2104 7.65466 19.1896 7.7109L18.8046 8.75128C18.7384 8.93018 18.4854 8.93018 18.4192 8.75128L18.0342 7.7109C18.0134 7.65466 17.9691 7.61031 17.9128 7.5895L16.8725 7.20453C16.6936 7.13833 16.6936 6.88531 16.8725 6.81911L17.9128 6.43413C17.9691 6.41332 18.0134 6.36898 18.0342 6.31274L18.4192 5.27235C18.4854 5.09346 18.7384 5.09346 18.8046 5.27235L19.1896 6.31274C19.2104 6.36898 19.2548 6.41332 19.311 6.43413L20.3514 6.81911Z" fill="white"/>
<path d="M24.1014 26.8045C24.2803 26.8707 24.2803 27.1237 24.1014 27.1899L23.061 27.5749C23.0048 27.5957 22.9604 27.64 22.9396 27.6963L22.5546 28.7366C22.4884 28.9155 22.2354 28.9155 22.1692 28.7366L21.7842 27.6963C21.7634 27.64 21.7191 27.5957 21.6628 27.5749L20.6225 27.1899C20.4436 27.1237 20.4436 26.8707 20.6225 26.8045L21.6628 26.4195C21.7191 26.3987 21.7634 26.3543 21.7842 26.2981L22.1692 25.2577C22.2354 25.0788 22.4884 25.0788 22.5546 25.2577L22.9396 26.2981C22.9604 26.3543 23.0048 26.3987 23.061 26.4195L24.1014 26.8045Z" fill="white"/>
<defs>
<linearGradient id="paint0_linear_8696_171240" x1="18.7273" y1="0.640137" x2="18.7273" y2="38.0947" gradientUnits="userSpaceOnUse">
<stop stop-color="#FF0049"/>
<stop offset="0.25" stop-color="#FFBE3B"/>
<stop offset="0.5" stop-color="#00BB5C"/>
<stop offset="0.75" stop-color="#187DC4"/>
<stop offset="1" stop-color="#58268B"/>
</linearGradient>
</defs>
</svg>
