<svg width="29" height="28" viewBox="0 0 29 28" fill="none" xmlns="http://www.w3.org/2000/svg">
<g clip-path="url(#clip0_8696_171219)">
<path d="M8.60156 4.36168V23.6379C8.60442 23.7918 8.64778 23.9421 8.72728 24.0738C8.80678 24.2055 8.9196 24.314 9.05437 24.3882C9.18914 24.4624 9.34109 24.4997 9.4949 24.4965C9.64872 24.4932 9.79896 24.4495 9.93047 24.3696L25.6892 14.7315C25.8151 14.6553 25.9192 14.548 25.9914 14.4198C26.0637 14.2916 26.1016 14.1469 26.1016 13.9998C26.1016 13.8527 26.0637 13.708 25.9914 13.5798C25.9192 13.4517 25.8151 13.3443 25.6892 13.2681L9.93047 3.62996C9.79896 3.55013 9.64872 3.50638 9.4949 3.50313C9.34109 3.49987 9.18914 3.53723 9.05437 3.61144C8.9196 3.68565 8.80678 3.79407 8.72728 3.92579C8.64778 4.05751 8.60442 4.20786 8.60156 4.36168Z" fill="white" stroke="white" stroke-width="2" stroke-linecap="round" stroke-linejoin="round"/>
</g>
<defs>
<clipPath id="clip0_8696_171219">
<rect width="28" height="28" fill="white" transform="translate(0.726562)"/>
</clipPath>
</defs>
</svg>
