<svg width="29" height="25" viewBox="0 0 29 25" fill="none" xmlns="http://www.w3.org/2000/svg">
<path d="M26.4866 4.48H4.08656C3.78952 4.48 3.50464 4.362 3.2946 4.15196C3.08456 3.94192 2.96656 3.65704 2.96656 3.36C2.96656 3.06296 3.08456 2.77808 3.2946 2.56804C3.50464 2.358 3.78952 2.24 4.08656 2.24H23.1266C23.4236 2.24 23.7085 2.122 23.9185 1.91196C24.1286 1.70192 24.2466 1.41704 24.2466 1.12C24.2466 0.822958 24.1286 0.538081 23.9185 0.328041C23.7085 0.118 23.4236 0 23.1266 0H4.08656C3.19544 0 2.34081 0.353999 1.71068 0.984121C1.08056 1.61424 0.726563 2.46887 0.726562 3.36V21.28C0.726562 22.1711 1.08056 23.0258 1.71068 23.6559C2.34081 24.286 3.19544 24.64 4.08656 24.64H26.4866C27.0806 24.64 27.6504 24.404 28.0705 23.9839C28.4906 23.5638 28.7266 22.9941 28.7266 22.4V6.72C28.7266 6.12592 28.4906 5.55616 28.0705 5.13608C27.6504 4.716 27.0806 4.48 26.4866 4.48ZM26.4866 22.4H4.08656C3.78952 22.4 3.50464 22.282 3.2946 22.072C3.08456 21.8619 2.96656 21.577 2.96656 21.28V6.5282C3.32619 6.65568 3.70501 6.72056 4.08656 6.72H26.4866V22.4ZM19.7666 14C19.7666 13.6677 19.8651 13.3429 20.0497 13.0666C20.2343 12.7904 20.4967 12.575 20.8037 12.4479C21.1106 12.3207 21.4484 12.2875 21.7743 12.3523C22.1002 12.4171 22.3995 12.5771 22.6345 12.8121C22.8695 13.047 23.0295 13.3464 23.0943 13.6722C23.1591 13.9981 23.1258 14.3359 22.9987 14.6429C22.8715 14.9499 22.6562 15.2123 22.3799 15.3969C22.1036 15.5815 21.7788 15.68 21.4466 15.68C21.001 15.68 20.5737 15.503 20.2586 15.1879C19.9436 14.8729 19.7666 14.4456 19.7666 14Z" fill="white"/>
</svg>
