<svg width="32" height="31" viewBox="0 0 32 31" fill="none" xmlns="http://www.w3.org/2000/svg">
<path d="M16 0C12.8355 0 9.74207 0.909059 7.11088 2.61222C4.4797 4.31538 2.42894 6.73615 1.21793 9.56841C0.00693259 12.4007 -0.309921 15.5172 0.307443 18.5239C0.924806 21.5306 2.44866 24.2924 4.6863 26.4602C6.92394 28.6279 9.77486 30.1041 12.8786 30.7022C15.9823 31.3002 19.1993 30.9933 22.1229 29.8201C25.0466 28.647 27.5454 26.6603 29.3035 24.1113C31.0616 21.5624 32 18.5656 32 15.5C31.9955 11.3905 30.3084 7.45051 27.3088 4.54464C24.3091 1.63876 20.2421 0.00433973 16 0ZM29.5385 15.5C29.5416 18.5665 28.4299 21.5362 26.3985 23.8879L7.34154 5.425C9.31846 3.83174 11.7229 2.81689 14.2735 2.49919C16.8241 2.1815 19.4153 2.5741 21.744 3.63106C24.0727 4.68802 26.0424 6.36562 27.4228 8.46755C28.8031 10.5695 29.537 13.0088 29.5385 15.5ZM2.46154 15.5C2.45839 12.4335 3.57008 9.46383 5.60154 7.11211L24.6585 25.575C22.6815 27.1683 20.2771 28.1831 17.7265 28.5008C15.1759 28.8185 12.5847 28.4259 10.256 27.3689C7.92733 26.312 5.95757 24.6344 4.57722 22.5325C3.19686 20.4305 2.46301 17.9912 2.46154 15.5Z" fill="#E95050"/>
</svg>
