<svg width="175" height="50" viewBox="0 0 175 50" fill="none" xmlns="http://www.w3.org/2000/svg">
<path d="M13.4863 38.9559C9.95181 38.9559 7.0469 37.7991 4.77157 35.4855C2.47415 33.1499 1.32544 30.3186 1.32544 26.9915C1.32544 23.6643 2.47415 20.833 4.77157 18.4974C7.0469 16.1838 9.95181 15.027 13.4863 15.027C15.607 15.027 17.562 15.5448 19.3514 16.5804C21.1407 17.594 22.5324 18.9711 23.5265 20.7118L21.4721 21.9016C20.7431 20.4915 19.6606 19.3677 18.2247 18.5304C16.7889 17.6931 15.2094 17.2745 13.4863 17.2745C10.5703 17.2745 8.20666 18.2109 6.39523 20.0838C4.56171 21.9787 3.64495 24.2813 3.64495 26.9915C3.64495 29.7016 4.56171 32.0042 6.39523 33.8991C8.20666 35.772 10.5703 36.7084 13.4863 36.7084C15.2094 36.7084 16.7889 36.2898 18.2247 35.4525C19.6606 34.6152 20.7431 33.4915 21.4721 32.0813L23.5265 33.2381C22.5766 34.9787 21.1959 36.3669 19.3845 37.4025C17.5731 38.4381 15.607 38.9559 13.4863 38.9559ZM40.7318 36.477C39.0308 38.1296 36.9764 38.9559 34.5685 38.9559C32.1164 38.9559 30.051 38.1296 28.3721 36.477C26.6932 34.8025 25.8538 32.7423 25.8538 30.2965C25.8538 27.8508 26.6932 25.8016 28.3721 24.1491C30.051 22.4745 32.1164 21.6372 34.5685 21.6372C36.9985 21.6372 39.0529 22.4745 40.7318 24.1491C42.4328 25.8016 43.2831 27.8508 43.2831 30.2965C43.2831 32.7203 42.4328 34.7804 40.7318 36.477ZM29.9295 34.9567C31.1886 36.2126 32.735 36.8406 34.5685 36.8406C36.402 36.8406 37.9484 36.2126 39.2075 34.9567C40.4667 33.6567 41.0963 32.1033 41.0963 30.2965C41.0963 28.4677 40.4667 26.9254 39.2075 25.6694C37.9484 24.3915 36.402 23.7525 34.5685 23.7525C32.735 23.7525 31.1886 24.3915 29.9295 25.6694C28.6703 26.9254 28.0407 28.4677 28.0407 30.2965C28.0407 32.1033 28.6703 33.6567 29.9295 34.9567ZM49.1299 38.5592H46.9429V14.4321H49.1299V38.5592ZM67.6545 36.477C65.9536 38.1296 63.8991 38.9559 61.4913 38.9559C59.0392 38.9559 56.9737 38.1296 55.2949 36.477C53.616 34.8025 52.7765 32.7423 52.7765 30.2965C52.7765 27.8508 53.616 25.8016 55.2949 24.1491C56.9737 22.4745 59.0392 21.6372 61.4913 21.6372C63.9212 21.6372 65.9757 22.4745 67.6545 24.1491C69.3555 25.8016 70.206 27.8508 70.206 30.2965C70.206 32.7203 69.3555 34.7804 67.6545 36.477ZM56.8523 34.9567C58.1114 36.2126 59.6578 36.8406 61.4913 36.8406C63.3248 36.8406 64.8711 36.2126 66.1303 34.9567C67.3895 33.6567 68.0191 32.1033 68.0191 30.2965C68.0191 28.4677 67.3895 26.9254 66.1303 25.6694C64.8711 24.3915 63.3248 23.7525 61.4913 23.7525C59.6578 23.7525 58.1114 24.3915 56.8523 25.6694C55.5931 26.9254 54.9635 28.4677 54.9635 30.2965C54.9635 32.1033 55.5931 33.6567 56.8523 34.9567ZM91.5273 21.6372C93.405 21.6372 94.9071 22.2321 96.0337 23.422C97.1603 24.6118 97.7237 26.2203 97.7237 28.2474V38.5592H95.5367V28.2474C95.5367 26.8372 95.1722 25.7355 94.4432 24.9423C93.7142 24.1491 92.7312 23.7525 91.4941 23.7525C90.0582 23.7525 88.9316 24.2262 88.1143 25.1737C87.2969 26.1211 86.8882 27.5313 86.8882 29.4042V38.5592H84.7013V28.2474C84.7013 26.8152 84.3589 25.7135 83.674 24.9423C82.9892 24.1491 82.0393 23.7525 80.8244 23.7525C79.4327 23.7525 78.2839 24.2372 77.3782 25.2067C76.4946 26.1762 76.0528 27.5753 76.0528 29.4042V38.5592H73.8658V22.0338H76.0528V24.4465C77.2457 22.5737 78.9356 21.6372 81.1226 21.6372C83.5305 21.6372 85.2093 22.6398 86.1592 24.6448C87.3521 22.6398 89.1415 21.6372 91.5273 21.6372ZM110.834 21.6372C113.198 21.6372 115.208 22.4745 116.865 24.1491C118.544 25.8237 119.383 27.8728 119.383 30.2965C119.383 32.7203 118.544 34.7694 116.865 36.444C115.208 38.1186 113.198 38.9559 110.834 38.9559C107.896 38.9559 105.665 37.744 104.141 35.3203V38.5592H101.954V15.4237H104.141V25.2728C105.665 22.8491 107.896 21.6372 110.834 21.6372ZM106.029 34.9567C107.288 36.2126 108.835 36.8406 110.668 36.8406C112.502 36.8406 114.048 36.2126 115.307 34.9567C116.567 33.6567 117.196 32.1033 117.196 30.2965C117.196 28.4677 116.567 26.9254 115.307 25.6694C114.048 24.3915 112.502 23.7525 110.668 23.7525C108.835 23.7525 107.288 24.3915 106.029 25.6694C104.77 26.9254 104.141 28.4677 104.141 30.2965C104.141 32.1033 104.77 33.6567 106.029 34.9567ZM136.903 36.477C135.202 38.1296 133.148 38.9559 130.74 38.9559C128.288 38.9559 126.223 38.1296 124.544 36.477C122.865 34.8025 122.025 32.7423 122.025 30.2965C122.025 27.8508 122.865 25.8016 124.544 24.1491C126.223 22.4745 128.288 21.6372 130.74 21.6372C133.17 21.6372 135.225 22.4745 136.903 24.1491C138.604 25.8016 139.455 27.8508 139.455 30.2965C139.455 32.7203 138.604 34.7804 136.903 36.477ZM126.101 34.9567C127.36 36.2126 128.907 36.8406 130.74 36.8406C132.574 36.8406 134.12 36.2126 135.379 34.9567C136.638 33.6567 137.268 32.1033 137.268 30.2965C137.268 28.4677 136.638 26.9254 135.379 25.6694C134.12 24.3915 132.574 23.7525 130.74 23.7525C128.907 23.7525 127.36 24.3915 126.101 25.6694C124.842 26.9254 124.212 28.4677 124.212 30.2965C124.212 32.1033 124.842 33.6567 126.101 34.9567Z" fill="#101010"/>
<path d="M162.83 38.5594H157.86L156.468 34.395H147.223L145.832 38.5594H140.895L149.013 15.4238H154.679L162.83 38.5594ZM151.863 20.6789L148.681 30.1315H155.044L151.863 20.6789Z" fill="#1E71F2"/>
<path d="M165.083 38.5594V15.4238H169.655V38.5594H165.083Z" fill="url(#paint0_linear_2939_128208)"/>
<path d="M166.582 2.14809C166.856 1.41027 167.902 1.41027 168.176 2.14809L169.079 4.58329C169.165 4.81524 169.348 4.99812 169.581 5.08397L172.023 5.98507C172.762 6.25808 172.762 7.30164 172.023 7.57465L169.581 8.47575C169.348 8.5616 169.165 8.74448 169.079 8.97643L168.176 11.4116C167.902 12.1494 166.856 12.1494 166.582 11.4116L165.679 8.97643C165.592 8.74448 165.409 8.5616 165.177 8.47575L162.735 7.57465C161.996 7.30164 161.996 6.25808 162.735 5.98507L165.177 5.08397C165.409 4.99812 165.592 4.81524 165.679 4.58329L166.582 2.14809Z" fill="url(#paint1_linear_2939_128208)"/>
<defs>
<linearGradient id="paint0_linear_2939_128208" x1="86.0258" y1="8.89841" x2="86.0258" y2="50.0001" gradientUnits="userSpaceOnUse">
<stop stop-color="#1E71F2" stop-opacity="0"/>
<stop offset="0.713542" stop-color="#1E71F2"/>
</linearGradient>
<linearGradient id="paint1_linear_2939_128208" x1="167.379" y1="0.000201259" x2="167.379" y2="13.5595" gradientUnits="userSpaceOnUse">
<stop stop-color="#1E71F2"/>
<stop offset="0.5" stop-color="#1E71F2" stop-opacity="0.5"/>
<stop offset="1" stop-color="#1E71F2" stop-opacity="0.2"/>
</linearGradient>
</defs>
</svg>
