<svg width="100" height="100" viewBox="0 0 100 100" fill="none" xmlns="http://www.w3.org/2000/svg">
<path fill-rule="evenodd" clip-rule="evenodd" d="M59.6818 29.187H40.2148C33.4377 29.187 29.1875 33.9885 29.1875 40.7835V59.112C29.1875 65.907 33.4198 70.7085 40.2148 70.7085H59.6705C66.4768 70.7085 70.7067 65.907 70.7067 59.112V40.7835C70.7157 33.9885 66.4835 29.187 59.6818 29.187Z" stroke="#D1D1D1" stroke-width="4" stroke-linecap="round" stroke-linejoin="round"/>
<path fill-rule="evenodd" clip-rule="evenodd" d="M47.0824 42.7663C47.0824 45.0613 45.2239 46.9198 42.9289 46.9198C40.6361 46.9198 38.7754 45.0613 38.7754 42.7663C38.7754 40.4713 40.6361 38.6128 42.9289 38.6128C45.2216 38.615 47.0801 40.4735 47.0824 42.7663Z" stroke="#D1D1D1" stroke-width="4" stroke-linecap="round" stroke-linejoin="round"/>
<path d="M70.7158 56.6398C68.639 54.5023 64.6453 50.1846 60.3028 50.1846C55.958 50.1846 53.4537 59.7088 49.2755 59.7088C45.0972 59.7088 41.3015 55.4023 37.9535 58.1631C34.6055 60.9216 31.4375 66.5623 31.4375 66.5623" stroke="#D1D1D1" stroke-width="4" stroke-linecap="round" stroke-linejoin="round"/>
<circle cx="50" cy="50" r="46" stroke="#D1D1D1" stroke-width="8"/>
<line x1="11.0716" y1="78.7019" x2="84.6119" y2="16.9943" stroke="#D1D1D1" stroke-width="6"/>
</svg>
