<svg width="100" height="100" viewBox="0 0 100 100" fill="none" xmlns="http://www.w3.org/2000/svg">
<path d="M62.51 58C61.715 58 60.92 57.2 60.92 56.4C60.92 55.6 61.715 54.8 62.51 54.8C63.305 54.8 64.1 55.6 64.1 56.4C64.1 57.2 63.305 58 62.51 58ZM79.47 62.8L69.93 53.2C69.4 52.9333 68.87 52.6667 68.34 52.6667H60.92C59.86 52.6667 58.8 53.7333 58.8 54.8V62.2667C58.8 62.8 59.065 63.3333 59.33 63.8667L68.87 73.4667C69.135 73.7333 69.665 74 70.46 74C71.255 74 71.52 73.7333 72.05 73.4667L79.47 66C79.735 65.7333 80 65.2 80 64.4C80 63.8667 79.735 63.3333 79.47 62.8ZM48.2 26C42.37 26 37.6 30.8 37.6 36.6667C37.6 42.5333 42.37 47.3333 48.2 47.3333C54.03 47.3333 58.8 42.5333 58.8 36.6667C58.8 30.8 54.03 26 48.2 26ZM48.2 31.3333C51.115 31.3333 53.5 33.7333 53.5 36.6667C53.5 39.6 51.115 42 48.2 42C45.285 42 42.9 39.6 42.9 36.6667C42.9 33.7333 45.285 31.3333 48.2 31.3333ZM48.2 50C41.045 50 27 53.4667 27 60.6667V68.6667H56.68L55.62 67.6C54.56 66.5333 53.765 65.2 53.5 63.6H32.035V60.6667C32.035 59.0667 40.25 55.0667 48.2 55.0667C50.055 55.0667 51.91 55.3333 53.5 55.6V54.8C53.5 53.2 54.03 51.8667 54.825 50.8C52.44 50.2667 50.055 50 48.2 50Z" fill="#D1D1D1"/>
<circle cx="50" cy="50" r="46" stroke="#D1D1D1" stroke-width="8"/>
<line x1="11.0716" y1="78.7019" x2="84.6119" y2="16.9943" stroke="#D1D1D1" stroke-width="6"/>
</svg>
