<svg width="100" height="100" viewBox="0 0 100 100" fill="none" xmlns="http://www.w3.org/2000/svg">
<path d="M65.5507 65.9999H42.7663C39.9287 65.9999 37.0996 64.7816 35.0046 62.6573C32.8605 60.4832 31.6797 57.6451 31.6797 54.6656C31.6807 53.2651 31.9526 51.8791 32.4792 50.5895C33.0059 49.2998 33.7766 48.1328 34.7457 47.1574C36.3383 45.5435 38.3556 44.454 40.5438 44.0259V43.7872C40.5438 36.1851 46.5086 30 53.84 30C61.1713 30 67.1361 36.1851 67.1361 43.7872V43.9263C72.2806 44.6864 76.0002 49.0706 76.0002 54.6656C76.0002 57.6595 74.9499 60.4792 73.0427 62.6054C72.0898 63.6798 70.9314 64.5365 69.6415 65.1209C68.3516 65.7054 66.9584 66.0047 65.5507 65.9999ZM53.84 33.0638C51.0982 33.067 48.4696 34.1979 46.5309 36.2082C44.5921 38.2185 43.5016 40.9442 43.4985 43.7872V46.7941L42.126 46.8955C37.9248 47.2056 34.6344 50.6187 34.6344 54.6656C34.6344 59.0714 38.4343 62.9361 42.7663 62.9361H65.5507C69.7533 62.9361 73.0455 59.3033 73.0455 54.6656C73.0455 50.2072 69.931 46.9303 65.6403 46.874L64.1814 46.8549V43.7872C64.1783 40.9442 63.0878 38.2185 61.1491 36.2082C59.2103 34.1979 56.5817 33.067 53.84 33.0638Z" fill="#D1D1D1"/>
<path d="M26.3125 67.6382C28.7281 67.6382 30.625 65.6182 30.625 63.2034C30.625 60.7886 28.7281 58.7686 26.3125 58.7686C23.8969 58.7686 22 60.7886 22 63.2034C22 65.6182 23.8969 67.6382 26.3125 67.6382Z" stroke="#D1D1D1" stroke-width="2"/>
<circle cx="50" cy="50" r="46" stroke="#D1D1D1" stroke-width="8"/>
<line x1="11.0716" y1="78.7019" x2="84.6119" y2="16.9943" stroke="#D1D1D1" stroke-width="6"/>
</svg>
