<svg width="100" height="100" viewBox="0 0 100 100" fill="none" xmlns="http://www.w3.org/2000/svg">
<path d="M64.9183 30.0625H31.4567C30.1255 30.0625 28.8489 30.5913 27.9076 31.5326C26.9663 32.4739 26.4375 33.7505 26.4375 35.0817V58.5048C26.4375 59.836 26.9663 61.1127 27.9076 62.0539C28.8489 62.9952 30.1255 63.524 31.4567 63.524H64.9183C66.2495 63.524 67.5261 62.9952 68.4674 62.0539C69.4087 61.1127 69.9375 59.836 69.9375 58.5048V35.0817C69.9375 33.7505 69.4087 32.4739 68.4674 31.5326C67.5261 30.5913 66.2495 30.0625 64.9183 30.0625ZM66.5913 58.5048C66.5913 58.9485 66.4151 59.3741 66.1013 59.6879C65.7876 60.0016 65.362 60.1779 64.9183 60.1779H31.4567C31.013 60.1779 30.5874 60.0016 30.2737 59.6879C29.9599 59.3741 29.7837 58.9485 29.7837 58.5048V35.0817C29.7837 34.638 29.9599 34.2125 30.2737 33.8987C30.5874 33.5849 31.013 33.4087 31.4567 33.4087H64.9183C65.362 33.4087 65.7876 33.5849 66.1013 33.8987C66.4151 34.2125 66.5913 34.638 66.5913 35.0817V58.5048ZM56.5529 68.5433C56.5529 68.987 56.3766 69.4126 56.0629 69.7263C55.7491 70.0401 55.3235 70.2163 54.8798 70.2163H41.4952C41.0515 70.2163 40.6259 70.0401 40.3121 69.7263C39.9984 69.4126 39.8221 68.987 39.8221 68.5433C39.8221 68.0995 39.9984 67.674 40.3121 67.3602C40.6259 67.0465 41.0515 66.8702 41.4952 66.8702H54.8798C55.3235 66.8702 55.7491 67.0465 56.0629 67.3602C56.3766 67.674 56.5529 68.0995 56.5529 68.5433ZM55.8084 45.4004L45.7699 38.7081C45.5179 38.54 45.2249 38.4434 44.9223 38.4288C44.6197 38.4141 44.3188 38.4819 44.0517 38.6249C43.7846 38.7679 43.5613 38.9807 43.4057 39.2407C43.2501 39.5007 43.1681 39.798 43.1683 40.101V53.4856C43.1681 53.7885 43.2501 54.0859 43.4057 54.3459C43.5613 54.6058 43.7846 54.8187 44.0517 54.9617C44.3188 55.1047 44.6197 55.1724 44.9223 55.1578C45.2249 55.1431 45.5179 55.0466 45.7699 54.8784L55.8084 48.1861C56.0379 48.0334 56.2261 47.8263 56.3562 47.5833C56.4864 47.3403 56.5545 47.0689 56.5545 46.7933C56.5545 46.5176 56.4864 46.2462 56.3562 46.0032C56.2261 45.7602 56.0379 45.5532 55.8084 45.4004ZM46.5144 50.359V43.238L51.8641 46.7933L46.5144 50.359Z" fill="#D1D1D1"/>
<circle cx="50" cy="50" r="46" stroke="#D1D1D1" stroke-width="8"/>
<line x1="11.0716" y1="78.7019" x2="84.6119" y2="16.9943" stroke="#D1D1D1" stroke-width="6"/>
</svg>
