<svg width="9" height="11" viewBox="0 0 9 11" fill="none" xmlns="http://www.w3.org/2000/svg">
<path d="M8.33333 5.5C8.33364 5.63058 8.30067 5.75903 8.23761 5.87284C8.17455 5.98665 8.08356 6.08196 7.97348 6.14949L1.15151 10.3868C1.0365 10.4583 0.904766 10.4973 0.769923 10.4999C0.63508 10.5024 0.502014 10.4683 0.38447 10.4012C0.268044 10.3351 0.171059 10.2387 0.103487 10.122C0.0359145 10.0052 0.000194535 9.87225 0 9.73682V1.26318C0.000194535 1.12775 0.0359145 0.994814 0.103487 0.878045C0.171059 0.761275 0.268044 0.664887 0.38447 0.598793C0.502014 0.531656 0.63508 0.497596 0.769923 0.500132C0.904766 0.502667 1.0365 0.541706 1.15151 0.613215L7.97348 4.85051C8.08356 4.91804 8.17455 5.01335 8.23761 5.12716C8.30067 5.24097 8.33364 5.36942 8.33333 5.5Z" fill="white"/>
</svg>
