<svg width="32" height="34" viewBox="0 0 32 34" fill="none" xmlns="http://www.w3.org/2000/svg">
<path d="M15.8369 2.32483C12.7727 2.32483 9.77722 3.23349 7.22938 4.9359C4.68154 6.63831 2.69575 9.05801 1.5231 11.889C0.350463 14.72 0.0436464 17.8352 0.641454 20.8406C1.23926 23.846 2.71484 26.6066 4.8816 28.7733C7.04836 30.9401 9.80898 32.4157 12.8144 33.0135C15.8197 33.6113 18.9349 33.3045 21.7659 32.1318C24.5969 30.9592 27.0166 28.9734 28.719 26.4255C30.4214 23.8777 31.3301 20.8823 31.3301 17.818C31.3258 13.7103 29.6921 9.77206 26.7875 6.86747C23.8829 3.96287 19.9446 2.32917 15.8369 2.32483ZM7.80432 28.1716C8.66647 26.8232 9.85419 25.7136 11.258 24.9449C12.6618 24.1763 14.2365 23.7734 15.8369 23.7734C17.4374 23.7734 19.0121 24.1763 20.4159 24.9449C21.8197 25.7136 23.0074 26.8232 23.8695 28.1716C21.5729 29.9578 18.7464 30.9275 15.8369 30.9275C12.9275 30.9275 10.101 29.9578 7.80432 28.1716ZM11.0698 16.6262C11.0698 15.6834 11.3494 14.7617 11.8732 13.9777C12.397 13.1938 13.1415 12.5828 14.0126 12.222C14.8837 11.8612 15.8422 11.7667 16.767 11.9507C17.6917 12.1346 18.5411 12.5887 19.2078 13.2554C19.8745 13.922 20.3285 14.7715 20.5125 15.6962C20.6964 16.6209 20.602 17.5794 20.2412 18.4505C19.8804 19.3216 19.2694 20.0661 18.4854 20.5899C17.7015 21.1138 16.7798 21.3934 15.8369 21.3934C14.5726 21.3934 13.3601 20.8911 12.4661 19.9971C11.5721 19.1031 11.0698 17.8905 11.0698 16.6262ZM25.6334 26.5195C24.3042 24.5934 22.4352 23.1033 20.2614 22.2365C21.4291 21.3168 22.2812 20.0561 22.6991 18.6297C23.1171 17.2034 23.0801 15.6822 22.5935 14.2777C22.1068 12.8733 21.1946 11.6554 19.9836 10.7935C18.7727 9.93152 17.3233 9.46834 15.8369 9.46834C14.3506 9.46834 12.9011 9.93152 11.6902 10.7935C10.4793 11.6554 9.56707 12.8733 9.0804 14.2777C8.59373 15.6822 8.5568 17.2034 8.97475 18.6297C9.39271 20.0561 10.2448 21.3168 11.4124 22.2365C9.23865 23.1033 7.36966 24.5934 6.04048 26.5195C4.36091 24.6308 3.26313 22.2968 2.87934 19.7986C2.49555 17.3004 2.8421 14.7445 3.87727 12.4387C4.91244 10.1329 6.59208 8.17555 8.71395 6.80226C10.8358 5.42897 13.3094 4.69833 15.8369 4.69833C18.3644 4.69833 20.838 5.42897 22.9599 6.80226C25.0818 8.17555 26.7614 10.1329 27.7966 12.4387C28.8318 14.7445 29.1783 17.3004 28.7945 19.7986C28.4107 22.2968 27.313 24.6308 25.6334 26.5195Z" fill="#E95050"/>
<line y1="-0.5" x2="44.502" y2="-0.5" transform="matrix(-0.67223 0.740342 -0.742211 -0.670166 30.6958 0)" stroke="#E95050"/>
</svg>
