<svg width="20" height="21" viewBox="0 0 20 21" fill="none" xmlns="http://www.w3.org/2000/svg">
<path d="M20 10.5005L17.7818 7.96417L18.0909 4.60962L14.8091 3.86417L13.0909 0.955078L10 2.28235L6.90909 0.955078L5.19091 3.85508L1.90909 4.59144L2.21818 7.95508L0 10.5005L2.21818 13.0369L1.90909 16.4005L5.19091 17.146L6.90909 20.046L10 18.7096L13.0909 20.0369L14.8091 17.1369L18.0909 16.3914L17.7818 13.0369L20 10.5005ZM7.61818 14.146L5.45455 11.9642C5.1 11.6096 5.1 11.0369 5.45455 10.6824L5.51818 10.6187C5.87273 10.2642 6.45455 10.2642 6.80909 10.6187L8.27273 12.0914L12.9545 7.40053C13.3091 7.04599 13.8909 7.04599 14.2455 7.40053L14.3091 7.46417C14.6636 7.81871 14.6636 8.39144 14.3091 8.74599L8.92727 14.146C8.55455 14.5005 7.98182 14.5005 7.61818 14.146Z" fill="#1E71F2"/>
</svg>
