<svg width="29" height="29" viewBox="0 0 29 29" fill="none" xmlns="http://www.w3.org/2000/svg">
<g clip-path="url(#clip0_4774_37955)">
<path d="M14.2063 15.6011C14.9312 15.6011 15.5188 15.0134 15.5188 14.2886C15.5188 13.5637 14.9312 12.9761 14.2063 12.9761C13.4814 12.9761 12.8938 13.5637 12.8938 14.2886C12.8938 15.0134 13.4814 15.6011 14.2063 15.6011Z" fill="white"/>
<path d="M9.3938 15.6011C10.1187 15.6011 10.7063 15.0134 10.7063 14.2886C10.7063 13.5637 10.1187 12.9761 9.3938 12.9761C8.66893 12.9761 8.0813 13.5637 8.0813 14.2886C8.0813 15.0134 8.66893 15.6011 9.3938 15.6011Z" fill="white"/>
<path d="M19.0188 15.6011C19.7437 15.6011 20.3313 15.0134 20.3313 14.2886C20.3313 13.5637 19.7437 12.9761 19.0188 12.9761C18.2939 12.9761 17.7063 13.5637 17.7063 14.2886C17.7063 15.0134 18.2939 15.6011 19.0188 15.6011Z" fill="white"/>
<path d="M8.94862 23.3787C11.1542 24.6552 13.7487 25.0861 16.2485 24.5909C18.7483 24.0957 20.9827 22.7083 22.5351 20.6874C24.0875 18.6665 24.8519 16.15 24.6859 13.6071C24.5199 11.0641 23.4348 8.66836 21.6328 6.86641C19.8309 5.06446 17.4351 3.97933 14.8922 3.81333C12.3493 3.64733 9.83274 4.41179 7.81183 5.96419C5.79091 7.51659 4.40353 9.75097 3.90835 12.2507C3.41318 14.7505 3.844 17.345 5.1205 19.5506L3.75222 23.6358C3.7008 23.79 3.69334 23.9554 3.73067 24.1136C3.768 24.2717 3.84864 24.4164 3.96356 24.5313C4.07848 24.6462 4.22313 24.7269 4.3813 24.7642C4.53948 24.8015 4.70492 24.7941 4.85909 24.7427L8.94862 23.3787Z" stroke="white" stroke-width="2" stroke-linecap="round" stroke-linejoin="round"/>
</g>
<defs>
<clipPath id="clip0_4774_37955">
<rect width="28" height="28" fill="white" transform="translate(0.206299 0.288574)"/>
</clipPath>
</defs>
</svg>
