<svg width="29" height="29" viewBox="0 0 29 29" fill="none" xmlns="http://www.w3.org/2000/svg">
<g clip-path="url(#clip0_4774_37947)">
<path d="M8.0813 4.65025V23.9265C8.08416 24.0803 8.12752 24.2307 8.20702 24.3624C8.28652 24.4941 8.39934 24.6025 8.53411 24.6767C8.66887 24.7509 8.82083 24.7883 8.97464 24.7851C9.12846 24.7818 9.27869 24.7381 9.41021 24.6582L25.169 15.0201C25.2948 14.9439 25.3989 14.8365 25.4712 14.7084C25.5434 14.5802 25.5814 14.4355 25.5814 14.2884C25.5814 14.1412 25.5434 13.9966 25.4712 13.8684C25.3989 13.7402 25.2948 13.6328 25.169 13.5567L9.41021 3.91854C9.27869 3.8387 9.12846 3.79495 8.97464 3.7917C8.82083 3.78845 8.66887 3.82581 8.53411 3.90002C8.39934 3.97422 8.28652 4.08265 8.20702 4.21437C8.12752 4.34608 8.08416 4.49643 8.0813 4.65025Z" fill="white" stroke="white" stroke-width="2" stroke-linecap="round" stroke-linejoin="round"/>
</g>
<defs>
<clipPath id="clip0_4774_37947">
<rect width="28" height="28" fill="white" transform="translate(0.206299 0.288574)"/>
</clipPath>
</defs>
</svg>
