<svg width="32" height="32" viewBox="0 0 32 32" fill="none" xmlns="http://www.w3.org/2000/svg">
<g clip-path="url(#clip0_4774_37415)">
<path d="M16 17.5C16.8284 17.5 17.5 16.8284 17.5 16C17.5 15.1716 16.8284 14.5 16 14.5C15.1716 14.5 14.5 15.1716 14.5 16C14.5 16.8284 15.1716 17.5 16 17.5Z" fill="#ACACAC"/>
<path d="M10.5 17.5C11.3284 17.5 12 16.8284 12 16C12 15.1716 11.3284 14.5 10.5 14.5C9.67157 14.5 9 15.1716 9 16C9 16.8284 9.67157 17.5 10.5 17.5Z" fill="#ACACAC"/>
<path d="M21.5 17.5C22.3284 17.5 23 16.8284 23 16C23 15.1716 22.3284 14.5 21.5 14.5C20.6716 14.5 20 15.1716 20 16C20 16.8284 20.6716 17.5 21.5 17.5Z" fill="#ACACAC"/>
<path d="M9.99121 26.3889C12.5119 27.8478 15.4771 28.3401 18.3339 27.7742C21.1908 27.2083 23.7444 25.6227 25.5186 23.3131C27.2927 21.0035 28.1664 18.1275 27.9767 15.2213C27.787 12.3151 26.5468 9.57703 24.4875 7.51766C22.4281 5.45829 19.6901 4.21814 16.7839 4.02843C13.8776 3.83872 11.0016 4.71239 8.69202 6.48656C6.3824 8.26073 4.79682 10.8143 4.2309 13.6712C3.66499 16.5281 4.15735 19.4932 5.61621 22.0139L4.05246 26.6827C3.9937 26.8589 3.98517 27.0479 4.02783 27.2287C4.07049 27.4095 4.16266 27.5748 4.29399 27.7061C4.42533 27.8375 4.59064 27.9296 4.77141 27.9723C4.95218 28.0149 5.14126 28.0064 5.31746 27.9477L9.99121 26.3889Z" stroke="#ACACAC" stroke-width="2" stroke-linecap="round" stroke-linejoin="round"/>
</g>
<defs>
<clipPath id="clip0_4774_37415">
<rect width="32" height="32" fill="white"/>
</clipPath>
</defs>
</svg>
