<svg width="72" height="72" viewBox="0 0 72 72" fill="none" xmlns="http://www.w3.org/2000/svg">
<path d="M46.5927 25.4073C46.8019 25.6163 46.9678 25.8644 47.0811 26.1376C47.1943 26.4107 47.2526 26.7035 47.2526 26.9992C47.2526 27.2949 47.1943 27.5877 47.0811 27.8608C46.9678 28.1339 46.8019 28.3821 46.5927 28.5911L28.5927 46.5911C28.3836 46.8001 28.1355 46.9659 27.8623 47.0791C27.5892 47.1922 27.2964 47.2504 27.0008 47.2504C26.7052 47.2504 26.4124 47.1922 26.1393 47.0791C25.8662 46.9659 25.618 46.8001 25.4089 46.5911C25.1999 46.382 25.0341 46.1338 24.9209 45.8607C24.8078 45.5876 24.7496 45.2948 24.7496 44.9992C24.7496 44.7035 24.8078 44.4108 24.9209 44.1377C25.0341 43.8645 25.1999 43.6164 25.4089 43.4073L43.4089 25.4073C43.6179 25.1981 43.866 25.0322 44.1392 24.9189C44.4123 24.8057 44.7051 24.7474 45.0008 24.7474C45.2965 24.7474 45.5893 24.8057 45.8624 24.9189C46.1356 25.0322 46.3837 25.1981 46.5927 25.4073ZM60.6383 11.3617C59.1758 9.89899 57.4394 8.73871 55.5284 7.9471C53.6175 7.15549 51.5693 6.74805 49.5008 6.74805C47.4323 6.74805 45.3841 7.15549 43.4732 7.9471C41.5622 8.73871 39.8258 9.89899 38.3633 11.3617L29.9089 19.8132C29.4867 20.2354 29.2496 20.8081 29.2496 21.4051C29.2496 22.0022 29.4867 22.5748 29.9089 22.997C30.3311 23.4192 30.9037 23.6564 31.5008 23.6564C32.0979 23.6564 32.6705 23.4192 33.0927 22.997L41.5471 14.5595C43.6645 12.4885 46.5133 11.3361 49.4751 11.3524C52.437 11.3688 55.2729 12.5524 57.3674 14.6466C59.462 16.7408 60.6462 19.5765 60.663 22.5383C60.6798 25.5002 59.528 28.3491 57.4574 30.467L49.0002 38.9214C48.578 39.3432 48.3407 39.9154 48.3404 40.5123C48.3401 41.1091 48.577 41.6815 48.9988 42.1037C49.4206 42.5259 49.9928 42.7632 50.5896 42.7635C51.1865 42.7638 51.7589 42.5269 52.1811 42.1051L60.6383 33.6367C62.101 32.1741 63.2613 30.4378 64.0529 28.5268C64.8445 26.6158 65.2519 24.5676 65.2519 22.4992C65.2519 20.4307 64.8445 18.3825 64.0529 16.4715C63.2613 14.5606 62.101 12.8242 60.6383 11.3617ZM38.9089 48.9986L30.4546 57.4529C29.4141 58.5167 28.1731 59.3635 26.8031 59.9443C25.4332 60.5251 23.9617 60.8284 22.4737 60.8366C20.9858 60.8448 19.511 60.5578 18.1348 59.9921C16.7585 59.4264 15.5082 58.5933 14.4561 57.541C13.4041 56.4888 12.5712 55.2383 12.0057 53.862C11.4403 52.4856 11.1535 51.0108 11.162 49.5228C11.1704 48.0349 11.474 46.5634 12.055 45.1936C12.6361 43.8238 13.4831 42.5828 14.5471 41.5426L22.9986 33.0911C23.4208 32.6689 23.658 32.0963 23.658 31.4992C23.658 30.9021 23.4208 30.3295 22.9986 29.9073C22.5764 29.4851 22.0038 29.2479 21.4067 29.2479C20.8097 29.2479 20.2371 29.4851 19.8149 29.9073L11.3633 38.3617C8.40946 41.3155 6.75 45.3218 6.75 49.4992C6.75 53.6766 8.40946 57.6828 11.3633 60.6367C14.3172 63.5905 18.3234 65.25 22.5008 65.25C26.6782 65.25 30.6845 63.5905 33.6383 60.6367L42.0927 52.1795C42.5145 51.7573 42.7513 51.1848 42.7511 50.588C42.7508 49.9912 42.5135 49.419 42.0913 48.9972C41.6691 48.5753 41.0966 48.3385 40.4998 48.3388C39.903 48.339 39.3307 48.5764 38.9089 48.9986Z" fill="#1E71F2"/>
</svg>
