<svg width="42" height="44" viewBox="0 0 42 44" fill="none" xmlns="http://www.w3.org/2000/svg">
<path d="M30.3446 12.3181L28.0273 10.5433C27.7781 10.3524 27.4215 10.3997 27.2306 10.6489C27.0397 10.8981 27.087 11.2548 27.3362 11.4456L29.6535 13.2204C29.9027 13.4113 30.2593 13.364 30.4502 13.1148C30.6411 12.8656 30.5938 12.509 30.3446 12.3181Z" fill="white"/>
<path d="M34.1244 22.8644C34.224 22.582 34.1562 22.2735 33.9471 22.059L31.4296 19.4778L31.9803 16.6917L34.5011 13.4004C34.692 13.1512 34.6447 12.7946 34.3955 12.6037L33.7037 12.0739L34.5405 10.9813C35.3841 9.88032 35.1744 8.2983 34.0732 7.45488L31.751 5.6763C30.6499 4.83292 29.0678 5.04264 28.2244 6.14378L27.3876 7.23633L26.6959 6.70648C26.4466 6.5156 26.09 6.56287 25.8991 6.81209L23.1776 10.3654C23.0104 10.5837 23.026 10.8844 23.2 11.0839L23.0745 11.2477C22.8837 11.4969 22.9309 11.8535 23.1802 12.0444C23.4294 12.2353 23.786 12.188 23.9769 11.9388L24.0953 11.7842L25.5192 12.8747L23.9855 14.8772C23.9253 14.8995 23.8668 14.9283 23.812 14.9661C23.6165 15.1006 23.4982 15.3107 23.4782 15.5396L12.05 30.4606L10.6261 29.37L22.514 13.8487C22.7049 13.5995 22.6577 13.2429 22.4084 13.052C22.1592 12.8611 21.8026 12.9084 21.6117 13.1576L15.7185 20.852C15.6715 20.7765 15.6119 20.7078 15.5382 20.6513C15.3114 20.4776 15.0117 20.4476 14.7555 20.5731L12.0992 21.8771L9.5029 20.4245C9.25265 20.2845 8.95066 20.2986 8.71479 20.4613C8.47937 20.6236 8.35902 20.9001 8.40083 21.1837L8.83688 24.1152L6.66856 26.1206C6.45887 26.3143 6.37903 26.605 6.45995 26.879C6.50589 27.0348 6.59842 27.1669 6.7212 27.261C6.81498 27.3328 6.92636 27.3824 7.04828 27.4035L9.97686 27.9123L10.1032 28.1835L9.37824 29.1299C9.37295 29.1369 9.36851 29.1442 9.36356 29.1512C9.35956 29.157 9.35544 29.1626 9.35173 29.1684C9.32627 29.208 9.30635 29.2497 9.29167 29.2927C9.28969 29.2985 9.28799 29.3045 9.28613 29.3104C9.28074 29.328 9.27628 29.3458 9.27272 29.3638C9.27156 29.3693 9.27027 29.3747 9.26932 29.3802C9.26552 29.4025 9.26308 29.4249 9.26206 29.4473C9.26196 29.4494 9.26147 29.4514 9.26137 29.4535L8.97987 36.637C8.96867 36.9199 9.09631 37.1916 9.32118 37.364L9.32136 37.3641C9.54622 37.5363 9.84186 37.5889 10.112 37.5045L16.9764 35.3626C16.9784 35.3621 16.9802 35.3611 16.9822 35.3604C17.0036 35.3535 17.0246 35.3452 17.0452 35.3358C17.0503 35.3334 17.0551 35.3307 17.0602 35.3282C17.0765 35.3201 17.0925 35.3112 17.1081 35.3014C17.1134 35.2981 17.1188 35.2947 17.124 35.2913C17.143 35.2786 17.1616 35.2649 17.1792 35.2497L17.1792 35.2497C17.1964 35.2348 17.2126 35.2183 17.2282 35.201C17.2329 35.1959 17.2372 35.1905 17.2417 35.1852C17.2473 35.1785 17.2532 35.1723 17.2585 35.1653L17.6971 34.5926C17.888 34.3434 17.8407 33.9868 17.5915 33.7959C17.3423 33.605 16.9857 33.6523 16.7948 33.9015L16.7017 34.0231L15.2779 32.9325L22.6977 23.2448L24.6949 23.5868L18.2633 31.9843C18.0724 32.2335 18.1196 32.5901 18.3689 32.781C18.6181 32.9719 18.9747 32.9246 19.1656 32.6754L25.5867 24.2917L26.8229 26.9647C26.9488 27.2366 27.2128 27.4101 27.5121 27.4178C27.8115 27.4253 28.0841 27.2653 28.2234 27.0002L29.9004 23.8082L33.4808 23.3801C33.7781 23.3444 34.0248 23.1468 34.1244 22.8644ZM10.8792 27.1704C10.7675 26.9901 10.5832 26.8641 10.3715 26.8273L8.02016 26.4188L9.76051 24.8092C9.94214 24.6414 10.0284 24.3953 9.99149 24.1522L9.64233 21.8049L11.7216 22.9682C11.9337 23.0872 12.1914 23.0954 12.4161 22.9877L14.5517 21.9393L14.4376 22.5244L10.8792 27.1704ZM24.4256 10.6054L26.456 7.95441L29.8546 10.5576C30.1038 10.7485 30.4604 10.7012 30.6513 10.452C30.8422 10.2028 30.7949 9.84619 30.5457 9.65531L28.2899 7.9276L29.1268 6.83493C29.5891 6.23134 30.4564 6.11637 31.06 6.57867L33.3822 8.35725C33.9858 8.81956 34.1007 9.68681 33.6384 10.2904L32.8015 11.3831L32.4807 11.1374C32.2315 10.9465 31.8749 10.9937 31.684 11.243C31.4931 11.4922 31.5404 11.8488 31.7896 12.0397L33.2535 13.1607L31.7565 15.1152C31.5311 14.9828 31.2558 14.9707 31.0168 15.0888L30.5684 15.3102L24.4256 10.6054ZM29.4319 15.8715L27.7838 16.6855L27.7405 16.6613L28.7471 15.347L29.4319 15.8715ZM21.1388 22.5362C21.187 22.6985 21.2835 22.836 21.4115 22.934C21.4311 22.949 21.4519 22.9623 21.4728 22.9754L14.3756 32.2418L12.9523 31.1517L23.6877 17.1352L24.0014 19.29L21.3566 21.7407C21.1369 21.9443 21.0534 22.2492 21.1388 22.5362ZM27.8448 14.6559L26.7378 16.1013L25.1561 15.218L26.4215 13.5658L27.8448 14.6559ZM10.1309 36.3033L10.1959 34.6404L11.7233 35.8095L10.1309 36.3033ZM15.5908 34.6046L13.0532 35.3964L10.25 33.2504L10.3541 30.5938L15.5908 34.6046ZM29.58 22.7019C29.3248 22.7324 29.1009 22.8866 28.9814 23.1142L27.5523 25.834L26.2628 23.0457C26.2283 22.971 26.1817 22.9042 26.1274 22.8453C26.1248 22.8422 26.1221 22.8393 26.1194 22.8363C26.1105 22.8269 26.1018 22.8173 26.0924 22.8083C26.0764 22.7927 26.0596 22.7776 26.0414 22.7637C26.0406 22.7631 26.0397 22.7626 26.039 22.762C26.0354 22.7592 26.0323 22.7559 26.0287 22.7531C25.9296 22.6772 25.8122 22.625 25.6855 22.6034L22.6573 22.0849L24.9104 19.997C25.0993 19.8222 25.19 19.5659 25.1529 19.3111L24.7103 16.2708L27.3926 17.7687C27.6171 17.8941 27.8889 17.901 28.1195 17.7871L30.8741 16.4267L30.2784 19.4406C30.2286 19.6931 30.306 19.9536 30.4856 20.1377L32.6307 22.3371L29.58 22.7019Z" fill="white"/>
<path d="M18.0706 12.2335L17.439 11.7497L17.9228 11.1181C18.1137 10.8689 18.0664 10.5122 17.8172 10.3214C17.5679 10.1305 17.2113 10.1778 17.0204 10.427L16.5367 11.0586L15.905 10.5748C15.6558 10.3839 15.2992 10.4312 15.1083 10.6804C14.9174 10.9297 14.9647 11.2863 15.2139 11.4772L15.8456 11.9609L15.3618 12.5926C15.1709 12.8418 15.2182 13.1984 15.4674 13.3893C15.7166 13.5802 16.0732 13.5329 16.2641 13.2837L16.7479 12.652L17.3795 13.1358C17.6288 13.3267 17.9854 13.2794 18.1762 13.0302C18.3671 12.781 18.3199 12.4244 18.0706 12.2335Z" fill="white"/>
<path d="M37.7132 16.4938L37.2019 16.1022L37.5935 15.5909C37.7844 15.3416 37.7371 14.985 37.4879 14.7942C37.2386 14.6033 36.882 14.6505 36.6912 14.8998L36.2995 15.4111L35.7882 15.0195C35.539 14.8286 35.1824 14.8759 34.9915 15.1251C34.8006 15.3743 34.8479 15.731 35.0971 15.9218L35.6084 16.3134L35.2168 16.8247C35.0259 17.074 35.0732 17.4306 35.3224 17.6215C35.5716 17.8123 35.9282 17.7651 36.1191 17.5158L36.5108 17.0045L37.0221 17.3961C37.2713 17.587 37.6279 17.5398 37.8188 17.2905C38.0097 17.0413 37.9624 16.6847 37.7132 16.4938Z" fill="white"/>
<path d="M23.207 5.40823C23.4385 5.49389 23.4385 5.82133 23.207 5.907L21.8606 6.4052C21.7879 6.43214 21.7305 6.48952 21.7035 6.56231L21.2053 7.90869C21.1197 8.14019 20.7922 8.14019 20.7066 7.90869L20.2084 6.56231C20.1814 6.48952 20.124 6.43214 20.0513 6.4052L18.7049 5.907C18.4734 5.82133 18.4734 5.49389 18.7049 5.40823L20.0513 4.91002C20.124 4.88309 20.1814 4.8257 20.2084 4.75292L20.7066 3.40654C20.7922 3.17503 21.1197 3.17503 21.2053 3.40654L21.7035 4.75292C21.7305 4.8257 21.7879 4.88309 21.8606 4.91002L23.207 5.40823Z" fill="white"/>
<path d="M28.0547 31.272C28.2862 31.3577 28.2862 31.6851 28.0547 31.7708L26.7083 32.269C26.6355 32.2959 26.5781 32.3533 26.5512 32.4261L26.053 33.7725C25.9673 34.004 25.6399 34.004 25.5542 33.7725L25.056 32.4261C25.0291 32.3533 24.9717 32.2959 24.8989 32.269L23.5525 31.7708C23.321 31.6851 23.321 31.3577 23.5525 31.272L24.8989 30.7738C24.9717 30.7469 25.0291 30.6895 25.056 30.6167L25.5542 29.2703C25.6399 29.0388 25.9673 29.0388 26.053 29.2703L26.5512 30.6167C26.5781 30.6895 26.6355 30.7469 26.7083 30.7738L28.0547 31.272Z" fill="white"/>
</svg>
