<svg width="22" height="6" viewBox="0 0 22 6" fill="none" xmlns="http://www.w3.org/2000/svg">
<path d="M3.00065 5.66634C2.26732 5.66634 1.63954 5.40523 1.11732 4.88301C0.595095 4.36079 0.333984 3.73301 0.333984 2.99967C0.333984 2.26634 0.595095 1.63856 1.11732 1.11634C1.63954 0.594119 2.26732 0.333008 3.00065 0.333008C3.73398 0.333008 4.36176 0.594119 4.88398 1.11634C5.40621 1.63856 5.66732 2.26634 5.66732 2.99967C5.66732 3.73301 5.40621 4.36079 4.88398 4.88301C4.36176 5.40523 3.73398 5.66634 3.00065 5.66634ZM11.0007 5.66634C10.2673 5.66634 9.63954 5.40523 9.11732 4.88301C8.59509 4.36079 8.33398 3.73301 8.33398 2.99967C8.33398 2.26634 8.59509 1.63856 9.11732 1.11634C9.63954 0.594119 10.2673 0.333008 11.0007 0.333008C11.734 0.333008 12.3618 0.594119 12.884 1.11634C13.4062 1.63856 13.6673 2.26634 13.6673 2.99967C13.6673 3.73301 13.4062 4.36079 12.884 4.88301C12.3618 5.40523 11.734 5.66634 11.0007 5.66634ZM19.0007 5.66634C18.2673 5.66634 17.6395 5.40523 17.1173 4.88301C16.5951 4.36079 16.334 3.73301 16.334 2.99967C16.334 2.26634 16.5951 1.63856 17.1173 1.11634C17.6395 0.594119 18.2673 0.333008 19.0007 0.333008C19.734 0.333008 20.3618 0.594119 20.884 1.11634C21.4062 1.63856 21.6673 2.26634 21.6673 2.99967C21.6673 3.73301 21.4062 4.36079 20.884 4.88301C20.3618 5.40523 19.734 5.66634 19.0007 5.66634Z" fill="#A7A7A7"/>
</svg>
