<svg width="24" height="19" viewBox="0 0 24 19" fill="none" xmlns="http://www.w3.org/2000/svg">
<path d="M21.9968 7.82621C21.8431 7.82621 21.6895 7.89206 21.5687 8.01281L20.4711 9.11045L22.7212 11.3606L23.8189 10.263C24.0604 10.0325 24.0604 9.6483 23.8189 9.41779L22.4139 8.01281C22.2932 7.89206 22.1505 7.82621 21.9968 7.82621ZM19.8344 9.74708L13.1717 16.3988V18.66H15.4329L22.0846 11.9973L19.8344 9.74708ZM10.9764 17.5623H2.19529C0.98788 17.5623 0 16.5854 0 15.367V2.19529C0 0.976904 0.98788 0 2.19529 0H3.29293L5.48822 4.39058H8.78116L6.58587 0H8.78116L10.9764 4.39058H14.2694L12.0741 0H14.2694L16.4647 4.39058H19.7576L17.5623 0H21.9529V4.5223L10.9764 15.4878V17.5623Z" fill="white"/>
</svg>
