<svg width="25" height="24" viewBox="0 0 25 24" fill="none" xmlns="http://www.w3.org/2000/svg">
<path d="M21.2978 11.13C21.1578 11.13 21.0178 11.19 20.9078 11.3L19.9078 12.3L21.9578 14.35L22.9578 13.35C23.1778 13.14 23.1778 12.79 22.9578 12.58L21.6778 11.3C21.5678 11.19 21.4378 11.13 21.2978 11.13ZM19.3278 12.88L13.2578 18.94V21H15.3178L21.3778 14.93L19.3278 12.88ZM11.2578 20H3.25781C2.15781 20 1.25781 19.11 1.25781 18V6C1.25781 4.89 2.15781 4 3.25781 4H4.25781L6.25781 8H9.25781L7.25781 4H9.25781L11.2578 8H14.2578L12.2578 4H14.2578L16.2578 8H19.2578L17.2578 4H21.2578V8.12L11.2578 18.11V20Z" fill="black"/>
</svg>
