<svg width="34" height="36" viewBox="0 0 34 36" fill="none" xmlns="http://www.w3.org/2000/svg">
<path d="M32.8154 0.284459C32.6565 0.158508 32.4706 0.0710094 32.2723 0.0288029C32.074 -0.0134036 31.8686 -0.00917429 31.6722 0.0411602L10.3419 5.37375C10.0538 5.44577 9.79792 5.61194 9.61497 5.84591C9.43203 6.07987 9.33245 6.36823 9.33203 6.66523V25.0127C8.21979 24.2695 6.89108 23.9194 5.55705 24.018C4.22303 24.1166 2.96022 24.6582 1.96929 25.5567C0.978367 26.4553 0.316182 27.6593 0.0879636 28.9773C-0.140254 30.2954 0.0785878 31.6519 0.709714 32.8313C1.34084 34.0107 2.34804 34.9454 3.57127 35.4867C4.79449 36.0281 6.16355 36.1451 7.4609 35.8192C8.75825 35.4933 9.90946 34.7431 10.7316 33.6879C11.5537 32.6327 11.9996 31.333 11.9983 29.9953V14.3725L30.6624 9.70647V19.6801C29.5501 18.9369 28.2214 18.5868 26.8874 18.6854C25.5534 18.784 24.2906 19.3256 23.2996 20.2242C22.3087 21.1227 21.6465 22.3267 21.4183 23.6447C21.1901 24.9628 21.4089 26.3193 22.0401 27.4987C22.6712 28.6781 23.6784 29.6128 24.9016 30.1542C26.1248 30.6955 27.4939 30.8125 28.7912 30.4866C30.0886 30.1607 31.2398 29.4105 32.0619 28.3553C32.884 27.3001 33.3299 26.0004 33.3287 24.6627V1.33265C33.3282 1.13045 33.2818 0.931 33.1928 0.749402C33.1039 0.567804 32.9748 0.408812 32.8154 0.284459Z" fill="white"/>
</svg>
