<svg width="33" height="32" viewBox="0 0 33 32" fill="none" xmlns="http://www.w3.org/2000/svg">
<path d="M29.2578 7C29.2578 7.26522 29.1525 7.51957 28.9649 7.70711C28.7774 7.89464 28.523 8 28.2578 8H26.2578V10C26.2578 10.2652 26.1525 10.5196 25.9649 10.7071C25.7774 10.8946 25.523 11 25.2578 11C24.9926 11 24.7382 10.8946 24.5507 10.7071C24.3632 10.5196 24.2578 10.2652 24.2578 10V8H22.2578C21.9926 8 21.7382 7.89464 21.5507 7.70711C21.3632 7.51957 21.2578 7.26522 21.2578 7C21.2578 6.73478 21.3632 6.48043 21.5507 6.29289C21.7382 6.10536 21.9926 6 22.2578 6H24.2578V4C24.2578 3.73478 24.3632 3.48043 24.5507 3.29289C24.7382 3.10536 24.9926 3 25.2578 3C25.523 3 25.7774 3.10536 25.9649 3.29289C26.1525 3.48043 26.2578 3.73478 26.2578 4V6H28.2578C28.523 6 28.7774 6.10536 28.9649 6.29289C29.1525 6.48043 29.2578 6.73478 29.2578 7ZM26.2578 14C25.9926 14 25.7382 14.1054 25.5507 14.2929C25.3632 14.4804 25.2578 14.7348 25.2578 15V17.76C24.4236 17.2026 23.4271 16.94 22.4265 17.0139C21.4259 17.0877 20.4788 17.4939 19.7355 18.1677C18.9921 18.8415 18.4953 19.7445 18.324 20.733C18.1526 21.7215 18.3165 22.739 18.7896 23.6237C19.2627 24.5084 20.0179 25.2097 20.9352 25.616C21.8525 26.0224 22.8793 26.1105 23.8525 25.8665C24.8256 25.6224 25.6893 25.0602 26.3063 24.269C26.9233 23.4779 27.2582 22.5033 27.2578 21.5V15C27.2578 14.7348 27.1525 14.4804 26.9649 14.2929C26.7774 14.1054 26.523 14 26.2578 14ZM19.4553 12.6663C19.6484 12.5335 19.7888 12.337 19.8518 12.1113C19.9149 11.8856 19.8966 11.6449 19.8003 11.4312C19.7644 11.351 19.7182 11.2758 19.6628 11.2075C18.6096 9.81232 18.1188 8.07241 18.2878 6.3325C18.3107 6.06907 18.2284 5.80729 18.0588 5.60443C17.8892 5.40156 17.6461 5.27413 17.3828 5.25C17.2734 5.24054 17.1631 5.24941 17.0566 5.27625L10.0153 7.03C9.79898 7.08408 9.60692 7.20891 9.46967 7.38467C9.33242 7.56042 9.25785 7.777 9.25782 8V21.76C8.42361 21.2026 7.42706 20.94 6.4265 21.0139C5.42594 21.0877 4.47876 21.4939 3.73545 22.1677C2.99214 22.8415 2.49533 23.7445 2.32395 24.733C2.15258 25.7215 2.31647 26.739 2.78958 27.6237C3.2627 28.5084 4.0179 29.2097 4.93521 29.616C5.85251 30.0224 6.87931 30.1105 7.85246 29.8665C8.8256 29.6224 9.68928 29.0602 10.3063 28.269C10.9233 27.4779 11.2582 26.5033 11.2578 25.5V14.7812L19.1103 12.8175C19.2338 12.7892 19.3509 12.7379 19.4553 12.6663Z" fill="#333333"/>
</svg>
