<svg width="32" height="32" viewBox="0 0 32 32" fill="none" xmlns="http://www.w3.org/2000/svg">
<g clip-path="url(#clip0_8608_141708)">
<path d="M16 17.5C16.8284 17.5 17.5 16.8284 17.5 16C17.5 15.1716 16.8284 14.5 16 14.5C15.1716 14.5 14.5 15.1716 14.5 16C14.5 16.8284 15.1716 17.5 16 17.5Z" fill="#646464"/>
<path d="M10.5 17.5C11.3284 17.5 12 16.8284 12 16C12 15.1716 11.3284 14.5 10.5 14.5C9.67157 14.5 9 15.1716 9 16C9 16.8284 9.67157 17.5 10.5 17.5Z" fill="#646464"/>
<path d="M21.5 17.5C22.3284 17.5 23 16.8284 23 16C23 15.1716 22.3284 14.5 21.5 14.5C20.6716 14.5 20 15.1716 20 16C20 16.8284 20.6716 17.5 21.5 17.5Z" fill="#646464"/>
<path d="M9.99011 26.3889C12.5108 27.8478 15.476 28.3401 18.3328 27.7742C21.1897 27.2083 23.7433 25.6227 25.5175 23.3131C27.2916 21.0035 28.1653 18.1275 27.9756 15.2213C27.7859 12.3151 26.5457 9.57703 24.4864 7.51766C22.427 5.45829 19.689 4.21814 16.7828 4.02843C13.8766 3.83872 11.0005 4.71239 8.69092 6.48656C6.3813 8.26073 4.79572 10.8143 4.2298 13.6712C3.66389 16.5281 4.15626 19.4932 5.61511 22.0139L4.05136 26.6827C3.9926 26.8589 3.98407 27.0479 4.02673 27.2287C4.0694 27.4095 4.16156 27.5748 4.29289 27.7061C4.42423 27.8375 4.58955 27.9296 4.77032 27.9723C4.95109 28.0149 5.14017 28.0064 5.31636 27.9477L9.99011 26.3889Z" stroke="#646464" stroke-width="2" stroke-linecap="round" stroke-linejoin="round"/>
</g>
<defs>
<clipPath id="clip0_8608_141708">
<rect width="32" height="32" fill="white"/>
</clipPath>
</defs>
</svg>
