<svg width="16" height="16" viewBox="0 0 16 16" fill="none" xmlns="http://www.w3.org/2000/svg">
<path fill-rule="evenodd" clip-rule="evenodd" d="M7.36744 0.200195C3.3751 0.200195 0.138672 3.36514 0.138672 7.26931C0.138672 11.1735 3.3751 14.3384 7.36744 14.3384C9.07518 14.3384 10.6446 13.7593 11.8816 12.791L14.2313 15.0828L14.2938 15.1354C14.5119 15.2933 14.8212 15.2753 15.0186 15.0818C15.2357 14.8689 15.2352 14.5242 15.0175 14.3118L12.6954 12.0469C13.8758 10.7888 14.5962 9.11131 14.5962 7.26931C14.5962 3.36514 11.3598 0.200195 7.36744 0.200195ZM7.36812 1.28871C10.7455 1.28871 13.4835 3.96617 13.4835 7.26899C13.4835 10.5718 10.7455 13.2493 7.36812 13.2493C3.99071 13.2493 1.25278 10.5718 1.25278 7.26899C1.25278 3.96617 3.99071 1.28871 7.36812 1.28871Z" fill="#1E71F2"/>
</svg>
