<svg width="30" height="30" viewBox="0 0 30 30" fill="none" xmlns="http://www.w3.org/2000/svg">
<path d="M15 0C6.71575 0 0 6.71575 0 15C0 23.2843 6.71575 30 15 30C23.2843 30 30 23.2843 30 15C30 6.71575 23.2843 0 15 0ZM24.1924 24.1924C21.913 26.4649 18.8692 27.8075 15.6541 27.9584C12.439 28.1093 9.2828 27.0578 6.80058 25.0088C4.31836 22.9598 2.68791 20.06 2.22693 16.8745C1.76594 13.689 2.50744 10.446 4.30695 7.77736C6.10645 5.10871 8.83505 3.20562 11.9611 2.43889C15.0871 1.67216 18.3866 2.09674 21.2167 3.62987C24.0468 5.16301 26.2047 7.69489 27.27 10.7322C28.3353 13.7694 28.2316 17.0945 26.9792 20.0596C26.3265 21.6045 25.38 23.0081 24.1924 24.1924Z" fill="#1E71F2"/>
<path d="M11.0001 11.499H8.50006V13.999H11.0001V11.499Z" fill="#1E71F2"/>
<path d="M21.4999 11.499H18.9999V13.999H21.4999V11.499Z" fill="#1E71F2"/>
<path d="M20.143 18.2005C19.7562 19.1766 19.0843 20.0136 18.2148 20.6022C17.3454 21.1908 16.3187 21.5039 15.2687 21.5005H14.7312C13.6812 21.5039 12.6545 21.1909 11.785 20.6022C10.9156 20.0136 10.2436 19.1766 9.85674 18.2005L9.7768 18.0005H7.62299L7.99999 18.9431C8.53811 20.2884 9.46698 21.4416 10.6668 22.2539C11.8666 23.0662 13.2823 23.5004 14.7312 23.5005H15.2687C16.7177 23.5004 18.1334 23.0662 19.3332 22.2539C20.533 21.4416 21.4619 20.2884 22 18.9431L22.377 18.0005H20.223L20.143 18.2005Z" fill="#1E71F2"/>
</svg>
