<svg width="16" height="15" viewBox="0 0 16 15" fill="none" xmlns="http://www.w3.org/2000/svg">
<path d="M15.84 11.04L12.96 8.16C12.8 8.08 12.64 8 12.48 8H10.24C9.92 8 9.6 8.32 9.6 8.64V10.88C9.6 11.04 9.68 11.2 9.76 11.36L12.64 14.24C12.72 14.32 12.88 14.4 13.12 14.4C13.28 14.4 13.44 14.32 13.6 14.24L15.84 12C15.92 11.92 16 11.76 16 11.52C16 11.36 15.92 11.2 15.84 11.04ZM10.72 9.6C10.48 9.6 10.24 9.36 10.24 9.12C10.24 8.88 10.48 8.64 10.72 8.64C10.96 8.64 11.2 8.88 11.2 9.12C11.2 9.36 10.96 9.6 10.72 9.6ZM6.4 0C4.64 0 3.2 1.44 3.2 3.2C3.2 4.96 4.64 6.4 6.4 6.4C8.16 6.4 9.6 4.96 9.6 3.2C9.6 1.44 8.16 0 6.4 0ZM6.4 8C2.88 8 0 9.44 0 11.2V12.8H8.96L8.64 12.48C8.24 12.08 8 11.52 8 10.88V8.64C8 8.48 8 8.32 8.08 8.08C7.52 8 6.96 8 6.4 8Z" fill="white"/>
</svg>
