<svg width="30" height="28" viewBox="0 0 30 28" fill="none" xmlns="http://www.w3.org/2000/svg">
<path d="M27.6 5.5998H3.6C3.28174 5.5998 2.97652 5.47338 2.75147 5.24833C2.52643 5.02329 2.4 4.71806 2.4 4.3998C2.4 4.08155 2.52643 3.77632 2.75147 3.55128C2.97652 3.32623 3.28174 3.1998 3.6 3.1998H24C24.3183 3.1998 24.6235 3.07338 24.8485 2.84833C25.0736 2.62329 25.2 2.31806 25.2 1.9998C25.2 1.68154 25.0736 1.37632 24.8485 1.15128C24.6235 0.926233 24.3183 0.799805 24 0.799805H3.6C2.64522 0.799805 1.72955 1.17909 1.05442 1.85422C0.379285 2.52935 0 3.44503 0 4.3998V23.5998C0 24.5546 0.379285 25.4703 1.05442 26.1454C1.72955 26.8205 2.64522 27.1998 3.6 27.1998H27.6C28.2365 27.1998 28.847 26.9469 29.2971 26.4969C29.7471 26.0468 30 25.4363 30 24.7998V7.9998C30 7.36329 29.7471 6.75284 29.2971 6.30275C28.847 5.85266 28.2365 5.5998 27.6 5.5998ZM27.6 24.7998H3.6C3.28174 24.7998 2.97652 24.6734 2.75147 24.4483C2.52643 24.2233 2.4 23.9181 2.4 23.5998V7.7943C2.78531 7.93089 3.19119 8.0004 3.6 7.9998H27.6V24.7998ZM20.4 15.7998C20.4 15.4438 20.5056 15.0958 20.7034 14.7998C20.9011 14.5038 21.1823 14.2731 21.5112 14.1368C21.8401 14.0006 22.202 13.9649 22.5512 14.0344C22.9003 14.1038 23.2211 14.2753 23.4728 14.527C23.7245 14.7787 23.896 15.0995 23.9654 15.4486C24.0349 15.7978 23.9992 16.1597 23.863 16.4886C23.7267 16.8175 23.496 17.0987 23.2 17.2964C22.904 17.4942 22.556 17.5998 22.2 17.5998C21.7226 17.5998 21.2648 17.4102 20.9272 17.0726C20.5896 16.735 20.4 16.2772 20.4 15.7998Z" fill="#646464"/>
</svg>
