<svg width="35" height="72" viewBox="0 0 35 72" fill="none" xmlns="http://www.w3.org/2000/svg">
<path d="M30 8H5C4.00544 8 3.05161 8.39509 2.34835 9.09835C1.64509 9.80161 1.25 10.7554 1.25 11.75V29.25C1.25 30.2446 1.64509 31.1984 2.34835 31.9017C3.05161 32.6049 4.00544 33 5 33H30C30.9946 33 31.9484 32.6049 32.6516 31.9017C33.3549 31.1984 33.75 30.2446 33.75 29.25V11.75C33.75 10.7554 33.3549 9.80161 32.6516 9.09835C31.9484 8.39509 30.9946 8 30 8ZM31.25 29.25C31.25 29.5815 31.1183 29.8995 30.8839 30.1339C30.6495 30.3683 30.3315 30.5 30 30.5H5C4.66848 30.5 4.35054 30.3683 4.11612 30.1339C3.8817 29.8995 3.75 29.5815 3.75 29.25V11.75C3.75 11.4185 3.8817 11.1005 4.11612 10.8661C4.35054 10.6317 4.66848 10.5 5 10.5H30C30.3315 10.5 30.6495 10.6317 30.8839 10.8661C31.1183 11.1005 31.25 11.4185 31.25 11.75V29.25ZM23.75 36.75C23.75 37.0815 23.6183 37.3995 23.3839 37.6339C23.1495 37.8683 22.8315 38 22.5 38H12.5C12.1685 38 11.8505 37.8683 11.6161 37.6339C11.3817 37.3995 11.25 37.0815 11.25 36.75C11.25 36.4185 11.3817 36.1005 11.6161 35.8661C11.8505 35.6317 12.1685 35.5 12.5 35.5H22.5C22.8315 35.5 23.1495 35.6317 23.3839 35.8661C23.6183 36.1005 23.75 36.4185 23.75 36.75ZM23.1937 19.4594L15.6937 14.4594C15.5055 14.3337 15.2866 14.2616 15.0605 14.2507C14.8344 14.2397 14.6096 14.2903 14.41 14.3972C14.2105 14.504 14.0437 14.663 13.9274 14.8573C13.8112 15.0515 13.7499 15.2736 13.75 15.5V25.5C13.7499 25.7264 13.8112 25.9485 13.9274 26.1427C14.0437 26.337 14.2105 26.496 14.41 26.6028C14.6096 26.7097 14.8344 26.7603 15.0605 26.7493C15.2866 26.7384 15.5055 26.6663 15.6937 26.5406L23.1937 21.5406C23.3652 21.4265 23.5058 21.2718 23.6031 21.0903C23.7003 20.9087 23.7512 20.706 23.7512 20.5C23.7512 20.294 23.7003 20.0913 23.6031 19.9097C23.5058 19.7282 23.3652 19.5735 23.1937 19.4594ZM16.25 23.1641V17.8438L20.2469 20.5L16.25 23.1641Z" fill="#8B8B8B"/>
<path d="M5.09251 58.236L8.11651 50.074H9.55851L5.73651 60H4.37851L0.640507 50.074H2.09651L5.09251 58.236ZM11.8837 60H10.5817V53.266H11.8837V60ZM10.5537 51.39C10.3763 51.2033 10.2877 50.9793 10.2877 50.718C10.2877 50.4567 10.3763 50.2327 10.5537 50.046C10.7403 49.8593 10.9643 49.766 11.2257 49.766C11.487 49.766 11.711 49.8593 11.8977 50.046C12.0843 50.2233 12.1777 50.4473 12.1777 50.718C12.1777 50.9793 12.0843 51.2033 11.8977 51.39C11.711 51.5673 11.487 51.656 11.2257 51.656C10.9643 51.656 10.7403 51.5673 10.5537 51.39ZM15.1847 60H13.8827V49.864H15.1847V54.218C15.362 53.8913 15.642 53.6207 16.0247 53.406C16.4167 53.182 16.8787 53.07 17.4107 53.07C18.3907 53.07 19.1514 53.4013 19.6927 54.064C20.234 54.7267 20.5047 55.5713 20.5047 56.598C20.5047 57.634 20.2247 58.4927 19.6647 59.174C19.1047 59.846 18.3394 60.182 17.3687 60.182C16.3607 60.182 15.6327 59.7947 15.1847 59.02V60ZM18.6147 58.348C18.9787 57.9093 19.1607 57.326 19.1607 56.598C19.1607 55.87 18.9787 55.296 18.6147 54.876C18.26 54.4467 17.7794 54.232 17.1727 54.232C16.5847 54.232 16.104 54.4467 15.7307 54.876C15.3574 55.3053 15.1707 55.8793 15.1707 56.598C15.1707 57.3167 15.3574 57.9 15.7307 58.348C16.104 58.7867 16.5847 59.006 17.1727 59.006C17.77 59.006 18.2507 58.7867 18.6147 58.348ZM22.7955 55.94H26.4775C26.4589 55.436 26.2909 55.0253 25.9735 54.708C25.6562 54.3813 25.2082 54.218 24.6295 54.218C24.1069 54.218 23.6775 54.3907 23.3415 54.736C23.0055 55.072 22.8235 55.4733 22.7955 55.94ZM26.6735 57.69L27.8075 58.082C27.6115 58.7073 27.2475 59.2207 26.7155 59.622C26.1835 60.014 25.5395 60.21 24.7835 60.21C23.8409 60.21 23.0382 59.888 22.3755 59.244C21.7222 58.5907 21.3955 57.7133 21.3955 56.612C21.3955 55.5853 21.7129 54.736 22.3475 54.064C22.9822 53.392 23.7382 53.056 24.6155 53.056C25.6329 53.056 26.4262 53.378 26.9955 54.022C27.5649 54.6567 27.8495 55.5107 27.8495 56.584C27.8495 56.752 27.8402 56.892 27.8215 57.004H22.7535C22.7629 57.6013 22.9589 58.0913 23.3415 58.474C23.7335 58.8567 24.2142 59.048 24.7835 59.048C25.7449 59.048 26.3749 58.5953 26.6735 57.69ZM28.6594 58.25L29.8494 57.83C29.8961 58.194 30.0547 58.4973 30.3254 58.74C30.5961 58.9733 30.9601 59.09 31.4174 59.09C31.7721 59.09 32.0521 59.006 32.2574 58.838C32.4627 58.6607 32.5654 58.446 32.5654 58.194C32.5654 57.746 32.2761 57.4567 31.6974 57.326L30.5494 57.074C30.0267 56.962 29.6161 56.738 29.3174 56.402C29.0187 56.066 28.8694 55.66 28.8694 55.184C28.8694 54.6053 29.1027 54.106 29.5694 53.686C30.0454 53.266 30.6101 53.056 31.2634 53.056C31.6927 53.056 32.0754 53.1213 32.4114 53.252C32.7474 53.3733 33.0087 53.5367 33.1954 53.742C33.3821 53.9473 33.5221 54.1387 33.6154 54.316C33.7087 54.4933 33.7787 54.6753 33.8254 54.862L32.6634 55.296C32.6447 55.184 32.6121 55.0767 32.5654 54.974C32.5187 54.862 32.4441 54.7407 32.3414 54.61C32.2481 54.4793 32.1081 54.3767 31.9214 54.302C31.7347 54.218 31.5154 54.176 31.2634 54.176C30.9367 54.176 30.6661 54.2647 30.4514 54.442C30.2461 54.6193 30.1434 54.8293 30.1434 55.072C30.1434 55.5013 30.4001 55.772 30.9134 55.884L32.0054 56.122C32.6027 56.2527 33.0601 56.4953 33.3774 56.85C33.7041 57.1953 33.8674 57.62 33.8674 58.124C33.8674 58.656 33.6481 59.1367 33.2094 59.566C32.7801 59.9953 32.1781 60.21 31.4034 60.21C30.5727 60.21 29.9241 60.0047 29.4574 59.594C28.9907 59.174 28.7247 58.726 28.6594 58.25Z" fill="#ACACAC"/>
</svg>
