<svg width="57" height="57" viewBox="0 0 57 57" fill="none" xmlns="http://www.w3.org/2000/svg">
<path d="M56.1266 28.6229C56.1266 13.1479 43.5822 0.603516 28.1072 0.603516C12.6322 0.603516 0.0878906 13.1479 0.0878906 28.6229C0.0878906 42.6076 10.3326 54.2014 23.7279 56.3018V36.7215H16.6131V28.6229H23.7279V22.4503C23.7279 15.4268 27.9121 11.5497 34.313 11.5497C37.3806 11.5497 40.5852 12.0977 40.5852 12.0977V18.9925H37.0527C33.5741 18.9925 32.4865 21.151 32.4865 23.3677V28.6229H40.2572L39.0161 36.7215H32.4865V56.3018C45.8819 54.1972 56.1266 42.6076 56.1266 28.6229Z" fill="#4676ED"/>
<path d="M39.0104 36.7224L40.2516 28.6238H32.4809V23.3687C32.4809 21.152 33.5685 18.9935 37.047 18.9935H40.5795V12.0987C40.5795 12.0987 37.3749 11.5507 34.3073 11.5507C27.9065 11.5507 23.7223 15.4278 23.7223 22.4513V28.6238H16.6074V36.7224H23.7223V56.3028C25.1502 56.5269 26.6114 56.6432 28.1016 56.6432C29.5918 56.6432 31.0529 56.5269 32.4809 56.3028V36.7224H39.0104Z" fill="white"/>
</svg>
