<svg width="57" height="57" viewBox="0 0 57 57" fill="none" xmlns="http://www.w3.org/2000/svg">
<path d="M28.0643 56.6422C43.5389 56.6422 56.0836 44.0975 56.0836 28.6229C56.0836 13.1482 43.5389 0.603516 28.0643 0.603516C12.5896 0.603516 0.0449219 13.1482 0.0449219 28.6229C0.0449219 44.0975 12.5896 56.6422 28.0643 56.6422Z" fill="white"/>
<path fill-rule="evenodd" clip-rule="evenodd" d="M28.0725 7.86664C16.1466 7.86664 6.90234 16.6004 6.90234 28.4017C6.90234 34.5743 9.43032 39.9083 13.5523 43.5903C13.8968 43.9016 14.1085 44.3333 14.121 44.7982L14.2372 48.5632C14.2745 49.7628 15.5157 50.5473 16.6157 50.0617L20.8165 48.2062C21.1735 48.0484 21.572 48.0194 21.9456 48.1231C23.8758 48.6545 25.9306 48.9368 28.0725 48.9368C39.9984 48.9368 49.2427 40.203 49.2427 28.4017C49.2427 16.6004 39.9984 7.86664 28.0725 7.86664Z" fill="url(#paint0_radial_3828_113263)"/>
<path fill-rule="evenodd" clip-rule="evenodd" d="M15.359 34.4026L21.5772 24.5357C22.5651 22.9666 24.6863 22.5764 26.1682 23.6889L31.1162 27.3999C31.5687 27.7403 32.1955 27.7403 32.6479 27.3957L39.3269 22.3273C40.2194 21.6507 41.3817 22.7175 40.7839 23.664L34.5657 33.5309C33.5778 35.1 31.4566 35.4902 29.9747 34.3777L25.0267 30.6667C24.5742 30.3263 23.9474 30.3263 23.495 30.6709L16.816 35.7393C15.9277 36.4159 14.7612 35.3491 15.359 34.4026Z" fill="white"/>
<defs>
<radialGradient id="paint0_radial_3828_113263" cx="0" cy="0" r="1" gradientUnits="userSpaceOnUse" gradientTransform="translate(15.0425 49.9665) scale(46.126 46.126)">
<stop stop-color="#5697FB"/>
<stop offset="0.6098" stop-color="#8936F9"/>
<stop offset="0.9348" stop-color="#DD537E"/>
<stop offset="1" stop-color="#E06F62"/>
</radialGradient>
</defs>
</svg>
