<svg width="57" height="57" viewBox="0 0 57 57" fill="none" xmlns="http://www.w3.org/2000/svg">
<path d="M28.2029 56.6941C43.6776 56.6941 56.2222 44.1494 56.2222 28.6747C56.2222 13.2001 43.6776 0.655396 28.2029 0.655396C12.7283 0.655396 0.183594 13.2001 0.183594 28.6747C0.183594 44.1494 12.7283 56.6941 28.2029 56.6941Z" fill="#4467AD"/>
<path d="M30.3716 24.853C30.8324 24.3341 31.2101 23.8111 31.6833 23.3669C33.1362 21.9971 34.8547 21.308 36.8638 21.3246C37.968 21.3329 39.0555 21.4118 40.1182 21.719C42.5507 22.4205 43.962 24.0975 44.6386 26.4719C45.145 28.2527 45.2364 30.0833 45.2405 31.918C45.2488 35.7868 45.2281 39.6596 45.2364 43.5284C45.2364 43.8895 45.1367 43.985 44.7797 43.985C42.7873 43.9684 40.7906 43.9684 38.7982 43.985C38.4453 43.9892 38.3706 43.8812 38.3706 43.5491C38.383 39.8672 38.383 36.1852 38.3706 32.4991C38.3664 31.5776 38.3083 30.652 38.051 29.7553C37.5736 28.1032 36.3905 27.2606 34.6596 27.3519C32.2935 27.4764 31.0648 28.647 30.7618 31.0504C30.6912 31.6233 30.6539 32.2003 30.658 32.7773C30.6622 36.3596 30.6539 39.9419 30.6663 43.5242C30.6663 43.8812 30.5792 43.985 30.2139 43.985C28.2048 43.9684 26.1957 43.9684 24.1866 43.985C23.8628 43.9892 23.7715 43.902 23.7715 43.574C23.7798 36.4841 23.7798 29.39 23.7715 22.3001C23.7715 21.9473 23.8877 21.8684 24.2198 21.8684C26.1251 21.8809 28.0346 21.885 29.9399 21.8684C30.2927 21.8643 30.3799 21.9805 30.3758 22.3126C30.3592 23.1552 30.3716 24.002 30.3716 24.853Z" fill="#FEFEFE"/>
<path d="M19.4529 32.9556C19.4529 36.4632 19.4488 39.9708 19.4613 43.4784C19.4613 43.8686 19.3658 43.9848 18.9631 43.9807C16.9706 43.9599 14.9781 43.964 12.9815 43.9765C12.6619 43.9806 12.5664 43.8976 12.5664 43.5697C12.5747 36.4673 12.5747 29.3649 12.5664 22.2584C12.5664 21.9637 12.637 21.8599 12.9483 21.8599C14.9699 21.8724 16.9914 21.8765 19.0129 21.8558C19.4031 21.8516 19.4529 22.0011 19.4529 22.3373C19.4488 25.8822 19.4529 29.4189 19.4529 32.9556Z" fill="#FEFEFE"/>
<path d="M19.9971 14.8275C20.0012 17.0317 18.2121 18.8249 16.0121 18.8249C13.8411 18.8249 12.0396 17.0317 12.0313 14.8607C12.023 12.669 13.8245 10.8633 16.0204 10.8633C18.1997 10.8675 19.9971 12.6565 19.9971 14.8275Z" fill="#FEFEFE"/>
</svg>
