<svg width="57" height="57" viewBox="0 0 57 57" fill="none" xmlns="http://www.w3.org/2000/svg">
<circle cx="28.0643" cy="28.6761" r="28.0193" fill="white"/>
<path d="M28.101 0.655396C12.6114 0.655396 0.0527344 13.1908 0.0527344 28.6519C0.0527344 40.5161 7.43846 50.6563 17.8715 54.7339C17.6182 52.5211 17.4106 49.1106 17.9628 46.6947C18.4693 44.5067 21.2426 32.7793 21.2426 32.7793C21.2426 32.7793 20.4123 31.0969 20.4123 28.6312C20.4123 24.7359 22.6749 21.8351 25.4897 21.8351C27.8893 21.8351 29.0435 23.6336 29.0435 25.776C29.0435 28.1712 27.5198 31.7682 26.7103 35.1082C26.0418 37.8971 28.1176 40.1763 30.866 40.1763C35.8521 40.1763 39.684 34.9217 39.684 27.3673C39.684 20.6624 34.8599 15.9839 27.9557 15.9839C19.968 15.9839 15.2809 21.9512 15.2809 28.1257C15.2809 30.5209 16.2025 33.1025 17.3567 34.5073C17.5892 34.785 17.6099 35.0378 17.5393 35.3154C17.3318 36.1898 16.846 38.1043 16.7547 38.4938C16.6384 38.9994 16.3395 39.1154 15.8081 38.8626C12.3 37.2258 10.1079 32.1328 10.1079 28.0096C10.1079 19.183 16.5263 11.0733 28.6449 11.0733C38.3638 11.0733 45.9364 17.9854 45.9364 27.2471C45.9364 36.9025 39.8418 44.6642 31.3933 44.6642C28.5536 44.6642 25.8758 43.1889 24.9749 41.4402C24.9749 41.4402 23.5675 46.7859 23.2187 48.0995C22.596 50.5403 20.8855 53.5819 19.7314 55.4509C22.3635 56.2589 25.1326 56.6941 28.0429 56.6941C43.5326 56.6941 56.0912 44.1586 56.0912 28.6975C56.1452 13.1908 43.5866 0.655396 28.101 0.655396Z" fill="#C40027"/>
</svg>
