<svg width="57" height="57" viewBox="0 0 57 57" fill="none" xmlns="http://www.w3.org/2000/svg">
<path d="M28.0193 56.6941C43.494 56.6941 56.0387 44.1494 56.0387 28.6747C56.0387 13.2001 43.494 0.655396 28.0193 0.655396C12.5447 0.655396 0 13.2001 0 28.6747C0 44.1494 12.5447 56.6941 28.0193 56.6941Z" fill="#DC4711"/>
<path d="M46.6902 28.675C46.6902 26.4169 44.8596 24.5904 42.6056 24.5904C41.5055 24.5904 40.5051 25.0304 39.7704 25.7361C36.9768 23.7187 33.1288 22.4195 28.8408 22.27L30.7005 13.5114L36.7817 14.8023C36.8564 16.3465 38.1225 17.5835 39.6874 17.5835C41.298 17.5835 42.6056 16.276 42.6056 14.6654C42.6056 13.0548 41.298 11.7472 39.6874 11.7472C38.5417 11.7472 37.5579 12.4155 37.0806 13.3744L30.2895 11.9298C30.0986 11.8883 29.9035 11.9257 29.7416 12.0336C29.5797 12.1374 29.4635 12.3034 29.4261 12.4944L27.3464 22.2659C22.9962 22.3862 19.0859 23.6897 16.2591 25.7278C15.5244 25.0221 14.5323 24.5904 13.4323 24.5904C11.1741 24.5904 9.34766 26.421 9.34766 28.675C9.34766 30.3354 10.3398 31.7634 11.7635 32.4026C11.7013 32.8094 11.6681 33.2204 11.6681 33.6396C11.6681 39.9243 18.9863 45.0217 28.0147 45.0217C37.0432 45.0217 44.3614 39.9243 44.3614 33.6396C44.3614 33.2245 44.3282 32.8136 44.266 32.4109C45.6939 31.7717 46.6902 30.3396 46.6902 28.675ZM18.675 31.5932C18.675 29.9826 19.9867 28.675 21.5931 28.675C23.2037 28.675 24.5113 29.9826 24.5113 31.5932C24.5113 33.2038 23.2037 34.5114 21.5931 34.5114C19.9867 34.5114 18.675 33.1996 18.675 31.5932ZM34.9511 39.3058C32.9586 41.2941 29.1438 41.4477 28.0189 41.4477C26.8981 41.4477 23.0792 41.2941 21.0909 39.3016C20.7961 39.0069 20.7961 38.5254 21.0909 38.2306C21.3856 37.9359 21.8671 37.9359 22.1618 38.2306C23.4154 39.4842 26.1053 39.9326 28.0231 39.9326C29.9408 39.9326 32.6265 39.4884 33.8843 38.2306C34.179 37.9359 34.6605 37.9359 34.9552 38.2306C35.2458 38.5295 35.2458 39.011 34.9511 39.3058ZM34.4364 34.5114C32.8258 34.5114 31.5182 33.2038 31.5182 31.5932C31.5182 29.9826 32.8258 28.675 34.4364 28.675C36.047 28.675 37.3545 29.9867 37.3545 31.5932C37.3545 33.2038 36.047 34.5114 34.4364 34.5114Z" fill="white"/>
</svg>
