<svg width="57" height="57" viewBox="0 0 57 57" fill="none" xmlns="http://www.w3.org/2000/svg">
<circle cx="28.0115" cy="28.8728" r="28.0193" fill="white"/>
<path fill-rule="evenodd" clip-rule="evenodd" d="M31.0119 24.8412L23.6648 32.2374L15.0632 26.9432C13.9361 26.2493 14.1645 24.5375 15.4343 24.169L35.7424 18.2597C36.8973 17.9255 37.9651 19.0082 37.6193 20.1685L31.5937 40.4557C31.2163 41.7252 29.5238 41.9451 28.8397 40.8115L23.6648 32.2374" fill="#1E71F2"/>
<path d="M31.0119 24.8412L23.6648 32.2374L15.0632 26.9432C13.9361 26.2493 14.1645 24.5375 15.4343 24.169L35.7424 18.2597C36.8973 17.9255 37.9651 19.0082 37.6193 20.1685L31.5937 40.4557C31.2163 41.7252 29.5238 41.9451 28.8397 40.8115L23.6648 32.2374" stroke="white" stroke-width="1.00069" stroke-linecap="round" stroke-linejoin="round"/>
</svg>
