<svg width="57" height="57" viewBox="0 0 57 57" fill="none" xmlns="http://www.w3.org/2000/svg">
<path d="M28.115 56.6941C43.5897 56.6941 56.1343 44.1494 56.1343 28.6747C56.1343 13.2001 43.5897 0.655396 28.115 0.655396C12.6404 0.655396 0.0957031 13.2001 0.0957031 28.6747C0.0957031 44.1494 12.6404 56.6941 28.115 56.6941Z" fill="url(#paint0_linear_3828_113306)"/>
<path d="M19.0586 30.7214L22.3836 39.9242C22.3836 39.9242 22.7986 40.7834 23.2428 40.7834C23.687 40.7834 30.3078 33.8969 30.3078 33.8969L37.6676 19.6797L19.1748 28.347L19.0586 30.7214Z" fill="#C8DAEA"/>
<path d="M23.4745 33.0777L22.8353 39.8604C22.8353 39.8604 22.5696 41.9401 24.6451 39.8604C26.7247 37.7807 28.7131 36.1785 28.7131 36.1785L23.4745 33.0777Z" fill="#A9C6D8"/>
<path d="M19.1216 31.0494L12.2849 28.8203C12.2849 28.8203 11.4671 28.4882 11.7328 27.7369C11.7867 27.5833 11.8947 27.4505 12.2226 27.2222C13.7377 26.1678 40.2668 16.6288 40.2668 16.6288C40.2668 16.6288 41.014 16.3755 41.4582 16.5457C41.6616 16.6205 41.7902 16.7076 41.8982 17.0273C41.9397 17.1435 41.9604 17.3884 41.9563 17.6292C41.9521 17.8035 41.9314 17.9654 41.9148 18.2228C41.7529 20.8296 36.917 40.2854 36.917 40.2854C36.917 40.2854 36.6264 41.4227 35.5928 41.4643C35.215 41.4767 34.7543 41.402 34.2064 40.9288C32.1724 39.1771 25.1405 34.4532 23.5881 33.4154C23.5009 33.3573 23.476 33.2826 23.4594 33.2079C23.4386 33.1 23.5549 32.963 23.5549 32.963C23.5549 32.963 35.7962 22.0832 36.12 20.9417C36.1449 20.8545 36.0494 20.8089 35.9207 20.8462C35.1071 21.1451 21.0144 30.0448 19.4578 31.0286C19.3789 31.0867 19.1216 31.0494 19.1216 31.0494Z" fill="white"/>
<defs>
<linearGradient id="paint0_linear_3828_113306" x1="28.1171" y1="56.6921" x2="28.1171" y2="0.653361" gradientUnits="userSpaceOnUse">
<stop stop-color="#1D93D2"/>
<stop offset="1" stop-color="#38B0E3"/>
</linearGradient>
</defs>
</svg>
