<svg width="57" height="57" viewBox="0 0 57 57" fill="none" xmlns="http://www.w3.org/2000/svg">
<path d="M28.16 56.6941C43.6346 56.6941 56.1793 44.1494 56.1793 28.6747C56.1793 13.2001 43.6346 0.655396 28.16 0.655396C12.6853 0.655396 0.140625 13.2001 0.140625 28.6747C0.140625 44.1494 12.6853 56.6941 28.16 56.6941Z" fill="#121F37"/>
<path d="M36.5711 46.5476H30.6642C25.3468 46.5476 21.3826 43.8121 21.3826 37.266V26.7847H16.5508V21.1103C21.8682 19.728 24.0932 15.1535 24.3505 11.1893H29.8714V20.1887H36.3137V26.7847H29.8714V35.9128C29.8714 38.6483 31.2537 39.5947 33.4496 39.5947H36.5669V46.5476H36.5711Z" fill="white"/>
</svg>
