<svg width="57" height="57" viewBox="0 0 57 57" fill="none" xmlns="http://www.w3.org/2000/svg">
<path d="M28.1951 56.6422C12.7207 56.6422 0.175781 44.0973 0.175781 28.6228C0.175781 13.1484 12.7207 0.603516 28.1951 0.603516C43.6696 0.603516 56.2144 13.1484 56.2144 28.6228C56.2144 44.0973 43.6696 56.6422 28.1951 56.6422Z" fill="black"/>
<path d="M40.7758 40.59L30.93 26.2863L29.8165 24.6686L22.774 14.4362L22.1906 13.5885H13.5352L15.6461 16.6561L25.0104 30.2627L26.1239 31.8789L33.6487 42.8115L34.2321 43.6584H42.8868L40.7758 40.59ZM35.2609 41.6996L27.4437 30.3419L26.3302 28.725L17.2591 15.5457H21.161L28.4968 26.2039L29.6103 27.8209L39.1628 41.6996H35.2609Z" fill="white"/>
<path d="M26.3346 28.7252L27.4481 30.3421L26.1284 31.8782L16.0034 43.6578H13.5059L25.0149 30.2621L26.3346 28.7252Z" fill="white"/>
<path d="M41.8478 13.5885L30.9332 26.2863L29.6135 27.8217L28.5 26.2047L29.8197 24.6686L37.2135 16.0633L39.3511 13.5885H41.8478Z" fill="white"/>
</svg>
