<svg width="57" height="57" viewBox="0 0 57 57" fill="none" xmlns="http://www.w3.org/2000/svg">
<path d="M28.1521 56.6422C43.6268 56.6422 56.1715 44.0975 56.1715 28.6228C56.1715 13.1482 43.6268 0.603516 28.1521 0.603516C12.6775 0.603516 0.132812 13.1482 0.132812 28.6228C0.132812 44.0975 12.6775 56.6422 28.1521 56.6422Z" fill="url(#paint0_linear_3828_113276)"/>
<path fill-rule="evenodd" clip-rule="evenodd" d="M41.6496 15.488C38.2956 12.1299 33.8291 10.2785 29.0762 10.2785C19.2798 10.2785 11.3057 18.2484 11.3016 28.0448C11.3016 31.1747 12.1193 34.234 13.6759 36.928L11.1562 46.135L20.5791 43.6651C23.1734 45.0806 26.0999 45.8278 29.072 45.8278H29.0803C38.8767 45.8278 46.8508 37.8578 46.8549 28.0573C46.8508 23.3085 45.0036 18.8462 41.6496 15.488ZM29.072 42.8266H29.0679C26.4154 42.8266 23.8168 42.1126 21.5504 40.7677L21.0107 40.4481L15.4193 41.9134L16.9137 36.4631L16.5609 35.9027C15.0831 33.5532 14.3027 30.8343 14.3027 28.0448C14.3069 19.9005 20.9319 13.2755 29.0845 13.2755C33.0321 13.2755 36.739 14.8156 39.5284 17.605C42.3179 20.3987 43.8538 24.1055 43.8496 28.0531C43.8455 36.2016 37.2163 42.8266 29.072 42.8266ZM37.1789 31.7641C36.7348 31.54 34.5514 30.469 34.1446 30.3196C33.7378 30.1702 33.443 30.0954 33.1442 30.5437C32.8495 30.9879 31.9985 31.9883 31.737 32.283C31.4796 32.5777 31.2181 32.6151 30.7739 32.3951C30.3298 32.1709 28.8977 31.706 27.2041 30.1909C25.8841 29.012 24.9916 27.5592 24.7342 27.115C24.4769 26.6709 24.7051 26.4301 24.9293 26.2101C25.1286 26.0108 25.3735 25.6912 25.5935 25.4338C25.8135 25.1765 25.8882 24.9897 26.0376 24.695C26.1871 24.4002 26.1123 24.1387 26.0003 23.9187C25.8882 23.6946 24.9999 21.5111 24.6304 20.6228C24.2693 19.7553 23.904 19.8756 23.63 19.859C23.3727 19.8466 23.0738 19.8424 22.7791 19.8424C22.4844 19.8424 22.0029 19.9545 21.5961 20.3987C21.1893 20.8428 20.0436 21.9179 20.0436 24.1014C20.0436 26.2848 21.6334 28.3977 21.8576 28.6924C22.0817 28.9871 24.9874 33.4744 29.4456 35.3963C30.5041 35.8529 31.3343 36.1269 31.9777 36.3303C33.0404 36.6665 34.0117 36.6208 34.7755 36.5046C35.6306 36.3759 37.4031 35.4295 37.7725 34.3917C38.142 33.354 38.142 32.4657 38.0299 32.2789C37.9178 32.0962 37.6231 31.9883 37.1789 31.7641Z" fill="white"/>
<defs>
<linearGradient id="paint0_linear_3828_113276" x1="28.1542" y1="52.5693" x2="28.1542" y2="-3.46937" gradientUnits="userSpaceOnUse">
<stop stop-color="#78CD51"/>
<stop offset="1" stop-color="#A0FC84"/>
</linearGradient>
</defs>
</svg>
